STARTFONT 2.1
FONT -FontForge-Good Times Rg-Book-R-Normal--117-1120-75-75-P-869-ISO10646-1
SIZE 112 75 75
FONTBOUNDINGBOX 234 138 -33 -24
COMMENT "Generated by fontforge, http://fontforge.sourceforge.net"
COMMENT "(c) 1998-2012 Typodermic Fonts Inc. See attached license agreement. If agreement is missing visit typodermicfonts.com for more info. Languages by Chikako Larabie"
STARTPROPERTIES 39
FOUNDRY "FontForge"
FAMILY_NAME "Good Times Rg"
WEIGHT_NAME "Book"
SLANT "R"
SETWIDTH_NAME "Normal"
ADD_STYLE_NAME ""
PIXEL_SIZE 117
POINT_SIZE 1120
RESOLUTION_X 75
RESOLUTION_Y 75
SPACING "P"
AVERAGE_WIDTH 869
CHARSET_REGISTRY "ISO10646"
CHARSET_ENCODING "1"
FONTNAME_REGISTRY ""
CHARSET_COLLECTIONS "ISO8859-2 ISO8859-9 ISO8859-4 ISO10646-1"
FONT_NAME "GoodTimesRg-Regular"
FACE_NAME "GoodTimesRg-Regular"
COPYRIGHT "(c) 1998-2012 Typodermic Fonts Inc. See attached license agreement. If agreement is missing visit typodermicfonts.com for more info. Languages by Chikako Larabie"
FONT_VERSION "4.001"
FONT_ASCENT 93
FONT_DESCENT 24
UNDERLINE_POSITION -17
UNDERLINE_THICKNESS 3
X_HEIGHT 84
CAP_HEIGHT 84
RAW_ASCENT 799
RAW_DESCENT 201
NORM_SPACE 34
RELATIVE_WEIGHT 40
RELATIVE_SETWIDTH 50
SUPERSCRIPT_X 0
SUPERSCRIPT_Y 35
SUPERSCRIPT_SIZE 35
SUBSCRIPT_X 0
SUBSCRIPT_Y 0
SUBSCRIPT_SIZE 35
AVG_LOWERCASE_WIDTH 997
AVG_UPPERCASE_WIDTH 993
ENDPROPERTIES
CHARS 372
STARTCHAR space
ENCODING 32
SWIDTH 294 0
DWIDTH 34 0
BBX 1 1 0 0
BITMAP
00
ENDCHAR
STARTCHAR exclam
ENCODING 33
SWIDTH 298 0
DWIDTH 35 0
BBX 16 85 10 0
BITMAP
FFFC
FFFC
FFFC
FFFC
FFFC
FFFC
FFFC
FFFC
FFFC
FFFC
FFFC
FFFC
FFFC
FFFC
FFFC
FFFC
FFFC
FFFC
FFFC
FFFC
FFFC
FFFC
FFFC
FFFC
FFFC
FFFC
FFFC
FFFC
FFFC
FFFC
FFFC
FFFC
FFFC
FFFC
FFFC
FFFC
FFFC
FFFC
FFFC
FFFC
FFFC
FFFC
FFFC
FFFC
FFFC
FFFC
FFFC
FFFC
FFFC
FFFC
FFFC
FFFC
FFFC
FFFC
FFFC
FFFC
FFFC
FFFC
0000
0000
0000
0000
0000
0000
0000
0000
0000
0000
0000
07E0
1FF8
3FFC
7FFC
FFFE
FFFE
FFFF
FFFF
FFFF
FFFF
FFFE
FFFE
7FFC
3FFC
1FF8
07E0
ENDCHAR
STARTCHAR quotedbl
ENCODING 34
SWIDTH 452 0
DWIDTH 53 0
BBX 37 31 8 54
BITMAP
FFFE03FFF8
FFFE03FFF8
FFFE03FFF8
FFFE03FFF8
FFFE03FFF8
FFFE03FFF0
7FFC03FFF0
7FFC01FFF0
7FFC01FFF0
7FFC01FFF0
7FFC01FFF0
7FFC01FFF0
7FFC01FFF0
7FFC01FFF0
7FFC01FFF0
7FFC01FFF0
7FFC01FFF0
7FFC01FFE0
3FF800FFE0
3FF800FFE0
3FF800FFE0
3FF800FFE0
3FF800FFE0
3FF800FFE0
3FF800FFE0
3FF800FFE0
3FF800FFE0
3FF800FFE0
3FF800FFC0
1FF8007FC0
1FF0007FC0
ENDCHAR
STARTCHAR numbersign
ENCODING 35
SWIDTH 697 0
DWIDTH 82 0
BBX 72 85 5 0
BITMAP
00000007FF00007FF0
00000007FF00007FE0
00000007FE00007FE0
0000000FFE0000FFE0
0000000FFE0000FFE0
0000000FFC0000FFC0
0000001FFC0001FFC0
0000001FFC0001FFC0
0000001FFC0001FF80
0000001FF80001FF80
0000003FF80003FF80
0000003FF80003FF00
0000003FF00003FF00
0000007FF00007FF00
0000007FF00007FF00
0000007FE00007FE00
000000FFE0000FFE00
000000FFE0000FFE00
000000FFE0000FFC00
000000FFC0000FFC00
000001FFC0001FFC00
000001FFC0001FFC00
007FFFFFFFFFFFFFFF
007FFFFFFFFFFFFFFF
007FFFFFFFFFFFFFFF
007FFFFFFFFFFFFFFF
007FFFFFFFFFFFFFFF
007FFFFFFFFFFFFFFF
007FFFFFFFFFFFFFFF
007FFFFFFFFFFFFFFF
007FFFFFFFFFFFFFFF
007FFFFFFFFFFFFFFF
00000FFC0000FFC000
00001FFC0001FFC000
00001FFC0001FFC000
00001FF80001FF8000
00003FF80003FF8000
00003FF80003FF8000
00003FF00003FF0000
00003FF00007FF0000
00007FF00007FF0000
00007FE00007FE0000
00007FE00007FE0000
0000FFE0000FFE0000
0000FFE0000FFE0000
0000FFC0000FFC0000
0001FFC0001FFC0000
0001FFC0001FFC0000
0001FF80001FF80000
0003FF80003FF80000
0003FF80003FF80000
0003FF00003FF00000
FFFFFFFFFFFFFFFE00
FFFFFFFFFFFFFFFE00
FFFFFFFFFFFFFFFE00
FFFFFFFFFFFFFFFE00
FFFFFFFFFFFFFFFE00
FFFFFFFFFFFFFFFE00
FFFFFFFFFFFFFFFE00
FFFFFFFFFFFFFFFE00
FFFFFFFFFFFFFFFE00
FFFFFFFFFFFFFFFE00
001FF80003FF800000
003FF80003FF800000
003FF00003FF000000
003FF00003FF000000
007FF00007FF000000
007FF00007FF000000
007FE00007FE000000
00FFE0000FFE000000
00FFE0000FFE000000
00FFC0000FFC000000
00FFC0001FFC000000
01FFC0001FFC000000
01FF80001FF8000000
01FF80001FF8000000
03FF80003FF8000000
03FF80003FF8000000
03FF00003FF0000000
07FF00007FF0000000
07FF00007FF0000000
07FE00007FE0000000
07FE0000FFE0000000
0FFE0000FFE0000000
0FFC0000FFC0000000
ENDCHAR
STARTCHAR dollar
ENCODING 36
SWIDTH 744 0
DWIDTH 87 0
BBX 73 85 7 0
BITMAP
000000003F0000000000
000000003F0000000000
000000003F0000000000
000000003F0000000000
000000003F0000000000
000000003F0000000000
000000003F0000000000
000000003F0000000000
0001FFFFFFFFFFFFFC00
000FFFFFFFFFFFFFFC00
007FFFFFFFFFFFFFFC00
00FFFFFFFFFFFFFFFC00
03FFFFFFFFFFFFFFFC00
07FFFFFFFFFFFFFFFC00
0FFFFFFFFFFFFFFFFC00
1FFFFFFFFFFFFFFFFC00
1FFFFFFFFFFFFFFFFC00
3FFFFFFFFFFFFFFFFC00
7FFFFFFFFFFFFFFFFC00
7FFFFFFFFFFFFFFFFC00
7FFF80003F0000000000
FFFE00003F0000000000
FFFC00003F0000000000
FFF800003F0000000000
FFF800003F0000000000
FFF000003F0000000000
FFF000003F0000000000
FFF000003F0000000000
FFF000003F0000000000
FFF000003F0000000000
FFF000003F0000000000
FFF000003F0000000000
FFF800003F0000000000
7FF800003F0000000000
7FFC00003F0000000000
7FFE00003F0000000000
3FFF80003F0000000000
3FFFFFFFFFFFFFC00000
1FFFFFFFFFFFFFFC0000
0FFFFFFFFFFFFFFF0000
0FFFFFFFFFFFFFFFC000
07FFFFFFFFFFFFFFE000
03FFFFFFFFFFFFFFF000
00FFFFFFFFFFFFFFF800
003FFFFFFFFFFFFFFC00
000FFFFFFFFFFFFFFE00
0001FFFFFFFFFFFFFE00
000000003F0000FFFF00
000000003F00003FFF00
000000003F00000FFF00
000000003F00000FFF00
000000003F000007FF80
000000003F000007FF80
000000003F000003FF80
000000003F000003FF80
000000003F000003FF80
000000003F000003FF80
000000003F000003FF80
000000003F000003FF80
000000003F000007FF80
000000003F000007FF80
000000003F00000FFF80
000000003F00001FFF80
000000003F00003FFF00
000000003F0000FFFF00
7FFFFFFFFFFFFFFFFF00
7FFFFFFFFFFFFFFFFE00
7FFFFFFFFFFFFFFFFE00
7FFFFFFFFFFFFFFFFC00
7FFFFFFFFFFFFFFFF800
7FFFFFFFFFFFFFFFF800
7FFFFFFFFFFFFFFFF000
7FFFFFFFFFFFFFFFE000
7FFFFFFFFFFFFFFF8000
7FFFFFFFFFFFFFFE0000
7FFFFFFFFFFFFFF80000
7FFFFFFFFFFFFFC00000
000000003F0000000000
000000003F0000000000
000000003F0000000000
000000003F0000000000
000000003F0000000000
000000003F0000000000
000000003F0000000000
000000003F0000000000
ENDCHAR
STARTCHAR percent
ENCODING 37
SWIDTH 965 0
DWIDTH 113 0
BBX 103 98 5 -8
BITMAP
000000000000000000001FF800
000000000000000000003FF000
000000000000000000007FE000
00007FE0000000000000FFC000
0007FFFC000000000000FFC000
001FFFFF800000000001FF8000
007FFFFFC00000000003FF0000
00FFFFFFF00000000007FE0000
01FFFFFFF80000000007FE0000
03FFFFFFFC000000000FFC0000
07FFFFFFFE000000001FF80000
0FFFC03FFF000000003FF00000
1FFE0007FF000000007FE00000
1FF80001FF800000007FE00000
3FF00000FFC0000000FFC00000
3FE000007FC0000001FF800000
7FC000003FE0000003FF000000
7F8000001FE0000007FE000000
7F8000001FE0000007FE000000
FF0000001FE000000FFC000000
FF0000000FF000001FF8000000
FF0000000FF000003FF0000000
FF0000000FF000003FF0000000
FE0000000FF000007FE0000000
FE00000007F00000FFC0000000
FE00000007F00001FF80000000
FE0000000FF00003FF00000000
FE0000000FF00003FF00000000
FF0000000FF00007FE00000000
FF0000000FF0000FFC00000000
7F0000000FE0001FF800000000
7F0000001FE0003FF800000000
7F8000001FE0003FF000000000
3F8000003FC0007FE000000000
3FC000003FC000FFC000000000
1FE000007F8001FF8000000000
1FF00000FF8001FF8000000000
0FF80001FF0003FF0000000000
07FE0007FE0007FE0000000000
07FFC03FFE000FFC0000000000
03FFFFFFFC001FFC0000000000
01FFFFFFF8001FF80000000000
00FFFFFFE0003FF00000000000
003FFFFFC0007FE00000000000
000FFFFF0000FFC00000000000
0003FFFC0000FFC00000000000
00007FE00001FF800000000000
000000000003FF000000000000
000000000007FE00000FFC0000
00000000000FFC0000FFFF8000
00000000000FFC0003FFFFF000
00000000001FF8000FFFFFF800
00000000003FF0001FFFFFFE00
00000000007FE0003FFFFFFF00
0000000000FFE0007FFFFFFF80
0000000000FFC000FFFFFFFFC0
0000000001FF8001FFF807FFE0
0000000003FF0003FFC000FFE0
0000000007FE0003FF00003FF0
0000000007FE0007FE00001FF8
000000000FFC0007FC00000FF8
000000001FF8000FF8000007FC
000000003FF0000FF0000007FC
000000007FF0000FF0000003FC
000000007FE0001FE0000003FC
00000000FFC0001FE0000001FE
00000001FF80001FE0000001FE
00000003FF00001FC0000001FE
00000007FF00001FC0000001FE
00000007FE00001FC0000001FE
0000000FFC00001FC0000001FE
0000001FF800001FC0000001FE
0000003FF000001FC0000001FE
0000003FF000001FC0000001FE
0000007FE000001FE0000001FC
000000FFC000000FE0000001FC
000001FF8000000FE0000003FC
000003FF8000000FF0000003FC
000003FF00000007F0000007F8
000007FE00000007F8000007F8
00000FFC00000003FC00000FF0
00001FF800000003FE00001FF0
00003FF800000001FF00003FE0
00003FF000000001FFC000FFC0
00007FE000000000FFF007FF80
0000FFC0000000007FFFFFFF80
0001FFC0000000003FFFFFFE00
0001FF80000000001FFFFFFC00
0003FF000000000007FFFFF800
0007FE000000000001FFFFE000
000FFC0000000000007FFF8000
001FFC0000000000000FFC0000
001FF800000000000000000000
003FF000000000000000000000
007FE000000000000000000000
00FFE000000000000000000000
00FFC000000000000000000000
03FF8000000000000000000000
ENDCHAR
STARTCHAR ampersand
ENCODING 38
SWIDTH 759 0
DWIDTH 89 0
BBX 79 85 6 0
BITMAP
000003FFFFF800000000
00007FFFFFF800000000
0003FFFFFFF800000000
000FFFFFFFF800000000
003FFFFFFFF800000000
007FFFFFFFF800000000
00FFFFFFFFF800000000
01FFFFFFFFF800000000
03FFFFFFFFF800000000
07FFFFFFFFF800000000
0FFFFFFFFFF800000000
0FFFFFFFFFF800000000
1FFFFFFFFFF800000000
1FFFFFFFFFF800000000
1FFFFFFFFFF800000000
3FFFFE00000000000000
3FFFF800000000000000
3FFFE000000000000000
3FFFC000000000000000
7FFFC000000000000000
7FFF8000000000000000
7FFF8000000000000000
7FFF8000000000000000
7FFF0000000000000000
7FFF0000000000000000
3FFF0000000000000000
3FFF0000000000000000
3FFF8000000000000000
3FFF8000000000000000
3FFF8000000000000000
1FFF8000000000000000
1FFFC000000000000000
1FFFE000000000000000
0FFFF000000000000000
07FFF800000000000000
07FFFF00000000000000
03FFFFFFFFFFFFFFFFC0
00FFFFFFFFFFFFFFFFC0
007FFFFFFFFFFFFFFFC0
001FFFFFFFFFFFFFFFC0
0007FFFFFFFFFFFFFFC0
001FFFFFFFFFFFFFFFC0
007FFFFFFFFFFFFFFFC0
01FFFFFFFFFFFFFFFFC0
03FFFFFFFFFFFFFFFFC0
07FFFFFFFFFFFFFFFFC0
0FFFFFFFFFFFFFFFFFC0
1FFFFFFFFFFFFFFFFFC0
1FFFFF0000007FFF0000
3FFFF00000007FFF0000
3FFFC00000007FFF0000
7FFF800000007FFF0000
7FFF000000007FFF0000
FFFF000000007FFF0000
FFFE000000007FFF0000
FFFE000000007FFF0000
FFFE000000007FFF0000
FFFE000000007FFF0000
FFFE000000007FFF0000
FFFE000000007FFF0000
FFFE000000007FFF0000
FFFE000000007FFF0000
FFFE000000007FFF0000
FFFF000000007FFF0000
FFFF000000007FFF0000
FFFF800000007FFF0000
7FFFC00000007FFF0000
7FFFE00000007FFF0000
7FFFF80000007FFF0000
7FFFFF0000007FFF0000
3FFFFFFFFFFFFFFFFFFE
3FFFFFFFFFFFFFFFFFFE
1FFFFFFFFFFFFFFFFFFE
1FFFFFFFFFFFFFFFFFFE
0FFFFFFFFFFFFFFFFFFE
07FFFFFFFFFFFFFFFFFE
03FFFFFFFFFFFFFFFFFE
01FFFFFFFFFFFFFFFFFE
00FFFFFFFFFFFFFFFFFE
007FFFFFFFFFFFFFFFFE
003FFFFFFFFFFFFFFFFE
000FFFFFFFFFFFFFFFFE
0003FFFFFFFFFFFFFFFE
00007FFFFFFFFFFFFFFE
000007FFFFFFFFFFFFFE
ENDCHAR
STARTCHAR quotesingle
ENCODING 39
SWIDTH 255 0
DWIDTH 30 0
BBX 15 31 7 54
BITMAP
FFFE
7FFE
7FFE
7FFE
7FFE
7FFE
7FFE
7FFE
7FFE
7FFE
7FFE
7FFC
3FFC
3FFC
3FFC
3FFC
3FFC
3FFC
3FFC
3FFC
3FFC
3FFC
3FF8
3FF8
1FF8
1FF8
1FF8
1FF8
1FF8
1FF8
1FF8
ENDCHAR
STARTCHAR parenleft
ENCODING 40
SWIDTH 356 0
DWIDTH 42 0
BBX 23 107 11 -10
BITMAP
000FFE
000FFC
001FFC
001FFC
003FF8
003FF8
003FF0
007FF0
007FF0
007FE0
00FFE0
00FFC0
01FFC0
01FFC0
01FF80
03FF80
03FF80
03FF00
07FF00
07FF00
07FE00
07FE00
0FFE00
0FFC00
0FFC00
1FFC00
1FF800
1FF800
1FF800
1FF800
3FF000
3FF000
3FF000
3FF000
3FE000
7FE000
7FE000
7FE000
7FE000
7FE000
7FC000
7FC000
FFC000
FFC000
FFC000
FFC000
FFC000
FFC000
FFC000
FFC000
FFC000
FF8000
FF8000
FF8000
FF8000
FF8000
FFC000
FFC000
FFC000
FFC000
FFC000
FFC000
FFC000
FFC000
7FC000
7FC000
7FC000
7FE000
7FE000
7FE000
7FE000
7FE000
3FE000
3FF000
3FF000
3FF000
3FF000
1FF000
1FF800
1FF800
1FF800
0FF800
0FFC00
0FFC00
0FFC00
07FE00
07FE00
07FE00
07FF00
03FF00
03FF00
03FF80
01FF80
01FF80
00FFC0
00FFC0
00FFE0
007FE0
007FE0
007FF0
003FF0
003FF8
001FF8
001FFC
000FFC
000FFE
0007FE
ENDCHAR
STARTCHAR parenright
ENCODING 41
SWIDTH 355 0
DWIDTH 42 0
BBX 24 107 7 -10
BITMAP
7FE000
7FF000
3FF000
3FF800
3FF800
1FF800
1FFC00
0FFC00
0FFE00
07FE00
07FE00
07FF00
03FF00
03FF00
03FF80
01FF80
01FF80
01FFC0
00FFC0
00FFC0
00FFE0
007FE0
007FE0
007FF0
003FF0
003FF0
003FF0
003FF8
001FF8
001FF8
001FF8
001FF8
000FFC
000FFC
000FFC
000FFC
000FFC
0007FC
0007FE
0007FE
0007FE
0007FE
0007FE
0007FE
0003FE
0003FE
0003FE
0003FE
0003FF
0003FF
0003FF
0003FF
0003FF
0003FF
0003FF
0003FF
0003FF
0003FF
0003FF
0003FE
0003FE
0003FE
0003FE
0007FE
0007FE
0007FE
0007FE
0007FE
0007FE
0007FC
000FFC
000FFC
000FFC
000FFC
000FFC
000FF8
001FF8
001FF8
001FF8
001FF8
003FF0
003FF0
003FF0
007FF0
007FE0
007FE0
007FE0
00FFC0
00FFC0
00FFC0
01FF80
01FF80
03FF80
03FF00
03FF00
07FF00
07FE00
07FE00
0FFE00
0FFC00
1FFC00
1FF800
3FF800
3FF000
3FF000
7FF000
FFE000
ENDCHAR
STARTCHAR asterisk
ENCODING 42
SWIDTH 469 0
DWIDTH 55 0
BBX 41 38 7 47
BITMAP
00007F000000
00007F000000
00007F000000
00007F000000
00007F000000
00007F000000
00007F000000
00007F000000
00007F000000
00007F000000
00007F000000
3C007F001E00
3F807F00FE00
3FF07F07FE00
7FFE7F7FFF00
7FFFFFFFFF00
FFFFFFFFFF00
3FFFFFFFFE80
07FFFFFFF000
00FFFFFF8000
001FFFF80000
0001FFC00000
0003FFE00000
0007FFE00000
0007FFF00000
000FFFF80000
001FF7FC0000
001FE3FC0000
003FC3FE0000
007FC1FF0000
00FF80FF0000
00FF007F8000
01FF007FC000
03FE003FC000
03FC001FE000
00F8001F8000
0078000F0000
003000060000
ENDCHAR
STARTCHAR plus
ENCODING 43
SWIDTH 690 0
DWIDTH 81 0
BBX 66 66 7 10
BITMAP
0000000FFC00000000
0000000FFC00000000
0000000FFC00000000
0000000FFC00000000
0000000FFC00000000
0000000FFC00000000
0000000FFC00000000
0000000FFC00000000
0000000FFC00000000
0000000FFC00000000
0000000FFC00000000
0000000FFC00000000
0000000FFC00000000
0000000FFC00000000
0000000FFC00000000
0000000FFC00000000
0000000FFC00000000
0000000FFC00000000
0000000FFC00000000
0000000FFC00000000
0000000FFC00000000
0000000FFC00000000
0000000FFC00000000
0000000FFC00000000
0000000FFC00000000
0000000FFC00000000
0000000FFC00000000
0000000FFC00000000
FFFFFFFFFFFFFFFFC0
FFFFFFFFFFFFFFFFC0
FFFFFFFFFFFFFFFFC0
FFFFFFFFFFFFFFFFC0
FFFFFFFFFFFFFFFFC0
FFFFFFFFFFFFFFFFC0
FFFFFFFFFFFFFFFFC0
FFFFFFFFFFFFFFFFC0
FFFFFFFFFFFFFFFFC0
FFFFFFFFFFFFFFFFC0
0000000FFC00000000
0000000FFC00000000
0000000FFC00000000
0000000FFC00000000
0000000FFC00000000
0000000FFC00000000
0000000FFC00000000
0000000FFC00000000
0000000FFC00000000
0000000FFC00000000
0000000FFC00000000
0000000FFC00000000
0000000FFC00000000
0000000FFC00000000
0000000FFC00000000
0000000FFC00000000
0000000FFC00000000
0000000FFC00000000
0000000FFC00000000
0000000FFC00000000
0000000FFC00000000
0000000FFC00000000
0000000FFC00000000
0000000FFC00000000
0000000FFC00000000
0000000FFC00000000
0000000FFC00000000
0000000FFC00000000
ENDCHAR
STARTCHAR comma
ENCODING 44
SWIDTH 259 0
DWIDTH 30 0
BBX 15 30 8 -14
BITMAP
FFFE
FFFE
FFFC
FFFC
FFFC
FFFC
FFFC
FFF8
FFF8
FFF8
FFF8
FFF8
FFF8
FFF0
FFF0
FFF0
FFF0
FFF0
FFE0
FFE0
FFE0
FFE0
FFE0
FFC0
FFC0
FFC0
FFC0
FFC0
FF80
FF80
ENDCHAR
STARTCHAR hyphen
ENCODING 45
SWIDTH 296 0
DWIDTH 35 0
BBX 28 10 3 38
BITMAP
FFFFFFF0
FFFFFFF0
FFFFFFF0
FFFFFFF0
FFFFFFF0
FFFFFFF0
FFFFFFF0
FFFFFFF0
FFFFFFF0
FFFFFFF0
ENDCHAR
STARTCHAR period
ENCODING 46
SWIDTH 262 0
DWIDTH 31 0
BBX 16 16 7 0
BITMAP
07E0
1FF8
3FFC
3FFE
7FFF
7FFF
FFFF
FFFF
FFFF
FFFF
7FFF
7FFF
3FFE
3FFC
1FF8
07E0
ENDCHAR
STARTCHAR slash
ENCODING 47
SWIDTH 444 0
DWIDTH 52 0
BBX 50 85 1 0
BITMAP
0000000000FFC0
0000000001FF80
0000000001FF80
0000000003FF00
0000000003FF00
0000000007FE00
0000000007FE00
0000000007FC00
000000000FFC00
000000000FF800
000000001FF800
000000001FF000
000000003FF000
000000003FF000
000000007FE000
000000007FE000
00000000FFC000
00000000FFC000
00000001FF8000
00000001FF8000
00000003FF0000
00000003FF0000
00000007FE0000
00000007FE0000
00000007FC0000
0000000FFC0000
0000000FF80000
0000001FF80000
0000001FF80000
0000003FF00000
0000003FF00000
0000007FE00000
0000007FE00000
000000FFC00000
000000FFC00000
000001FF800000
000001FF800000
000003FF000000
000003FF000000
000007FE000000
000007FE000000
000007FE000000
00000FFC000000
00000FFC000000
00001FF8000000
00001FF8000000
00003FF0000000
00003FF0000000
00007FE0000000
00007FE0000000
0000FFC0000000
0000FFC0000000
0001FF80000000
0001FF80000000
0003FF80000000
0003FF00000000
0007FF00000000
0007FE00000000
0007FE00000000
000FFC00000000
000FFC00000000
001FF800000000
001FF800000000
003FF000000000
003FF000000000
007FE000000000
007FE000000000
00FFC000000000
00FFC000000000
01FFC000000000
01FF8000000000
03FF8000000000
03FF0000000000
07FF0000000000
07FE0000000000
07FE0000000000
0FFC0000000000
0FFC0000000000
1FF80000000000
1FF80000000000
3FF00000000000
3FF00000000000
7FF00000000000
7FE00000000000
FFE00000000000
ENDCHAR
STARTCHAR zero
ENCODING 48
SWIDTH 838 0
DWIDTH 98 0
BBX 88 85 5 0
BITMAP
0000000007FFE000000000
00000000FFFFFF00000000
0000000FFFFFFFF0000000
0000003FFFFFFFFC000000
000001FFFFFFFFFF800000
000007FFFFFFFFFFE00000
00000FFFFFFFFFFFF00000
00003FFFFFFFFFFFFC0000
0000FFFFFFFFFFFFFE0000
0001FFFFFFFFFFFFFF8000
0003FFFFFFFFFFFFFFC000
0007FFFFFFFFFFFFFFE000
000FFFFFFFFFFFFFFFF000
001FFFFFFFFFFFFFFFF800
003FFFFFFFFFFFFFFFFC00
007FFFFFF8001FFFFFFE00
00FFFFFF800001FFFFFF00
00FFFFFC0000003FFFFF80
01FFFFF00000000FFFFF80
03FFFFC000000007FFFFC0
03FFFF8000000001FFFFC0
07FFFF0000000000FFFFE0
0FFFFE00000000007FFFF0
0FFFFC00000000003FFFF0
1FFFF800000000001FFFF8
1FFFF000000000000FFFF8
1FFFE0000000000007FFF8
3FFFE0000000000007FFFC
3FFFC0000000000003FFFC
3FFF80000000000003FFFC
7FFF80000000000001FFFE
7FFF80000000000001FFFE
7FFF00000000000000FFFE
7FFF00000000000000FFFE
FFFF00000000000000FFFF
FFFE00000000000000FFFF
FFFE000000000000007FFF
FFFE000000000000007FFF
FFFE000000000000007FFF
FFFE000000000000007FFF
FFFE000000000000007FFF
FFFE000000000000007FFF
FFFE000000000000007FFF
FFFE000000000000007FFF
FFFE000000000000007FFF
FFFE000000000000007FFF
FFFE000000000000007FFF
FFFE000000000000007FFF
FFFE000000000000007FFF
7FFF00000000000000FFFE
7FFF00000000000000FFFE
7FFF00000000000000FFFE
7FFF00000000000001FFFE
7FFF80000000000001FFFE
3FFF80000000000001FFFC
3FFFC0000000000003FFFC
3FFFC0000000000003FFFC
1FFFE0000000000007FFF8
1FFFE0000000000007FFF8
0FFFF000000000000FFFF0
0FFFF800000000001FFFF0
07FFFC00000000003FFFE0
07FFFE00000000007FFFE0
03FFFF0000000000FFFFC0
03FFFF8000000001FFFFC0
01FFFFE000000007FFFF80
00FFFFF00000000FFFFF00
00FFFFFC0000003FFFFF00
007FFFFF800001FFFFFE00
003FFFFFF8001FFFFFFC00
001FFFFFFFFFFFFFFFF800
000FFFFFFFFFFFFFFFF000
0007FFFFFFFFFFFFFFE000
0003FFFFFFFFFFFFFFC000
0001FFFFFFFFFFFFFF8000
0000FFFFFFFFFFFFFF0000
00007FFFFFFFFFFFFE0000
00001FFFFFFFFFFFF80000
00000FFFFFFFFFFFE00000
000003FFFFFFFFFFC00000
000000FFFFFFFFFF000000
0000003FFFFFFFFC000000
00000007FFFFFFE0000000
00000000FFFFFF00000000
0000000007FFE000000000
ENDCHAR
STARTCHAR one
ENCODING 49
SWIDTH 385 0
DWIDTH 45 0
BBX 35 85 3 0
BITMAP
FFFC000000
FFFFC00000
FFFFF80000
FFFFFE0000
FFFFFF8000
FFFFFFC000
FFFFFFE000
FFFFFFF000
FFFFFFF800
FFFFFFFC00
FFFFFFFC00
FFFFFFFE00
FFFFFFFE00
FFFFFFFF00
FFFFFFFF00
000FFFFF80
0001FFFF80
0000FFFF80
00007FFFC0
00003FFFC0
00003FFFC0
00001FFFC0
00001FFFC0
00001FFFC0
00000FFFE0
00000FFFE0
00000FFFE0
00000FFFE0
00000FFFE0
00000FFFE0
00000FFFE0
00000FFFE0
00000FFFE0
00000FFFE0
00000FFFE0
00000FFFE0
00000FFFE0
00000FFFE0
00000FFFE0
00000FFFE0
00000FFFE0
00000FFFE0
00000FFFE0
00000FFFE0
00000FFFE0
00000FFFE0
00000FFFE0
00000FFFE0
00000FFFE0
00000FFFE0
00000FFFE0
00000FFFE0
00000FFFE0
00000FFFE0
00000FFFE0
00000FFFE0
00000FFFE0
00000FFFE0
00000FFFE0
00000FFFE0
00000FFFE0
00000FFFE0
00000FFFE0
00000FFFE0
00000FFFE0
00000FFFE0
00000FFFE0
00000FFFE0
00000FFFE0
00000FFFE0
00000FFFE0
00000FFFE0
00000FFFE0
00000FFFE0
00000FFFE0
00000FFFE0
00000FFFE0
00000FFFE0
00000FFFE0
00000FFFE0
00000FFFE0
00000FFFE0
00000FFFE0
00000FFFE0
00000FFFE0
ENDCHAR
STARTCHAR two
ENCODING 50
SWIDTH 825 0
DWIDTH 97 0
BBX 83 85 7 0
BITMAP
7FFFFFFFFFFFFFFF000000
7FFFFFFFFFFFFFFFF00000
7FFFFFFFFFFFFFFFFC0000
7FFFFFFFFFFFFFFFFF0000
7FFFFFFFFFFFFFFFFFC000
7FFFFFFFFFFFFFFFFFE000
7FFFFFFFFFFFFFFFFFF000
7FFFFFFFFFFFFFFFFFF800
7FFFFFFFFFFFFFFFFFFC00
7FFFFFFFFFFFFFFFFFFE00
7FFFFFFFFFFFFFFFFFFF00
7FFFFFFFFFFFFFFFFFFF00
7FFFFFFFFFFFFFFFFFFF80
7FFFFFFFFFFFFFFFFFFF80
7FFFFFFFFFFFFFFFFFFFC0
0000000000000003FFFFC0
0000000000000000FFFFC0
00000000000000007FFFE0
00000000000000003FFFE0
00000000000000001FFFE0
00000000000000001FFFE0
00000000000000000FFFE0
00000000000000000FFFE0
00000000000000000FFFE0
00000000000000000FFFE0
00000000000000000FFFE0
00000000000000000FFFE0
00000000000000000FFFE0
00000000000000000FFFE0
00000000000000001FFFE0
00000000000000001FFFE0
00000000000000003FFFC0
00000000000000007FFFC0
0000000000000000FFFFC0
0000000000000007FFFF80
00000FFFFFFFFFFFFFFF80
0001FFFFFFFFFFFFFFFF00
0007FFFFFFFFFFFFFFFF00
001FFFFFFFFFFFFFFFFE00
007FFFFFFFFFFFFFFFFC00
00FFFFFFFFFFFFFFFFF800
01FFFFFFFFFFFFFFFFF000
03FFFFFFFFFFFFFFFFE000
07FFFFFFFFFFFFFFFFC000
0FFFFFFFFFFFFFFFFF0000
0FFFFFFFFFFFFFFFFC0000
1FFFFFFFFFFFFFFFF00000
1FFFFFFFFFFFFFFF000000
3FFFFC0000000000000000
3FFFE00000000000000000
7FFFC00000000000000000
7FFF800000000000000000
7FFF000000000000000000
7FFE000000000000000000
7FFE000000000000000000
7FFE000000000000000000
FFFE000000000000000000
FFFC000000000000000000
FFFC000000000000000000
FFFC000000000000000000
FFFC000000000000000000
FFFC000000000000000000
FFFC000000000000000000
FFFC000000000000000000
FFFC000000000000000000
FFFC000000000000000000
FFFC000000000000000000
FFFC000000000000000000
FFFC000000000000000000
FFFC000000000000000000
FFFFFFFFFFFFFFFFFFFFC0
FFFFFFFFFFFFFFFFFFFFC0
FFFFFFFFFFFFFFFFFFFFC0
FFFFFFFFFFFFFFFFFFFFC0
FFFFFFFFFFFFFFFFFFFFC0
FFFFFFFFFFFFFFFFFFFFC0
FFFFFFFFFFFFFFFFFFFFC0
FFFFFFFFFFFFFFFFFFFFC0
FFFFFFFFFFFFFFFFFFFFC0
FFFFFFFFFFFFFFFFFFFFC0
FFFFFFFFFFFFFFFFFFFFC0
FFFFFFFFFFFFFFFFFFFFC0
FFFFFFFFFFFFFFFFFFFFC0
FFFFFFFFFFFFFFFFFFFFC0
FFFFFFFFFFFFFFFFFFFFC0
ENDCHAR
STARTCHAR three
ENCODING 51
SWIDTH 827 0
DWIDTH 97 0
BBX 86 85 5 0
BITMAP
7FFFFFFFFFFFFFFF000000
7FFFFFFFFFFFFFFFF80000
7FFFFFFFFFFFFFFFFF0000
7FFFFFFFFFFFFFFFFFC000
7FFFFFFFFFFFFFFFFFE000
7FFFFFFFFFFFFFFFFFF800
7FFFFFFFFFFFFFFFFFFC00
7FFFFFFFFFFFFFFFFFFE00
7FFFFFFFFFFFFFFFFFFF00
7FFFFFFFFFFFFFFFFFFF80
7FFFFFFFFFFFFFFFFFFF80
7FFFFFFFFFFFFFFFFFFFC0
7FFFFFFFFFFFFFFFFFFFE0
7FFFFFFFFFFFFFFFFFFFE0
7FFFFFFFFFFFFFFFFFFFE0
0000000000000007FFFFF0
0000000000000000FFFFF0
00000000000000003FFFF0
00000000000000001FFFF0
00000000000000000FFFF0
000000000000000007FFF0
000000000000000007FFF0
000000000000000007FFF0
000000000000000007FFF0
000000000000000007FFF0
000000000000000007FFF0
000000000000000007FFF0
000000000000000007FFF0
000000000000000007FFF0
000000000000000007FFE0
00000000000000000FFFE0
00000000000000000FFFE0
00000000000000001FFFC0
00000000000000007FFF80
0000000000000003FFFF80
00000FFFFFFFFFFFFFFF00
00000FFFFFFFFFFFFFFE00
00000FFFFFFFFFFFFFF800
00000FFFFFFFFFFFFFF000
00000FFFFFFFFFFFFF8000
00000FFFFFFFFFFFFFE000
00000FFFFFFFFFFFFFF800
00000FFFFFFFFFFFFFFC00
00000FFFFFFFFFFFFFFE00
00000FFFFFFFFFFFFFFF00
00000FFFFFFFFFFFFFFF80
00000FFFFFFFFFFFFFFFC0
00000FFFFFFFFFFFFFFFE0
0000000000000001FFFFF0
00000000000000003FFFF0
00000000000000001FFFF0
00000000000000000FFFF8
000000000000000007FFF8
000000000000000003FFF8
000000000000000003FFFC
000000000000000003FFFC
000000000000000001FFFC
000000000000000001FFFC
000000000000000001FFFC
000000000000000001FFFC
000000000000000001FFFC
000000000000000001FFFC
000000000000000003FFFC
000000000000000003FFFC
000000000000000007FFFC
000000000000000007FFF8
00000000000000000FFFF8
00000000000000003FFFF8
0000000000000000FFFFF8
0000000000000007FFFFF0
FFFFFFFFFFFFFFFFFFFFF0
FFFFFFFFFFFFFFFFFFFFE0
FFFFFFFFFFFFFFFFFFFFE0
FFFFFFFFFFFFFFFFFFFFC0
FFFFFFFFFFFFFFFFFFFFC0
FFFFFFFFFFFFFFFFFFFF80
FFFFFFFFFFFFFFFFFFFF00
FFFFFFFFFFFFFFFFFFFE00
FFFFFFFFFFFFFFFFFFFC00
FFFFFFFFFFFFFFFFFFF800
FFFFFFFFFFFFFFFFFFE000
FFFFFFFFFFFFFFFFFFC000
FFFFFFFFFFFFFFFFFE0000
FFFFFFFFFFFFFFFFF80000
FFFFFFFFFFFFFFFF800000
ENDCHAR
STARTCHAR four
ENCODING 52
SWIDTH 845 0
DWIDTH 99 0
BBX 90 85 6 0
BITMAP
FFFC000000000001FFFC0000
FFFC000000000001FFFC0000
FFFC000000000001FFFC0000
FFFC000000000001FFFC0000
FFFC000000000001FFFC0000
FFFC000000000001FFFC0000
FFFC000000000001FFFC0000
FFFC000000000001FFFC0000
FFFC000000000001FFFC0000
FFFC000000000001FFFC0000
FFFC000000000001FFFC0000
FFFC000000000001FFFC0000
FFFC000000000001FFFC0000
FFFC000000000001FFFC0000
FFFC000000000001FFFC0000
FFFC000000000001FFFC0000
FFFC000000000001FFFC0000
FFFC000000000001FFFC0000
FFFC000000000001FFFC0000
FFFC000000000001FFFC0000
FFFC000000000001FFFC0000
FFFC000000000001FFFC0000
FFFC000000000001FFFC0000
FFFC000000000001FFFC0000
FFFC000000000001FFFC0000
FFFC000000000001FFFC0000
FFFC000000000001FFFC0000
FFFC000000000001FFFC0000
FFFC000000000001FFFC0000
FFFC000000000001FFFC0000
FFFC000000000001FFFC0000
FFFC000000000001FFFC0000
FFFC000000000001FFFC0000
FFFC000000000001FFFC0000
FFFC000000000001FFFC0000
FFFC000000000001FFFC0000
FFFE000000000001FFFC0000
FFFE000000000001FFFC0000
FFFE000000000001FFFC0000
FFFE000000000001FFFC0000
FFFE000000000001FFFC0000
FFFE000000000001FFFC0000
FFFF000000000001FFFC0000
FFFF000000000001FFFC0000
FFFF800000000001FFFC0000
7FFFC00000000001FFFC0000
7FFFF00000000001FFFC0000
7FFFFE0000000001FFFC0000
3FFFFFFFFFFFFFFFFFFFFFC0
3FFFFFFFFFFFFFFFFFFFFFC0
1FFFFFFFFFFFFFFFFFFFFFC0
1FFFFFFFFFFFFFFFFFFFFFC0
0FFFFFFFFFFFFFFFFFFFFFC0
0FFFFFFFFFFFFFFFFFFFFFC0
07FFFFFFFFFFFFFFFFFFFFC0
03FFFFFFFFFFFFFFFFFFFFC0
01FFFFFFFFFFFFFFFFFFFFC0
00FFFFFFFFFFFFFFFFFFFFC0
003FFFFFFFFFFFFFFFFFFFC0
001FFFFFFFFFFFFFFFFFFFC0
0003FFFFFFFFFFFFFFFFFFC0
00007FFFFFFFFFFFFFFFFFC0
000007FFFFFFFFFFFFFFFFC0
0000000000000001FFFC0000
0000000000000001FFFC0000
0000000000000001FFFC0000
0000000000000001FFFC0000
0000000000000001FFFC0000
0000000000000001FFFC0000
0000000000000001FFFC0000
0000000000000001FFFC0000
0000000000000001FFFC0000
0000000000000001FFFC0000
0000000000000001FFFC0000
0000000000000001FFFC0000
0000000000000001FFFC0000
0000000000000001FFFC0000
0000000000000001FFFC0000
0000000000000001FFFC0000
0000000000000001FFFC0000
0000000000000001FFFC0000
0000000000000001FFFC0000
0000000000000001FFFC0000
0000000000000001FFFC0000
0000000000000001FFFC0000
ENDCHAR
STARTCHAR five
ENCODING 53
SWIDTH 885 0
DWIDTH 104 0
BBX 90 85 7 0
BITMAP
FFFFFFFFFFFFFFFFFFFFFC00
FFFFFFFFFFFFFFFFFFFFFC00
FFFFFFFFFFFFFFFFFFFFFC00
FFFFFFFFFFFFFFFFFFFFFC00
FFFFFFFFFFFFFFFFFFFFFC00
FFFFFFFFFFFFFFFFFFFFFC00
FFFFFFFFFFFFFFFFFFFFFC00
FFFFFFFFFFFFFFFFFFFFFC00
FFFFFFFFFFFFFFFFFFFFFC00
FFFFFFFFFFFFFFFFFFFFFC00
FFFFFFFFFFFFFFFFFFFFFC00
FFFFFFFFFFFFFFFFFFFFFC00
FFFFFFFFFFFFFFFFFFFFFC00
FFFFFFFFFFFFFFFFFFFFFC00
FFFFFFFFFFFFFFFFFFFFFC00
FFFF00000000000000000000
FFFF00000000000000000000
FFFF00000000000000000000
FFFF00000000000000000000
FFFF00000000000000000000
FFFF00000000000000000000
FFFF00000000000000000000
FFFF00000000000000000000
FFFF00000000000000000000
FFFF00000000000000000000
FFFF00000000000000000000
FFFF00000000000000000000
FFFF00000000000000000000
FFFF00000000000000000000
FFFF00000000000000000000
FFFF00000000000000000000
FFFF00000000000000000000
FFFF00000000000000000000
FFFF00000000000000000000
FFFF00000000000000000000
FFFFFFFFFFFFFFFFFE000000
FFFFFFFFFFFFFFFFFFE00000
FFFFFFFFFFFFFFFFFFFC0000
FFFFFFFFFFFFFFFFFFFF0000
FFFFFFFFFFFFFFFFFFFFC000
FFFFFFFFFFFFFFFFFFFFE000
FFFFFFFFFFFFFFFFFFFFF000
FFFFFFFFFFFFFFFFFFFFF800
FFFFFFFFFFFFFFFFFFFFFC00
FFFFFFFFFFFFFFFFFFFFFE00
FFFFFFFFFFFFFFFFFFFFFE00
FFFFFFFFFFFFFFFFFFFFFF00
FFFFFFFFFFFFFFFFFFFFFF00
000000000000000007FFFF80
000000000000000001FFFF80
0000000000000000007FFF80
0000000000000000003FFFC0
0000000000000000001FFFC0
0000000000000000001FFFC0
0000000000000000000FFFC0
0000000000000000000FFFC0
0000000000000000000FFFC0
0000000000000000000FFFC0
0000000000000000000FFFC0
0000000000000000000FFFC0
0000000000000000000FFFC0
0000000000000000000FFFC0
0000000000000000000FFFC0
0000000000000000000FFFC0
0000000000000000001FFFC0
0000000000000000001FFFC0
0000000000000000003FFFC0
0000000000000000007FFFC0
000000000000000001FFFF80
000000000000000007FFFF80
FFFFFFFFFFFFFFFFFFFFFF80
FFFFFFFFFFFFFFFFFFFFFF00
FFFFFFFFFFFFFFFFFFFFFF00
FFFFFFFFFFFFFFFFFFFFFE00
FFFFFFFFFFFFFFFFFFFFFE00
FFFFFFFFFFFFFFFFFFFFFC00
FFFFFFFFFFFFFFFFFFFFF800
FFFFFFFFFFFFFFFFFFFFF000
FFFFFFFFFFFFFFFFFFFFE000
FFFFFFFFFFFFFFFFFFFFC000
FFFFFFFFFFFFFFFFFFFF8000
FFFFFFFFFFFFFFFFFFFE0000
FFFFFFFFFFFFFFFFFFF80000
FFFFFFFFFFFFFFFFFFE00000
FFFFFFFFFFFFFFFFFC000000
ENDCHAR
STARTCHAR six
ENCODING 54
SWIDTH 872 0
DWIDTH 102 0
BBX 91 85 5 0
BITMAP
00000001FFFFFFFFFFFFFE00
0000003FFFFFFFFFFFFFFE00
000003FFFFFFFFFFFFFFFE00
00000FFFFFFFFFFFFFFFFE00
00003FFFFFFFFFFFFFFFFE00
0000FFFFFFFFFFFFFFFFFE00
0003FFFFFFFFFFFFFFFFFE00
0007FFFFFFFFFFFFFFFFFE00
000FFFFFFFFFFFFFFFFFFE00
001FFFFFFFFFFFFFFFFFFE00
003FFFFFFFFFFFFFFFFFFE00
007FFFFFFFFFFFFFFFFFFE00
00FFFFFFFFFFFFFFFFFFFE00
01FFFFFFFFFFFFFFFFFFFE00
01FFFFFFFFFFFFFFFFFFFE00
03FFFFFF0000000000000000
07FFFFF00000000000000000
07FFFFC00000000000000000
0FFFFF000000000000000000
0FFFFE000000000000000000
1FFFF8000000000000000000
1FFFF0000000000000000000
1FFFF0000000000000000000
3FFFE0000000000000000000
3FFFC0000000000000000000
3FFFC0000000000000000000
7FFF80000000000000000000
7FFF80000000000000000000
7FFF80000000000000000000
7FFF00000000000000000000
7FFF00000000000000000000
7FFF00000000000000000000
FFFF00000000000000000000
FFFE00000000000000000000
FFFE00000000000000000000
FFFFFFFFFFFFFFFFFF000000
FFFFFFFFFFFFFFFFFFF00000
FFFFFFFFFFFFFFFFFFFE0000
FFFFFFFFFFFFFFFFFFFF8000
FFFFFFFFFFFFFFFFFFFFC000
FFFFFFFFFFFFFFFFFFFFF000
FFFFFFFFFFFFFFFFFFFFF800
FFFFFFFFFFFFFFFFFFFFFC00
FFFFFFFFFFFFFFFFFFFFFE00
FFFFFFFFFFFFFFFFFFFFFE00
FFFFFFFFFFFFFFFFFFFFFF00
FFFFFFFFFFFFFFFFFFFFFF00
FFFFFFFFFFFFFFFFFFFFFF80
FFFE0000000000000FFFFF80
FFFE00000000000001FFFFC0
FFFE000000000000007FFFC0
7FFE000000000000003FFFC0
7FFF000000000000001FFFC0
7FFF000000000000000FFFC0
7FFF000000000000000FFFE0
7FFF000000000000000FFFE0
7FFF800000000000000FFFE0
3FFF800000000000000FFFE0
3FFFC000000000000007FFE0
3FFFC00000000000000FFFE0
3FFFE00000000000000FFFE0
1FFFE00000000000000FFFE0
1FFFF00000000000000FFFE0
0FFFF80000000000000FFFE0
0FFFFC0000000000001FFFC0
0FFFFE0000000000001FFFC0
07FFFF0000000000003FFFC0
07FFFFC000000000007FFFC0
03FFFFF00000000001FFFFC0
01FFFFFF0000000007FFFF80
01FFFFFFFFFFFFFFFFFFFF80
00FFFFFFFFFFFFFFFFFFFF00
007FFFFFFFFFFFFFFFFFFF00
007FFFFFFFFFFFFFFFFFFF00
003FFFFFFFFFFFFFFFFFFE00
001FFFFFFFFFFFFFFFFFFC00
0007FFFFFFFFFFFFFFFFFC00
0003FFFFFFFFFFFFFFFFF800
0001FFFFFFFFFFFFFFFFF000
00007FFFFFFFFFFFFFFFC000
00003FFFFFFFFFFFFFFF8000
00000FFFFFFFFFFFFFFF0000
000001FFFFFFFFFFFFFC0000
0000003FFFFFFFFFFFE00000
00000001FFFFFFFFFE000000
ENDCHAR
STARTCHAR seven
ENCODING 55
SWIDTH 756 0
DWIDTH 88 0
BBX 81 85 5 0
BITMAP
FFFFFFFFFFFFFFFFFFF000
FFFFFFFFFFFFFFFFFFFC00
FFFFFFFFFFFFFFFFFFFE00
FFFFFFFFFFFFFFFFFFFF00
FFFFFFFFFFFFFFFFFFFF80
FFFFFFFFFFFFFFFFFFFF80
FFFFFFFFFFFFFFFFFFFF80
FFFFFFFFFFFFFFFFFFFF80
FFFFFFFFFFFFFFFFFFFF80
FFFFFFFFFFFFFFFFFFFF80
FFFFFFFFFFFFFFFFFFFF00
FFFFFFFFFFFFFFFFFFFF00
FFFFFFFFFFFFFFFFFFFE00
FFFFFFFFFFFFFFFFFFFE00
FFFFFFFFFFFFFFFFFFFC00
000000000000003FFFF800
000000000000003FFFF000
000000000000007FFFE000
00000000000000FFFFE000
00000000000001FFFFC000
00000000000003FFFF8000
00000000000007FFFF0000
00000000000007FFFE0000
0000000000000FFFFC0000
0000000000001FFFFC0000
0000000000003FFFF80000
0000000000007FFFF00000
0000000000007FFFE00000
000000000000FFFFC00000
000000000001FFFFC00000
000000000003FFFF800000
000000000007FFFF000000
00000000000FFFFE000000
00000000000FFFFC000000
00000000001FFFF8000000
00000000003FFFF8000000
00000000007FFFF0000000
0000000000FFFFE0000000
0000000001FFFFC0000000
0000000001FFFF80000000
0000000003FFFF80000000
0000000007FFFF00000000
000000000FFFFE00000000
000000001FFFFC00000000
000000003FFFF800000000
000000003FFFF000000000
000000007FFFF000000000
00000000FFFFE000000000
00000001FFFFC000000000
00000003FFFF8000000000
00000007FFFF0000000000
00000007FFFF0000000000
0000000FFFFE0000000000
0000001FFFFC0000000000
0000003FFFF80000000000
0000007FFFF00000000000
000000FFFFE00000000000
000000FFFFE00000000000
000001FFFFC00000000000
000003FFFF800000000000
000007FFFF000000000000
00000FFFFE000000000000
00001FFFFE000000000000
00001FFFFC000000000000
00003FFFF8000000000000
00007FFFF0000000000000
0000FFFFE0000000000000
0001FFFFC0000000000000
0001FFFFC0000000000000
0003FFFF80000000000000
0007FFFF00000000000000
000FFFFE00000000000000
001FFFFC00000000000000
003FFFFC00000000000000
003FFFF800000000000000
007FFFF000000000000000
00FFFFE000000000000000
01FFFFC000000000000000
03FFFF8000000000000000
07FFFF8000000000000000
07FFFF0000000000000000
0FFFFE0000000000000000
1FFFFC0000000000000000
3FFFF80000000000000000
7FFFF80000000000000000
ENDCHAR
STARTCHAR eight
ENCODING 56
SWIDTH 898 0
DWIDTH 105 0
BBX 93 85 6 0
BITMAP
000003FFFFFFFFFFFE000000
00007FFFFFFFFFFFFFF00000
0003FFFFFFFFFFFFFFFE0000
000FFFFFFFFFFFFFFFFF8000
001FFFFFFFFFFFFFFFFFE000
007FFFFFFFFFFFFFFFFFF000
00FFFFFFFFFFFFFFFFFFF800
01FFFFFFFFFFFFFFFFFFFC00
03FFFFFFFFFFFFFFFFFFFE00
07FFFFFFFFFFFFFFFFFFFF00
07FFFFFFFFFFFFFFFFFFFF80
0FFFFFFFFFFFFFFFFFFFFF80
1FFFFFFFFFFFFFFFFFFFFFC0
1FFFFFFFFFFFFFFFFFFFFFC0
1FFFFFFFFFFFFFFFFFFFFFC0
3FFFFF80000000000FFFFFE0
3FFFFC000000000001FFFFE0
3FFFF00000000000007FFFE0
3FFFE00000000000003FFFE0
3FFFC00000000000001FFFE0
3FFF800000000000000FFFF0
3FFF800000000000000FFFF0
3FFF800000000000000FFFF0
3FFF800000000000000FFFF0
3FFF800000000000000FFFE0
3FFF800000000000000FFFE0
3FFF800000000000000FFFE0
3FFF800000000000000FFFE0
3FFF800000000000000FFFE0
1FFF800000000000000FFFC0
1FFFC00000000000001FFFC0
1FFFC00000000000001FFFC0
0FFFE00000000000003FFF80
07FFF8000000000000FFFF00
07FFFF000000000007FFFF00
03FFFFFFFFFFFFFFFFFFFE00
01FFFFFFFFFFFFFFFFFFFC00
007FFFFFFFFFFFFFFFFFF800
003FFFFFFFFFFFFFFFFFE000
000FFFFFFFFFFFFFFFFF8000
001FFFFFFFFFFFFFFFFFC000
007FFFFFFFFFFFFFFFFFF000
00FFFFFFFFFFFFFFFFFFF800
01FFFFFFFFFFFFFFFFFFFC00
03FFFFFFFFFFFFFFFFFFFE00
07FFFFFFFFFFFFFFFFFFFF00
0FFFFFFFFFFFFFFFFFFFFF80
1FFFFFFFFFFFFFFFFFFFFFC0
3FFFFE000000000003FFFFE0
3FFFF00000000000007FFFE0
7FFFE00000000000003FFFF0
7FFFC00000000000001FFFF0
7FFF800000000000000FFFF0
7FFF0000000000000007FFF0
FFFF0000000000000007FFF8
FFFE0000000000000003FFF8
FFFE0000000000000003FFF8
FFFE0000000000000003FFF8
FFFE0000000000000003FFF8
FFFE0000000000000003FFF8
FFFE0000000000000003FFF8
FFFE0000000000000003FFF8
FFFE0000000000000003FFF8
FFFF0000000000000007FFF8
FFFF0000000000000007FFF8
7FFF800000000000000FFFF0
7FFFC00000000000001FFFF0
7FFFF00000000000007FFFF0
7FFFFC000000000001FFFFF0
3FFFFF80000000000FFFFFE0
3FFFFFFFFFFFFFFFFFFFFFE0
1FFFFFFFFFFFFFFFFFFFFFC0
1FFFFFFFFFFFFFFFFFFFFFC0
0FFFFFFFFFFFFFFFFFFFFF80
0FFFFFFFFFFFFFFFFFFFFF80
07FFFFFFFFFFFFFFFFFFFF00
03FFFFFFFFFFFFFFFFFFFE00
01FFFFFFFFFFFFFFFFFFFC00
00FFFFFFFFFFFFFFFFFFF800
007FFFFFFFFFFFFFFFFFF000
001FFFFFFFFFFFFFFFFFC000
000FFFFFFFFFFFFFFFFF8000
0003FFFFFFFFFFFFFFFE0000
00007FFFFFFFFFFFFFF00000
000007FFFFFFFFFFFF000000
ENDCHAR
STARTCHAR nine
ENCODING 57
SWIDTH 861 0
DWIDTH 101 0
BBX 91 85 5 0
BITMAP
00001FFFFFFFFFF000000000
0000FFFFFFFFFFFF80000000
0007FFFFFFFFFFFFF0000000
001FFFFFFFFFFFFFFC000000
003FFFFFFFFFFFFFFF000000
007FFFFFFFFFFFFFFFC00000
00FFFFFFFFFFFFFFFFF00000
01FFFFFFFFFFFFFFFFF80000
03FFFFFFFFFFFFFFFFFC0000
07FFFFFFFFFFFFFFFFFE0000
0FFFFFFFFFFFFFFFFFFF0000
0FFFFFFFFFFFFFFFFFFF8000
1FFFFFFFFFFFFFFFFFFFC000
1FFFFFFFFFFFFFFFFFFFE000
3FFFFFFFFFFFFFFFFFFFE000
3FFFFC000000001FFFFFF000
7FFFF00000000003FFFFF800
7FFFE000000000007FFFF800
7FFFC000000000003FFFFC00
7FFF8000000000000FFFFC00
FFFF00000000000007FFFE00
FFFF00000000000003FFFE00
FFFF00000000000001FFFE00
FFFE00000000000001FFFF00
FFFE00000000000000FFFF00
FFFE000000000000007FFF00
FFFE000000000000007FFF80
FFFE000000000000007FFF80
FFFE000000000000003FFF80
FFFE000000000000003FFF80
FFFE000000000000003FFFC0
FFFE000000000000001FFFC0
FFFF000000000000001FFFC0
FFFF000000000000001FFFC0
7FFF800000000000001FFFC0
7FFFC00000000000001FFFC0
7FFFE00000000000000FFFE0
3FFFF00000000000000FFFE0
3FFFFE0000000000000FFFE0
3FFFFFFFFFFFFFFFFFFFFFE0
1FFFFFFFFFFFFFFFFFFFFFE0
1FFFFFFFFFFFFFFFFFFFFFE0
0FFFFFFFFFFFFFFFFFFFFFE0
07FFFFFFFFFFFFFFFFFFFFE0
03FFFFFFFFFFFFFFFFFFFFE0
01FFFFFFFFFFFFFFFFFFFFE0
00FFFFFFFFFFFFFFFFFFFFE0
003FFFFFFFFFFFFFFFFFFFE0
001FFFFFFFFFFFFFFFFFFFE0
0003FFFFFFFFFFFFFFFFFFE0
00003FFFFFFFFFFFFFFFFFC0
0000000000000000001FFFC0
0000000000000000001FFFC0
0000000000000000001FFFC0
0000000000000000003FFFC0
0000000000000000003FFFC0
0000000000000000003FFFC0
0000000000000000007FFF80
0000000000000000007FFF80
0000000000000000007FFF80
000000000000000000FFFF80
000000000000000001FFFF00
000000000000000001FFFF00
000000000000000003FFFF00
000000000000000007FFFE00
00000000000000000FFFFE00
00000000000000001FFFFC00
00000000000000007FFFFC00
0000000000000003FFFFF800
000000000000001FFFFFF800
003FFFFFFFFFFFFFFFFFF000
003FFFFFFFFFFFFFFFFFF000
003FFFFFFFFFFFFFFFFFE000
003FFFFFFFFFFFFFFFFFC000
003FFFFFFFFFFFFFFFFF8000
003FFFFFFFFFFFFFFFFF0000
003FFFFFFFFFFFFFFFFE0000
003FFFFFFFFFFFFFFFFC0000
003FFFFFFFFFFFFFFFF00000
003FFFFFFFFFFFFFFFE00000
003FFFFFFFFFFFFFFF800000
003FFFFFFFFFFFFFFE000000
003FFFFFFFFFFFFFF8000000
003FFFFFFFFFFFFF80000000
003FFFFFFFFFFFF000000000
ENDCHAR
STARTCHAR colon
ENCODING 58
SWIDTH 262 0
DWIDTH 31 0
BBX 16 54 7 0
BITMAP
07E0
0FF8
3FFC
3FFE
7FFE
7FFF
FFFF
FFFF
FFFF
FFFF
7FFF
7FFF
3FFE
3FFC
1FF8
07E0
0000
0000
0000
0000
0000
0000
0000
0000
0000
0000
0000
0000
0000
0000
0000
0000
0000
0000
0000
0000
0000
0000
07E0
1FF8
3FFC
3FFE
7FFF
7FFF
FFFF
FFFF
FFFF
FFFF
7FFF
7FFF
3FFE
3FFC
1FF8
07E0
ENDCHAR
STARTCHAR semicolon
ENCODING 59
SWIDTH 262 0
DWIDTH 31 0
BBX 16 67 7 -14
BITMAP
07E0
0FF8
3FFC
3FFE
7FFF
7FFF
7FFF
FFFF
FFFF
7FFF
7FFF
7FFF
3FFE
3FFC
0FF8
07E0
0000
0000
0000
0000
0000
0000
0000
0000
0000
0000
0000
0000
0000
0000
0000
0000
0000
0000
0000
0000
0000
7FFF
7FFF
7FFE
7FFE
7FFE
7FFE
7FFE
7FFC
7FFC
7FFC
7FFC
7FFC
7FFC
7FF8
7FF8
7FF8
7FF8
7FF8
7FF0
7FF0
7FF0
7FF0
7FF0
7FE0
7FE0
7FE0
7FE0
7FE0
7FC0
7FC0
ENDCHAR
STARTCHAR less
ENCODING 60
SWIDTH 690 0
DWIDTH 81 0
BBX 66 63 7 12
BITMAP
000000000000000040
0000000000000001C0
0000000000000007C0
000000000000001FC0
00000000000000FFC0
00000000000003FFC0
0000000000001FFFC0
0000000000007FFFC0
000000000001FFFFC0
00000000000FFFFFC0
00000000003FFFFFC0
0000000000FFFFFF80
0000000007FFFFFC00
000000001FFFFFF000
00000000FFFFFF8000
00000003FFFFFE0000
0000000FFFFFF00000
0000007FFFFF800000
000001FFFFFE000000
00000FFFFFF0000000
00003FFFFFC0000000
0000FFFFFE00000000
0007FFFFF800000000
001FFFFFC000000000
00FFFFFF0000000000
03FFFFF80000000000
0FFFFFC00000000000
3FFFFF000000000000
7FFFF8000000000000
7FFFE0000000000000
7FFF00000000000000
FFFC00000000000000
FFFE00000000000000
7FFFC0000000000000
7FFFF0000000000000
3FFFFE000000000000
1FFFFF800000000000
07FFFFF00000000000
01FFFFFC0000000000
003FFFFF8000000000
000FFFFFE000000000
0003FFFFFC00000000
00007FFFFF00000000
00001FFFFFE0000000
000003FFFFF8000000
000000FFFFFF000000
0000003FFFFFC00000
00000007FFFFF80000
00000001FFFFFF0000
000000003FFFFFC000
000000000FFFFFF800
0000000003FFFFFE00
00000000007FFFFFC0
00000000001FFFFFC0
000000000007FFFFC0
000000000000FFFFC0
0000000000003FFFC0
00000000000007FFC0
00000000000001FFC0
000000000000007FC0
000000000000000FC0
0000000000000003C0
0000000000000000C0
ENDCHAR
STARTCHAR equal
ENCODING 61
SWIDTH 690 0
DWIDTH 81 0
BBX 66 41 7 22
BITMAP
FFFFFFFFFFFFFFFFC0
FFFFFFFFFFFFFFFFC0
FFFFFFFFFFFFFFFFC0
FFFFFFFFFFFFFFFFC0
FFFFFFFFFFFFFFFFC0
FFFFFFFFFFFFFFFFC0
FFFFFFFFFFFFFFFFC0
FFFFFFFFFFFFFFFFC0
FFFFFFFFFFFFFFFFC0
FFFFFFFFFFFFFFFFC0
000000000000000000
000000000000000000
000000000000000000
000000000000000000
000000000000000000
000000000000000000
000000000000000000
000000000000000000
000000000000000000
000000000000000000
000000000000000000
000000000000000000
000000000000000000
000000000000000000
000000000000000000
000000000000000000
000000000000000000
000000000000000000
000000000000000000
000000000000000000
000000000000000000
FFFFFFFFFFFFFFFFC0
FFFFFFFFFFFFFFFFC0
FFFFFFFFFFFFFFFFC0
FFFFFFFFFFFFFFFFC0
FFFFFFFFFFFFFFFFC0
FFFFFFFFFFFFFFFFC0
FFFFFFFFFFFFFFFFC0
FFFFFFFFFFFFFFFFC0
FFFFFFFFFFFFFFFFC0
FFFFFFFFFFFFFFFFC0
ENDCHAR
STARTCHAR greater
ENCODING 62
SWIDTH 690 0
DWIDTH 81 0
BBX 66 63 7 12
BITMAP
800000000000000000
E00000000000000000
FC0000000000000000
FF0000000000000000
FFC000000000000000
FFF800000000000000
FFFE00000000000000
FFFFC0000000000000
FFFFF0000000000000
FFFFFC000000000000
FFFFFF800000000000
3FFFFFE00000000000
0FFFFFFC0000000000
01FFFFFF0000000000
003FFFFFC000000000
000FFFFFF800000000
0001FFFFFE00000000
00007FFFFFC0000000
00000FFFFFF0000000
000003FFFFFC000000
0000007FFFFF800000
0000001FFFFFE00000
00000003FFFFF80000
000000007FFFFF0000
000000001FFFFFC000
0000000003FFFFF800
0000000000FFFFFE00
00000000001FFFFF00
000000000007FFFF80
000000000000FFFFC0
0000000000001FFFC0
00000000000007FFC0
0000000000000FFFC0
0000000000007FFFC0
000000000001FFFFC0
00000000000FFFFF80
00000000003FFFFF00
0000000001FFFFFC00
0000000007FFFFE000
000000003FFFFF8000
00000001FFFFFE0000
00000007FFFFF00000
0000003FFFFFC00000
000000FFFFFE000000
000007FFFFF8000000
00001FFFFFE0000000
0000FFFFFF00000000
0003FFFFFC00000000
001FFFFFF000000000
007FFFFF8000000000
03FFFFFE0000000000
0FFFFFF00000000000
7FFFFFC00000000000
FFFFFF000000000000
FFFFF8000000000000
FFFFE0000000000000
FFFF80000000000000
FFFC00000000000000
FFF000000000000000
FF8000000000000000
FE0000000000000000
F80000000000000000
C00000000000000000
ENDCHAR
STARTCHAR question
ENCODING 63
SWIDTH 776 0
DWIDTH 91 0
BBX 82 85 5 0
BITMAP
FFFFFFFFFFFFFFFE000000
FFFFFFFFFFFFFFFFE00000
FFFFFFFFFFFFFFFFF80000
FFFFFFFFFFFFFFFFFE0000
FFFFFFFFFFFFFFFFFF8000
FFFFFFFFFFFFFFFFFFC000
FFFFFFFFFFFFFFFFFFE000
FFFFFFFFFFFFFFFFFFF000
FFFFFFFFFFFFFFFFFFF800
FFFFFFFFFFFFFFFFFFFC00
FFFFFFFFFFFFFFFFFFFE00
FFFFFFFFFFFFFFFFFFFE00
FFFFFFFFFFFFFFFFFFFF00
FFFFFFFFFFFFFFFFFFFF00
FFFFFFFFFFFFFFFFFFFF80
0000000000000007FFFF80
0000000000000001FFFF80
0000000000000000FFFFC0
00000000000000007FFFC0
00000000000000003FFFC0
00000000000000003FFFC0
00000000000000001FFFC0
00000000000000001FFFC0
00000000000000001FFFC0
00000000000000001FFFC0
00000000000000001FFFC0
00000000000000001FFFC0
00000000000000001FFFC0
00000000000000003FFFC0
00000000000000003FFFC0
00000000000000007FFF80
0000000000000000FFFF80
0000000000000001FFFF80
000000000000000FFFFF00
000003FFFFFFFFFFFFFF00
00003FFFFFFFFFFFFFFE00
0000FFFFFFFFFFFFFFFE00
0003FFFFFFFFFFFFFFFC00
0007FFFFFFFFFFFFFFF800
000FFFFFFFFFFFFFFFF000
001FFFFFFFFFFFFFFFE000
001FFFFFFFFFFFFFFFC000
003FFFFFFFFFFFFFFF8000
003FFFFFFFFFFFFFFE0000
007FFFFFFFFFFFFFF80000
007FFFFFFFFFFFFFE00000
007FFFFFFFFFFFFC000000
00FFFF8000000000000000
00FFFE0000000000000000
00FFFE0000000000000000
00FFFC0000000000000000
00FFFC0000000000000000
00FFFC0000000000000000
00FFFC0000000000000000
00FFFC0000000000000000
00FFFC0000000000000000
00FFFC0000000000000000
0000000000000000000000
0000000000000000000000
0000000000000000000000
0000000000000000000000
0000000000000000000000
0000000000000000000000
0000000000000000000000
0000000000000000000000
0000000000000000000000
0000000000000000000000
0000000000000000000000
0000000000000000000000
000FC00000000000000000
001FF00000000000000000
007FF80000000000000000
007FFC0000000000000000
00FFFE0000000000000000
00FFFE0000000000000000
01FFFE0000000000000000
01FFFE0000000000000000
01FFFE0000000000000000
00FFFE0000000000000000
00FFFE0000000000000000
00FFFE0000000000000000
007FFC0000000000000000
007FF80000000000000000
001FF00000000000000000
000FC00000000000000000
ENDCHAR
STARTCHAR at
ENCODING 64
SWIDTH 833 0
DWIDTH 97 0
BBX 85 85 5 0
BITMAP
000000000FFFFFFFFFFFF8
00000001FFFFFFFFFFFFF8
0000000FFFFFFFFFFFFFF8
0000007FFFFFFFFFFFFFF8
000001FFFFFFFFFFFFFFF8
000007FFFFFFFFFFFFFFF8
00000FFFFFFFFFFFFFFFF8
00003FFFFFFFFFFFFFFFF8
00007FFFFFFFFFFFFFFFF8
0001FFFFFFFFFFFFFFFFF8
0003FFFFFFFFFFFFFFFFF8
0007FFFFF0000000003FF8
000FFFFF00000000003FF8
001FFFF800000000003FF8
003FFFE000000000003FF8
007FFF8000000000003FF8
007FFE0000000000003FF8
00FFFC0000000000003FF8
01FFF80000000000003FF8
01FFF00000000000003FF8
03FFE00000000000003FF8
07FFC00000000000003FF8
07FF800000000000003FF8
0FFF000000000000003FF8
0FFF000007FFFFFF003FF8
1FFE00003FFFFFFF003FF8
1FFE0000FFFFFFFF003FF8
1FFC0001FFFFFFFF003FF8
3FFC0003FFFFFFFF003FF8
3FF80007FFFFFFFF003FF8
3FF8000FFFFFFFFF003FF8
7FF8001FFFFFFFFF003FF8
7FF0001FFF0003FF003FF8
7FF0003FFC0003FF003FF8
7FF0003FF80003FF003FF8
7FF0007FF00003FF003FF8
FFE0007FE00003FF003FF8
FFE0007FE00003FF003FF8
FFE000FFE00003FF003FF8
FFE000FFC00003FF003FF8
FFE000FFC00003FF003FF8
FFE000FFC00003FF003FF8
FFE000FFC00003FF003FF8
FFE000FFC00003FF003FF8
FFE000FFC00003FF003FF8
FFE000FFC00003FF003FF8
FFE000FFE00003FF003FF8
FFE0007FE00003FF003FF8
FFE0007FF00003FF003FF8
FFF0007FF00003FF003FF8
FFF0007FF80003FF003FF8
7FF0003FFC0003FF003FF8
7FF0003FFF0003FF003FF8
7FF8001FFFFFFFFFFFFFF8
7FF8001FFFFFFFFFFFFFF8
7FF8000FFFFFFFFFFFFFF8
3FFC0007FFFFFFFFFFFFF8
3FFC0003FFFFFFFFFFFFF8
3FFE0001FFFFFFFFFFFFF8
1FFE0000FFFFFFFFFFFFF8
1FFF00003FFFFFFFFFFFF8
0FFF000007FFFFFFFFFFF8
0FFF800000000000000000
07FFC00000000000000000
07FFE00000000000000000
03FFF00000000000000000
03FFF80000000000000000
01FFFC0000000000000000
00FFFE0000000000000000
00FFFF8000000000000000
007FFFE000000000000000
003FFFF800000000000000
001FFFFF00000000000000
000FFFFFF0000000000000
0007FFFFFFFFFFFFFFFFF8
0003FFFFFFFFFFFFFFFFF8
0001FFFFFFFFFFFFFFFFF8
00007FFFFFFFFFFFFFFFF8
00003FFFFFFFFFFFFFFFF8
00000FFFFFFFFFFFFFFFF8
000003FFFFFFFFFFFFFFF8
000000FFFFFFFFFFFFFFF8
0000001FFFFFFFFFFFFFF8
00000003FFFFFFFFFFFFF8
000000001FFFFFFFFFFFF8
ENDCHAR
STARTCHAR A
ENCODING 65
SWIDTH 989 0
DWIDTH 116 0
BBX 112 86 2 0
BITMAP
00000000000007E0000000000000
0000000000001FF0000000000000
0000000000003FF8000000000000
0000000000007FFC000000000000
0000000000007FFE000000000000
000000000000FFFE000000000000
000000000001FFFF000000000000
000000000001FFFF800000000000
000000000003FFFF800000000000
000000000003FFFFC00000000000
000000000007FFFFC00000000000
00000000000FFFFFE00000000000
00000000000FFFFFF00000000000
00000000001FFFFFF00000000000
00000000001FFFFFF80000000000
00000000003FFFFFF80000000000
00000000007FFFFFFC0000000000
00000000007FFFFFFE0000000000
0000000000FFFFFFFE0000000000
0000000000FFFFFFFF0000000000
0000000001FFFFFFFF0000000000
0000000003FFFFFFFF8000000000
0000000003FFFCFFFFC000000000
0000000007FFFC7FFFC000000000
0000000007FFF87FFFE000000000
000000000FFFF83FFFE000000000
000000001FFFF03FFFF000000000
000000001FFFE01FFFF800000000
000000003FFFE00FFFF800000000
000000003FFFC00FFFFC00000000
000000007FFFC007FFFC00000000
00000000FFFF8007FFFE00000000
00000000FFFF8003FFFF00000000
00000001FFFF0001FFFF00000000
00000001FFFE0001FFFF80000000
00000003FFFE0000FFFF80000000
00000007FFFC0000FFFFC0000000
00000007FFFC00007FFFE0000000
0000000FFFF800003FFFE0000000
0000000FFFF000003FFFF0000000
0000001FFFF000001FFFF0000000
0000003FFFE000001FFFF8000000
0000003FFFE000000FFFFC000000
0000007FFFC000000FFFFC000000
0000007FFF80000007FFFE000000
000000FFFF80000003FFFF000000
000001FFFF00000003FFFF000000
000001FFFF00000001FFFF800000
000003FFFE00000001FFFF800000
000003FFFC00000000FFFFC00000
000007FFFC000000007FFFE00000
00000FFFF8000000007FFFE00000
00000FFFF8000000003FFFF00000
00001FFFF000FFFFFFFFFFF00000
00001FFFE001FFFFFFFFFFF80000
00003FFFE001FFFFFFFFFFFC0000
00007FFFC003FFFFFFFFFFFC0000
00007FFFC007FFFFFFFFFFFE0000
0000FFFF8007FFFFFFFFFFFE0000
0000FFFF000FFFFFFFFFFFFF0000
0001FFFF000FFFFFFFFFFFFF8000
0003FFFE001FFFFFFFFFFFFF8000
0003FFFE001FFFFFFFFFFFFFC000
0007FFFC003FFFFFFFFFFFFFC000
0007FFF8007FFFFFFFFFFFFFE000
000FFFF80000000000003FFFF000
001FFFF00000000000003FFFF000
001FFFF00000000000001FFFF800
003FFFE00000000000001FFFF800
003FFFC00000000000000FFFFC00
007FFFC000000000000007FFFE00
00FFFF8000000000000007FFFE00
00FFFF8000000000000003FFFF00
01FFFF0000000000000003FFFF00
01FFFE0000000000000001FFFF80
03FFFE0000000000000000FFFFC0
07FFFC0000000000000000FFFFC0
07FFFC00000000000000007FFFE0
0FFFF800000000000000007FFFE0
0FFFF800000000000000003FFFF0
1FFFF000000000000000001FFFF8
3FFFE000000000000000001FFFF8
3FFFE000000000000000000FFFFC
7FFFC0000000000000000007FFFC
7FFFC0000000000000000007FFFE
FFFF80000000000000000003FFFF
ENDCHAR
STARTCHAR B
ENCODING 66
SWIDTH 891 0
DWIDTH 104 0
BBX 92 85 7 0
BITMAP
FFFFFFFFFFFFFFFFF8000000
FFFFFFFFFFFFFFFFFFC00000
FFFFFFFFFFFFFFFFFFF80000
FFFFFFFFFFFFFFFFFFFE0000
FFFFFFFFFFFFFFFFFFFF8000
FFFFFFFFFFFFFFFFFFFFC000
FFFFFFFFFFFFFFFFFFFFF000
FFFFFFFFFFFFFFFFFFFFF800
FFFFFFFFFFFFFFFFFFFFFC00
FFFFFFFFFFFFFFFFFFFFFC00
FFFFFFFFFFFFFFFFFFFFFE00
FFFFFFFFFFFFFFFFFFFFFF00
FFFFFFFFFFFFFFFFFFFFFF00
FFFFFFFFFFFFFFFFFFFFFF80
FFFFFFFFFFFFFFFFFFFFFF80
FFFE0000000000003FFFFF80
FFFE00000000000003FFFFC0
FFFE00000000000000FFFFC0
FFFE000000000000007FFFC0
FFFE000000000000003FFFC0
FFFE000000000000003FFFC0
FFFE000000000000001FFFC0
FFFE000000000000001FFFC0
FFFE000000000000001FFFC0
FFFE000000000000001FFFC0
FFFE000000000000001FFFC0
FFFE000000000000001FFFC0
FFFE000000000000001FFFC0
FFFE000000000000001FFF80
FFFE000000000000003FFF80
FFFE000000000000003FFF80
FFFE000000000000007FFF00
FFFE00000000000000FFFF00
FFFE00000000000001FFFE00
FFFE0000000000000FFFFC00
FFFE003FFFFFFFFFFFFFF800
FFFE003FFFFFFFFFFFFFF000
FFFE003FFFFFFFFFFFFFE000
FFFE003FFFFFFFFFFFFF8000
FFFE003FFFFFFFFFFFFE0000
FFFE003FFFFFFFFFFFFF0000
FFFE003FFFFFFFFFFFFFC000
FFFE003FFFFFFFFFFFFFF000
FFFE003FFFFFFFFFFFFFF800
FFFE003FFFFFFFFFFFFFFC00
FFFE003FFFFFFFFFFFFFFE00
FFFE003FFFFFFFFFFFFFFF00
FFFE003FFFFFFFFFFFFFFF00
FFFE0000000000000FFFFF80
FFFE00000000000001FFFFC0
FFFE000000000000007FFFC0
FFFE000000000000003FFFC0
FFFE000000000000001FFFE0
FFFE000000000000001FFFE0
FFFE000000000000000FFFE0
FFFE000000000000000FFFE0
FFFE000000000000000FFFE0
FFFE000000000000000FFFF0
FFFE0000000000000007FFF0
FFFE000000000000000FFFF0
FFFE000000000000000FFFF0
FFFE000000000000000FFFF0
FFFE000000000000000FFFE0
FFFE000000000000000FFFE0
FFFE000000000000001FFFE0
FFFE000000000000003FFFE0
FFFE000000000000007FFFE0
FFFE00000000000000FFFFC0
FFFE00000000000003FFFFC0
FFFE0000000000003FFFFFC0
FFFFFFFFFFFFFFFFFFFFFF80
FFFFFFFFFFFFFFFFFFFFFF80
FFFFFFFFFFFFFFFFFFFFFF00
FFFFFFFFFFFFFFFFFFFFFF00
FFFFFFFFFFFFFFFFFFFFFE00
FFFFFFFFFFFFFFFFFFFFFC00
FFFFFFFFFFFFFFFFFFFFFC00
FFFFFFFFFFFFFFFFFFFFF800
FFFFFFFFFFFFFFFFFFFFF000
FFFFFFFFFFFFFFFFFFFFC000
FFFFFFFFFFFFFFFFFFFF8000
FFFFFFFFFFFFFFFFFFFE0000
FFFFFFFFFFFFFFFFFFF80000
FFFFFFFFFFFFFFFFFFE00000
FFFFFFFFFFFFFFFFFE000000
ENDCHAR
STARTCHAR C
ENCODING 67
SWIDTH 829 0
DWIDTH 97 0
BBX 87 85 5 0
BITMAP
000000003FFFFFFFFFFFFE
00000007FFFFFFFFFFFFFE
0000003FFFFFFFFFFFFFFE
000000FFFFFFFFFFFFFFFE
000007FFFFFFFFFFFFFFFE
00000FFFFFFFFFFFFFFFFE
00003FFFFFFFFFFFFFFFFE
0000FFFFFFFFFFFFFFFFFE
0001FFFFFFFFFFFFFFFFFE
0003FFFFFFFFFFFFFFFFFE
0007FFFFFFFFFFFFFFFFFE
000FFFFFFFFFFFFFFFFFFE
001FFFFFFFFFFFFFFFFFFE
003FFFFFFFFFFFFFFFFFFE
007FFFFFFFFFFFFFFFFFFE
00FFFFFFE0000000000000
01FFFFFF00000000000000
01FFFFF800000000000000
03FFFFF000000000000000
07FFFFC000000000000000
07FFFF8000000000000000
0FFFFE0000000000000000
0FFFFC0000000000000000
1FFFF80000000000000000
1FFFF80000000000000000
1FFFF00000000000000000
3FFFE00000000000000000
3FFFE00000000000000000
3FFFC00000000000000000
7FFFC00000000000000000
7FFF800000000000000000
7FFF800000000000000000
7FFF000000000000000000
7FFF000000000000000000
FFFF000000000000000000
FFFE000000000000000000
FFFE000000000000000000
FFFE000000000000000000
FFFE000000000000000000
FFFE000000000000000000
FFFE000000000000000000
FFFE000000000000000000
FFFE000000000000000000
FFFE000000000000000000
FFFE000000000000000000
FFFE000000000000000000
FFFE000000000000000000
FFFE000000000000000000
FFFE000000000000000000
FFFF000000000000000000
7FFF000000000000000000
7FFF000000000000000000
7FFF000000000000000000
7FFF800000000000000000
3FFF800000000000000000
3FFFC00000000000000000
3FFFC00000000000000000
3FFFE00000000000000000
1FFFE00000000000000000
1FFFF00000000000000000
0FFFF80000000000000000
0FFFFC0000000000000000
07FFFE0000000000000000
07FFFF0000000000000000
03FFFF8000000000000000
03FFFFC000000000000000
01FFFFF000000000000000
00FFFFF800000000000000
00FFFFFF00000000000000
007FFFFFE0000000000000
003FFFFFFFFFFFFFFFFFFE
001FFFFFFFFFFFFFFFFFFE
000FFFFFFFFFFFFFFFFFFE
0007FFFFFFFFFFFFFFFFFE
0003FFFFFFFFFFFFFFFFFE
0001FFFFFFFFFFFFFFFFFE
0000FFFFFFFFFFFFFFFFFE
00007FFFFFFFFFFFFFFFFE
00001FFFFFFFFFFFFFFFFE
00000FFFFFFFFFFFFFFFFE
000003FFFFFFFFFFFFFFFE
000000FFFFFFFFFFFFFFFE
0000001FFFFFFFFFFFFFFE
00000003FFFFFFFFFFFFFE
000000003FFFFFFFFFFFFE
ENDCHAR
STARTCHAR D
ENCODING 68
SWIDTH 879 0
DWIDTH 103 0
BBX 91 85 7 0
BITMAP
FFFFFFFFFFFFFF8000000000
FFFFFFFFFFFFFFFC00000000
FFFFFFFFFFFFFFFF80000000
FFFFFFFFFFFFFFFFE0000000
FFFFFFFFFFFFFFFFF8000000
FFFFFFFFFFFFFFFFFE000000
FFFFFFFFFFFFFFFFFF800000
FFFFFFFFFFFFFFFFFFE00000
FFFFFFFFFFFFFFFFFFF00000
FFFFFFFFFFFFFFFFFFF80000
FFFFFFFFFFFFFFFFFFFC0000
FFFFFFFFFFFFFFFFFFFE0000
FFFFFFFFFFFFFFFFFFFF0000
FFFFFFFFFFFFFFFFFFFF8000
FFFFFFFFFFFFFFFFFFFFC000
FFFE0000000000FFFFFFE000
FFFE00000000001FFFFFE000
FFFE000000000007FFFFF000
FFFE000000000001FFFFF800
FFFE0000000000007FFFF800
FFFE0000000000003FFFFC00
FFFE0000000000001FFFFC00
FFFE00000000000007FFFE00
FFFE00000000000007FFFE00
FFFE00000000000003FFFF00
FFFE00000000000001FFFF00
FFFE00000000000000FFFF80
FFFE00000000000000FFFF80
FFFE000000000000007FFF80
FFFE000000000000007FFFC0
FFFE000000000000003FFFC0
FFFE000000000000003FFFC0
FFFE000000000000001FFFC0
FFFE000000000000001FFFC0
FFFE000000000000001FFFE0
FFFE000000000000001FFFE0
FFFE000000000000000FFFE0
FFFE000000000000000FFFE0
FFFE000000000000000FFFE0
FFFE000000000000000FFFE0
FFFE000000000000000FFFE0
FFFE000000000000000FFFE0
FFFE000000000000000FFFE0
FFFE000000000000000FFFE0
FFFE000000000000000FFFE0
FFFE000000000000000FFFE0
FFFE000000000000000FFFE0
FFFE000000000000000FFFE0
FFFE000000000000000FFFE0
FFFE000000000000001FFFC0
FFFE000000000000001FFFC0
FFFE000000000000001FFFC0
FFFE000000000000001FFFC0
FFFE000000000000003FFFC0
FFFE000000000000003FFF80
FFFE000000000000007FFF80
FFFE000000000000007FFF80
FFFE00000000000000FFFF00
FFFE00000000000000FFFF00
FFFE00000000000001FFFF00
FFFE00000000000003FFFE00
FFFE00000000000007FFFE00
FFFE0000000000000FFFFC00
FFFE0000000000001FFFFC00
FFFE0000000000003FFFF800
FFFE0000000000007FFFF800
FFFE000000000001FFFFF000
FFFE000000000007FFFFE000
FFFE00000000001FFFFFE000
FFFE0000000000FFFFFFC000
FFFFFFFFFFFFFFFFFFFF8000
FFFFFFFFFFFFFFFFFFFF0000
FFFFFFFFFFFFFFFFFFFE0000
FFFFFFFFFFFFFFFFFFFC0000
FFFFFFFFFFFFFFFFFFF80000
FFFFFFFFFFFFFFFFFFF00000
FFFFFFFFFFFFFFFFFFE00000
FFFFFFFFFFFFFFFFFFC00000
FFFFFFFFFFFFFFFFFF000000
FFFFFFFFFFFFFFFFFC000000
FFFFFFFFFFFFFFFFF8000000
FFFFFFFFFFFFFFFFE0000000
FFFFFFFFFFFFFFFF00000000
FFFFFFFFFFFFFFF800000000
FFFFFFFFFFFFFF8000000000
ENDCHAR
STARTCHAR E
ENCODING 69
SWIDTH 759 0
DWIDTH 89 0
BBX 76 85 7 0
BITMAP
FFFFFFFFFFFFFFFFFFF0
FFFFFFFFFFFFFFFFFFF0
FFFFFFFFFFFFFFFFFFF0
FFFFFFFFFFFFFFFFFFF0
FFFFFFFFFFFFFFFFFFF0
FFFFFFFFFFFFFFFFFFF0
FFFFFFFFFFFFFFFFFFF0
FFFFFFFFFFFFFFFFFFF0
FFFFFFFFFFFFFFFFFFF0
FFFFFFFFFFFFFFFFFFF0
FFFFFFFFFFFFFFFFFFF0
FFFFFFFFFFFFFFFFFFF0
FFFFFFFFFFFFFFFFFFF0
FFFFFFFFFFFFFFFFFFF0
FFFFFFFFFFFFFFFFFFF0
FFFE0000000000000000
FFFE0000000000000000
FFFE0000000000000000
FFFE0000000000000000
FFFE0000000000000000
FFFE0000000000000000
FFFE0000000000000000
FFFE0000000000000000
FFFE0000000000000000
FFFE0000000000000000
FFFE0000000000000000
FFFE0000000000000000
FFFE0000000000000000
FFFE0000000000000000
FFFE0000000000000000
FFFE0000000000000000
FFFE0000000000000000
FFFE0000000000000000
FFFE0000000000000000
FFFE0000000000000000
FFFE003FFFFFFFFFFF80
FFFE003FFFFFFFFFFF80
FFFE003FFFFFFFFFFF80
FFFE003FFFFFFFFFFF80
FFFE003FFFFFFFFFFF80
FFFE003FFFFFFFFFFF80
FFFE003FFFFFFFFFFF80
FFFE003FFFFFFFFFFF80
FFFE003FFFFFFFFFFF80
FFFE003FFFFFFFFFFF80
FFFE003FFFFFFFFFFF80
FFFE003FFFFFFFFFFF80
FFFE003FFFFFFFFFFF80
FFFE0000000000000000
FFFE0000000000000000
FFFE0000000000000000
FFFE0000000000000000
FFFE0000000000000000
FFFE0000000000000000
FFFE0000000000000000
FFFE0000000000000000
FFFE0000000000000000
FFFE0000000000000000
FFFE0000000000000000
FFFE0000000000000000
FFFE0000000000000000
FFFE0000000000000000
FFFE0000000000000000
FFFE0000000000000000
FFFE0000000000000000
FFFE0000000000000000
FFFE0000000000000000
FFFE0000000000000000
FFFE0000000000000000
FFFE0000000000000000
FFFFFFFFFFFFFFFFFFF0
FFFFFFFFFFFFFFFFFFF0
FFFFFFFFFFFFFFFFFFF0
FFFFFFFFFFFFFFFFFFF0
FFFFFFFFFFFFFFFFFFF0
FFFFFFFFFFFFFFFFFFF0
FFFFFFFFFFFFFFFFFFF0
FFFFFFFFFFFFFFFFFFF0
FFFFFFFFFFFFFFFFFFF0
FFFFFFFFFFFFFFFFFFF0
FFFFFFFFFFFFFFFFFFF0
FFFFFFFFFFFFFFFFFFF0
FFFFFFFFFFFFFFFFFFF0
FFFFFFFFFFFFFFFFFFF0
FFFFFFFFFFFFFFFFFFF0
ENDCHAR
STARTCHAR F
ENCODING 70
SWIDTH 705 0
DWIDTH 82 0
BBX 73 85 7 0
BITMAP
FFFFFFFFFFFFFFFFFF80
FFFFFFFFFFFFFFFFFF80
FFFFFFFFFFFFFFFFFF80
FFFFFFFFFFFFFFFFFF80
FFFFFFFFFFFFFFFFFF80
FFFFFFFFFFFFFFFFFF80
FFFFFFFFFFFFFFFFFF80
FFFFFFFFFFFFFFFFFF80
FFFFFFFFFFFFFFFFFF80
FFFFFFFFFFFFFFFFFF80
FFFFFFFFFFFFFFFFFF80
FFFFFFFFFFFFFFFFFF80
FFFFFFFFFFFFFFFFFF80
FFFFFFFFFFFFFFFFFF80
FFFFFFFFFFFFFFFFFF80
FFFE0000000000000000
FFFE0000000000000000
FFFE0000000000000000
FFFE0000000000000000
FFFE0000000000000000
FFFE0000000000000000
FFFE0000000000000000
FFFE0000000000000000
FFFE0000000000000000
FFFE0000000000000000
FFFE0000000000000000
FFFE0000000000000000
FFFE0000000000000000
FFFE0000000000000000
FFFE0000000000000000
FFFE0000000000000000
FFFE0000000000000000
FFFE0000000000000000
FFFE0000000000000000
FFFE0000000000000000
FFFE0000000000000000
FFFE0000000000000000
FFFE003FFFFFFFFFF800
FFFE003FFFFFFFFFF800
FFFE003FFFFFFFFFF800
FFFE003FFFFFFFFFF800
FFFE003FFFFFFFFFF800
FFFE003FFFFFFFFFF800
FFFE003FFFFFFFFFF800
FFFE003FFFFFFFFFF800
FFFE003FFFFFFFFFF800
FFFE003FFFFFFFFFF800
FFFE003FFFFFFFFFF800
FFFE003FFFFFFFFFF800
FFFE003FFFFFFFFFF800
FFFE0000000000000000
FFFE0000000000000000
FFFE0000000000000000
FFFE0000000000000000
FFFE0000000000000000
FFFE0000000000000000
FFFE0000000000000000
FFFE0000000000000000
FFFE0000000000000000
FFFE0000000000000000
FFFE0000000000000000
FFFE0000000000000000
FFFE0000000000000000
FFFE0000000000000000
FFFE0000000000000000
FFFE0000000000000000
FFFE0000000000000000
FFFE0000000000000000
FFFE0000000000000000
FFFE0000000000000000
FFFE0000000000000000
FFFE0000000000000000
FFFE0000000000000000
FFFE0000000000000000
FFFE0000000000000000
FFFE0000000000000000
FFFE0000000000000000
FFFE0000000000000000
FFFE0000000000000000
FFFE0000000000000000
FFFE0000000000000000
FFFE0000000000000000
FFFE0000000000000000
FFFE0000000000000000
FFFE0000000000000000
ENDCHAR
STARTCHAR G
ENCODING 71
SWIDTH 888 0
DWIDTH 104 0
BBX 93 85 5 0
BITMAP
000000003FFFFFFFFFFFFE00
00000007FFFFFFFFFFFFFE00
0000003FFFFFFFFFFFFFFE00
000000FFFFFFFFFFFFFFFE00
000007FFFFFFFFFFFFFFFE00
00000FFFFFFFFFFFFFFFFE00
00003FFFFFFFFFFFFFFFFE00
0000FFFFFFFFFFFFFFFFFE00
0001FFFFFFFFFFFFFFFFFE00
0003FFFFFFFFFFFFFFFFFE00
0007FFFFFFFFFFFFFFFFFE00
000FFFFFFFFFFFFFFFFFFE00
001FFFFFFFFFFFFFFFFFFE00
003FFFFFFFFFFFFFFFFFFE00
007FFFFFFFFFFFFFFFFFFE00
00FFFFFFE000000000000000
01FFFFFF0000000000000000
01FFFFF80000000000000000
03FFFFF00000000000000000
07FFFFC00000000000000000
07FFFF800000000000000000
0FFFFE000000000000000000
0FFFFC000000000000000000
1FFFF8000000000000000000
1FFFF8000000000000000000
1FFFF0000000000000000000
3FFFE0000000000000000000
3FFFE0000000000000000000
3FFFC0000000000000000000
7FFFC0000000000000000000
7FFF80000000000000000000
7FFF80000000000000000000
7FFF00000000000000000000
7FFF00000000000000000000
FFFF00000000000000000000
FFFE000001FFFFFFFFFFFFF8
FFFE000001FFFFFFFFFFFFF8
FFFE000001FFFFFFFFFFFFF8
FFFE000001FFFFFFFFFFFFF8
FFFE000001FFFFFFFFFFFFF8
FFFE000001FFFFFFFFFFFFF8
FFFE000001FFFFFFFFFFFFF8
FFFE000001FFFFFFFFFFFFF8
FFFE000001FFFFFFFFFFFFF8
FFFE000001FFFFFFFFFFFFF8
FFFE000001FFFFFFFFFFFFF8
FFFE000001FFFFFFFFFFFFF8
FFFE000001FFFFFFFFFFFFF8
FFFE0000000000000003FFF8
FFFF0000000000000003FFF8
7FFF0000000000000003FFF8
7FFF0000000000000003FFF8
7FFF0000000000000003FFF8
7FFF8000000000000003FFF8
3FFF8000000000000003FFF8
3FFFC000000000000003FFF8
3FFFC000000000000003FFF8
3FFFE000000000000003FFF8
1FFFE000000000000003FFF8
1FFFF000000000000003FFF8
0FFFF800000000000003FFF8
0FFFFC00000000000003FFF8
07FFFE00000000000003FFF8
07FFFF00000000000003FFF8
03FFFF80000000000003FFF8
03FFFFC0000000000003FFF8
01FFFFF0000000000003FFF8
00FFFFF8000000000003FFF8
00FFFFFF000000000003FFF8
007FFFFFE00000000003FFF8
003FFFFFFFFFFFFFFFFFFFF8
001FFFFFFFFFFFFFFFFFFFF8
000FFFFFFFFFFFFFFFFFFFF8
0007FFFFFFFFFFFFFFFFFFF8
0003FFFFFFFFFFFFFFFFFFF8
0001FFFFFFFFFFFFFFFFFFF8
0000FFFFFFFFFFFFFFFFFFF8
00007FFFFFFFFFFFFFFFFFF8
00001FFFFFFFFFFFFFFFFFF8
00000FFFFFFFFFFFFFFFFFF8
000003FFFFFFFFFFFFFFFFF8
000000FFFFFFFFFFFFFFFFF8
0000001FFFFFFFFFFFFFFFF8
00000003FFFFFFFFFFFFFFF8
000000003FFFFFFFFFFFFFF8
ENDCHAR
STARTCHAR H
ENCODING 72
SWIDTH 838 0
DWIDTH 98 0
BBX 84 85 7 0
BITMAP
FFFE00000000000007FFF0
FFFE00000000000007FFF0
FFFE00000000000007FFF0
FFFE00000000000007FFF0
FFFE00000000000007FFF0
FFFE00000000000007FFF0
FFFE00000000000007FFF0
FFFE00000000000007FFF0
FFFE00000000000007FFF0
FFFE00000000000007FFF0
FFFE00000000000007FFF0
FFFE00000000000007FFF0
FFFE00000000000007FFF0
FFFE00000000000007FFF0
FFFE00000000000007FFF0
FFFE00000000000007FFF0
FFFE00000000000007FFF0
FFFE00000000000007FFF0
FFFE00000000000007FFF0
FFFE00000000000007FFF0
FFFE00000000000007FFF0
FFFE00000000000007FFF0
FFFE00000000000007FFF0
FFFE00000000000007FFF0
FFFE00000000000007FFF0
FFFE00000000000007FFF0
FFFE00000000000007FFF0
FFFE00000000000007FFF0
FFFE00000000000007FFF0
FFFE00000000000007FFF0
FFFE00000000000007FFF0
FFFE00000000000007FFF0
FFFE00000000000007FFF0
FFFE00000000000007FFF0
FFFE00000000000007FFF0
FFFE003FFFFFFFFFFFFFF0
FFFE003FFFFFFFFFFFFFF0
FFFE003FFFFFFFFFFFFFF0
FFFE003FFFFFFFFFFFFFF0
FFFE003FFFFFFFFFFFFFF0
FFFE003FFFFFFFFFFFFFF0
FFFE003FFFFFFFFFFFFFF0
FFFE003FFFFFFFFFFFFFF0
FFFE003FFFFFFFFFFFFFF0
FFFE003FFFFFFFFFFFFFF0
FFFE003FFFFFFFFFFFFFF0
FFFE003FFFFFFFFFFFFFF0
FFFE003FFFFFFFFFFFFFF0
FFFE00000000000007FFF0
FFFE00000000000007FFF0
FFFE00000000000007FFF0
FFFE00000000000007FFF0
FFFE00000000000007FFF0
FFFE00000000000007FFF0
FFFE00000000000007FFF0
FFFE00000000000007FFF0
FFFE00000000000007FFF0
FFFE00000000000007FFF0
FFFE00000000000007FFF0
FFFE00000000000007FFF0
FFFE00000000000007FFF0
FFFE00000000000007FFF0
FFFE00000000000007FFF0
FFFE00000000000007FFF0
FFFE00000000000007FFF0
FFFE00000000000007FFF0
FFFE00000000000007FFF0
FFFE00000000000007FFF0
FFFE00000000000007FFF0
FFFE00000000000007FFF0
FFFE00000000000007FFF0
FFFE00000000000007FFF0
FFFE00000000000007FFF0
FFFE00000000000007FFF0
FFFE00000000000007FFF0
FFFE00000000000007FFF0
FFFE00000000000007FFF0
FFFE00000000000007FFF0
FFFE00000000000007FFF0
FFFE00000000000007FFF0
FFFE00000000000007FFF0
FFFE00000000000007FFF0
FFFE00000000000007FFF0
FFFE00000000000007FFF0
FFFE00000000000007FFF0
ENDCHAR
STARTCHAR I
ENCODING 73
SWIDTH 267 0
DWIDTH 31 0
BBX 15 85 8 0
BITMAP
FFFE
FFFE
FFFE
FFFE
FFFE
FFFE
FFFE
FFFE
FFFE
FFFE
FFFE
FFFE
FFFE
FFFE
FFFE
FFFE
FFFE
FFFE
FFFE
FFFE
FFFE
FFFE
FFFE
FFFE
FFFE
FFFE
FFFE
FFFE
FFFE
FFFE
FFFE
FFFE
FFFE
FFFE
FFFE
FFFE
FFFE
FFFE
FFFE
FFFE
FFFE
FFFE
FFFE
FFFE
FFFE
FFFE
FFFE
FFFE
FFFE
FFFE
FFFE
FFFE
FFFE
FFFE
FFFE
FFFE
FFFE
FFFE
FFFE
FFFE
FFFE
FFFE
FFFE
FFFE
FFFE
FFFE
FFFE
FFFE
FFFE
FFFE
FFFE
FFFE
FFFE
FFFE
FFFE
FFFE
FFFE
FFFE
FFFE
FFFE
FFFE
FFFE
FFFE
FFFE
FFFE
ENDCHAR
STARTCHAR J
ENCODING 74
SWIDTH 708 0
DWIDTH 83 0
BBX 74 85 3 0
BITMAP
000000000000001FFFC0
000000000000001FFFC0
000000000000001FFFC0
000000000000001FFFC0
000000000000001FFFC0
000000000000001FFFC0
000000000000001FFFC0
000000000000001FFFC0
000000000000001FFFC0
000000000000001FFFC0
000000000000001FFFC0
000000000000001FFFC0
000000000000001FFFC0
000000000000001FFFC0
000000000000001FFFC0
000000000000001FFFC0
000000000000001FFFC0
000000000000001FFFC0
000000000000001FFFC0
000000000000001FFFC0
000000000000001FFFC0
000000000000001FFFC0
000000000000001FFFC0
000000000000001FFFC0
000000000000001FFFC0
000000000000001FFFC0
000000000000001FFFC0
000000000000001FFFC0
000000000000001FFFC0
000000000000001FFFC0
000000000000001FFFC0
000000000000001FFFC0
000000000000001FFFC0
000000000000001FFFC0
000000000000001FFFC0
000000000000001FFFC0
000000000000001FFFC0
000000000000001FFFC0
000000000000001FFFC0
000000000000001FFFC0
000000000000001FFFC0
000000000000001FFFC0
000000000000001FFFC0
000000000000001FFFC0
000000000000001FFFC0
000000000000001FFFC0
000000000000001FFFC0
000000000000001FFFC0
000000000000001FFFC0
000000000000001FFFC0
000000000000001FFFC0
000000000000001FFFC0
000000000000003FFF80
000000000000003FFF80
000000000000003FFF80
000000000000003FFF80
000000000000007FFF80
000000000000007FFF80
000000000000007FFF80
00000000000000FFFF00
00000000000000FFFF00
00000000000001FFFF00
00000000000003FFFE00
00000000000007FFFE00
0000000000000FFFFE00
0000000000001FFFFC00
0000000000007FFFFC00
000000000001FFFFFC00
00000000000FFFFFF800
0000000000FFFFFFF000
FFFFFFFFFFFFFFFFF000
FFFFFFFFFFFFFFFFE000
FFFFFFFFFFFFFFFFC000
FFFFFFFFFFFFFFFF8000
FFFFFFFFFFFFFFFF0000
FFFFFFFFFFFFFFFE0000
FFFFFFFFFFFFFFFC0000
FFFFFFFFFFFFFFF80000
FFFFFFFFFFFFFFF00000
FFFFFFFFFFFFFFC00000
FFFFFFFFFFFFFF000000
FFFFFFFFFFFFF8000000
FFFFFFFFFFFFE0000000
FFFFFFFFFFFE00000000
FFFFFFFFFF0000000000
ENDCHAR
STARTCHAR K
ENCODING 75
SWIDTH 875 0
DWIDTH 102 0
BBX 93 85 7 0
BITMAP
FFFE0000000000000FFFFFE0
FFFE0000000000001FFFFF80
FFFE0000000000007FFFFF00
FFFE000000000000FFFFFE00
FFFE000000000001FFFFF800
FFFE000000000007FFFFF000
FFFE00000000000FFFFFE000
FFFE00000000001FFFFFC000
FFFE00000000007FFFFF0000
FFFE0000000000FFFFFE0000
FFFE0000000001FFFFFC0000
FFFE0000000003FFFFF00000
FFFE000000000FFFFFE00000
FFFE000000001FFFFFC00000
FFFE000000003FFFFF000000
FFFE00000000FFFFFE000000
FFFE00000001FFFFFC000000
FFFE00000003FFFFF0000000
FFFE0000000FFFFFE0000000
FFFE0000001FFFFFC0000000
FFFE0000003FFFFF00000000
FFFE0000007FFFFE00000000
FFFE000001FFFFFC00000000
FFFE000003FFFFF000000000
FFFE000007FFFFE000000000
FFFE00001FFFFFC000000000
FFFE00003FFFFF0000000000
FFFE00007FFFFE0000000000
FFFE0001FFFFFC0000000000
FFFE0003FFFFF00000000000
FFFE0007FFFFE00000000000
FFFE000FFFFFC00000000000
FFFE003FFFFF000000000000
FFFE007FFFFE000000000000
FFFE00FFFFFC000000000000
FFFE03FFFFF8000000000000
FFFE07FFFFE0000000000000
FFFE07FFFFC0000000000000
FFFE0FFFFF80000000000000
FFFE0FFFFE00000000000000
FFFE0FFFFC00000000000000
FFFE0FFFF800000000000000
FFFE0FFFF000000000000000
FFFE0FFFFC00000000000000
FFFE0FFFFE00000000000000
FFFE07FFFF00000000000000
FFFE03FFFFC0000000000000
FFFE01FFFFE0000000000000
FFFE00FFFFF0000000000000
FFFE007FFFFC000000000000
FFFE001FFFFE000000000000
FFFE000FFFFF000000000000
FFFE0007FFFFC00000000000
FFFE0003FFFFE00000000000
FFFE0000FFFFF00000000000
FFFE00007FFFFC0000000000
FFFE00003FFFFE0000000000
FFFE00001FFFFF0000000000
FFFE000007FFFFC000000000
FFFE000003FFFFE000000000
FFFE000001FFFFF000000000
FFFE0000007FFFFC00000000
FFFE0000003FFFFE00000000
FFFE0000001FFFFF00000000
FFFE0000000FFFFFC0000000
FFFE00000003FFFFE0000000
FFFE00000001FFFFF0000000
FFFE00000000FFFFFC000000
FFFE000000007FFFFE000000
FFFE000000001FFFFF000000
FFFE000000000FFFFFC00000
FFFE0000000007FFFFE00000
FFFE0000000001FFFFF00000
FFFE0000000000FFFFFC0000
FFFE00000000007FFFFE0000
FFFE00000000003FFFFF0000
FFFE00000000000FFFFFC000
FFFE000000000007FFFFE000
FFFE000000000003FFFFF000
FFFE000000000001FFFFFC00
FFFE0000000000007FFFFE00
FFFE0000000000003FFFFF00
FFFE0000000000001FFFFFC0
FFFE00000000000007FFFFE0
FFFE00000000000003FFFFF8
ENDCHAR
STARTCHAR L
ENCODING 76
SWIDTH 707 0
DWIDTH 83 0
BBX 72 85 7 0
BITMAP
FFFE00000000000000
FFFE00000000000000
FFFE00000000000000
FFFE00000000000000
FFFE00000000000000
FFFE00000000000000
FFFE00000000000000
FFFE00000000000000
FFFE00000000000000
FFFE00000000000000
FFFE00000000000000
FFFE00000000000000
FFFE00000000000000
FFFE00000000000000
FFFE00000000000000
FFFE00000000000000
FFFE00000000000000
FFFE00000000000000
FFFE00000000000000
FFFE00000000000000
FFFE00000000000000
FFFE00000000000000
FFFE00000000000000
FFFE00000000000000
FFFE00000000000000
FFFE00000000000000
FFFE00000000000000
FFFE00000000000000
FFFE00000000000000
FFFE00000000000000
FFFE00000000000000
FFFE00000000000000
FFFE00000000000000
FFFE00000000000000
FFFE00000000000000
FFFE00000000000000
FFFE00000000000000
FFFE00000000000000
FFFE00000000000000
FFFE00000000000000
FFFE00000000000000
FFFE00000000000000
FFFE00000000000000
FFFE00000000000000
FFFE00000000000000
FFFE00000000000000
FFFE00000000000000
FFFE00000000000000
FFFE00000000000000
FFFE00000000000000
FFFE00000000000000
FFFE00000000000000
FFFE00000000000000
FFFE00000000000000
FFFE00000000000000
FFFE00000000000000
FFFE00000000000000
FFFE00000000000000
FFFE00000000000000
FFFE00000000000000
FFFE00000000000000
FFFE00000000000000
FFFE00000000000000
FFFE00000000000000
FFFE00000000000000
FFFE00000000000000
FFFE00000000000000
FFFE00000000000000
FFFE00000000000000
FFFE00000000000000
FFFFFFFFFFFFFFFFFF
FFFFFFFFFFFFFFFFFF
FFFFFFFFFFFFFFFFFF
FFFFFFFFFFFFFFFFFF
FFFFFFFFFFFFFFFFFF
FFFFFFFFFFFFFFFFFF
FFFFFFFFFFFFFFFFFF
FFFFFFFFFFFFFFFFFF
FFFFFFFFFFFFFFFFFF
FFFFFFFFFFFFFFFFFF
FFFFFFFFFFFFFFFFFF
FFFFFFFFFFFFFFFFFF
FFFFFFFFFFFFFFFFFF
FFFFFFFFFFFFFFFFFF
FFFFFFFFFFFFFFFFFF
ENDCHAR
STARTCHAR M
ENCODING 77
SWIDTH 1115 0
DWIDTH 130 0
BBX 125 86 3 -1
BITMAP
0000003F0000000000000007E0000000
000000FFC00000000000001FF8000000
000001FFE00000000000003FFC000000
000001FFF00000000000003FFC000000
000003FFF00000000000007FFE000000
000003FFF80000000000007FFE000000
000003FFF8000000000000FFFE000000
000007FFFC000000000000FFFF000000
000007FFFC000000000001FFFF000000
000007FFFE000000000001FFFF000000
00000FFFFE000000000001FFFF000000
00000FFFFE000000000003FFFF800000
00000FFFFF000000000003FFFF800000
00000FFFFF000000000007FFFF800000
00001FFFFF800000000007FFFFC00000
00001FFFFF80000000000FFFFFC00000
00001FFFFFC0000000000FFFFFC00000
00003FFFFFC0000000001FFFFFC00000
00003FFFFFE0000000001FFFFFE00000
00003FFFFFE0000000001FFFFFE00000
00003FFFFFE0000000003FFFFFE00000
00007FFFFFF0000000003FFFFFF00000
00007FFFFFF0000000007FFFFFF00000
00007FFFFFF8000000007FFFFFF00000
00007FFFFFF800000000FFFFFFF00000
0000FFFFFFFC00000000FFFFFFF80000
0000FFFFFFFC00000001FFFFFFF80000
0000FFFDFFFC00000001FFFBFFF80000
0001FFFCFFFE00000001FFF9FFF80000
0001FFFCFFFE00000003FFF9FFFC0000
0001FFFC7FFF00000003FFF1FFFC0000
0001FFF87FFF00000007FFF1FFFC0000
0003FFF87FFF80000007FFE0FFFE0000
0003FFF83FFF8000000FFFE0FFFE0000
0003FFF03FFFC000000FFFC0FFFE0000
0003FFF01FFFC000001FFFC07FFE0000
0007FFF01FFFC000001FFF807FFF0000
0007FFF00FFFE000001FFF807FFF0000
0007FFE00FFFE000003FFF807FFF0000
000FFFE007FFF000003FFF003FFF0000
000FFFE007FFF000007FFF003FFF8000
000FFFC007FFF800007FFE003FFF8000
000FFFC003FFF80000FFFE001FFF8000
001FFFC003FFFC0000FFFC001FFFC000
001FFFC001FFFC0000FFFC001FFFC000
001FFF8001FFFC0001FFF8001FFFC000
003FFF8000FFFE0001FFF8000FFFC000
003FFF8000FFFE0003FFF8000FFFE000
003FFF80007FFF0003FFF0000FFFE000
003FFF00007FFF0007FFF0000FFFE000
007FFF00007FFF8007FFE00007FFE000
007FFF00003FFF800FFFE00007FFF000
007FFE00003FFFC00FFFC00007FFF000
007FFE00001FFFC00FFFC00003FFF000
00FFFE00001FFFC01FFF800003FFF800
00FFFE00000FFFE01FFF800003FFF800
00FFFC00000FFFE03FFF800003FFF800
01FFFC000007FFF03FFF000001FFF800
01FFFC000007FFF07FFF000001FFFC00
01FFF8000007FFF87FFE000001FFFC00
01FFF8000003FFF8FFFE000001FFFC00
03FFF8000003FFF8FFFC000000FFFE00
03FFF8000001FFFCFFFC000000FFFE00
03FFF0000001FFFDFFF8000000FFFE00
07FFF0000000FFFFFFF80000007FFE00
07FFF0000000FFFFFFF80000007FFF00
07FFF00000007FFFFFF00000007FFF00
07FFE00000007FFFFFF00000007FFF00
0FFFE00000007FFFFFE00000003FFF00
0FFFE00000003FFFFFE00000003FFF80
0FFFC00000003FFFFFC00000003FFF80
0FFFC00000001FFFFFC00000001FFF80
1FFFC00000001FFFFF800000001FFFC0
1FFFC00000000FFFFF800000001FFFC0
1FFF800000000FFFFF800000001FFFC0
3FFF800000000FFFFF000000000FFFC0
3FFF8000000007FFFF000000000FFFE0
3FFF8000000007FFFE000000000FFFE0
3FFF0000000003FFFE000000000FFFE0
7FFF0000000003FFFC0000000007FFE0
7FFF0000000001FFFC0000000007FFF0
7FFE0000000001FFF80000000007FFF0
FFFE0000000000FFF80000000003FFF0
FFFE00000000007FF00000000003FFF8
FFFE00000000003FE00000000003FFF8
000000000000001F8000000000000000
ENDCHAR
STARTCHAR N
ENCODING 78
SWIDTH 873 0
DWIDTH 102 0
BBX 88 85 7 0
BITMAP
07C0000000000000003FFF
1FF0000000000000003FFF
3FF8000000000000003FFF
7FFC000000000000003FFF
7FFE000000000000003FFF
FFFF800000000000003FFF
FFFFC00000000000003FFF
FFFFE00000000000003FFF
FFFFF00000000000003FFF
FFFFF80000000000003FFF
FFFFFC0000000000003FFF
FFFFFE0000000000003FFF
FFFFFF0000000000003FFF
FFFFFF8000000000003FFF
FFFFFFC000000000003FFF
FFFFFFE000000000003FFF
FFFFFFF000000000003FFF
FFFFFFF800000000003FFF
FFFFFFFC00000000003FFF
FFFFFFFE00000000003FFF
FFFFFFFF00000000003FFF
FFFFFFFF80000000003FFF
FFFFFFFFC0000000003FFF
FFFFFFFFE0000000003FFF
FFFDFFFFF0000000003FFF
FFFCFFFFF8000000003FFF
FFFC7FFFFC000000003FFF
FFFC3FFFFE000000003FFF
FFFC1FFFFF000000003FFF
FFFC0FFFFF800000003FFF
FFFC07FFFFC00000003FFF
FFFC03FFFFE00000003FFF
FFFC01FFFFF00000003FFF
FFFC00FFFFF80000003FFF
FFFC007FFFFC0000003FFF
FFFC003FFFFE0000003FFF
FFFC001FFFFF0000003FFF
FFFC000FFFFF8000003FFF
FFFC0007FFFFC000003FFF
FFFC0003FFFFE000003FFF
FFFC0001FFFFF000003FFF
FFFC0000FFFFF800003FFF
FFFC00007FFFFC00003FFF
FFFC00003FFFFE00003FFF
FFFC00001FFFFF00003FFF
FFFC000007FFFF80003FFF
FFFC000003FFFFC0003FFF
FFFC000001FFFFE0003FFF
FFFC000000FFFFF0003FFF
FFFC0000007FFFF8003FFF
FFFC0000003FFFFC003FFF
FFFC0000001FFFFE003FFF
FFFC0000000FFFFF003FFF
FFFC00000007FFFF803FFF
FFFC00000003FFFFC03FFF
FFFC00000001FFFFF03FFF
FFFC00000000FFFFF83FFF
FFFC000000007FFFFC3FFF
FFFC000000003FFFFE3FFF
FFFC000000001FFFFF3FFF
FFFC000000000FFFFFBFFF
FFFC0000000007FFFFFFFF
FFFC0000000003FFFFFFFF
FFFC0000000001FFFFFFFF
FFFC0000000000FFFFFFFF
FFFC00000000007FFFFFFF
FFFC00000000003FFFFFFF
FFFC00000000001FFFFFFF
FFFC00000000000FFFFFFF
FFFC000000000007FFFFFF
FFFC000000000003FFFFFF
FFFC000000000001FFFFFF
FFFC000000000000FFFFFF
FFFC0000000000007FFFFF
FFFC0000000000003FFFFF
FFFC0000000000001FFFFF
FFFC0000000000000FFFFF
FFFC00000000000007FFFF
FFFC00000000000003FFFF
FFFC00000000000001FFFF
FFFC00000000000000FFFE
FFFC000000000000003FFE
FFFC000000000000001FFC
FFFC000000000000000FF8
FFFC0000000000000003E0
ENDCHAR
STARTCHAR O
ENCODING 79
SWIDTH 968 0
DWIDTH 113 0
BBX 104 85 5 0
BITMAP
000000003FFFFFFFF800000000
00000007FFFFFFFFFFC0000000
0000003FFFFFFFFFFFF8000000
000000FFFFFFFFFFFFFF000000
000007FFFFFFFFFFFFFFC00000
00000FFFFFFFFFFFFFFFF00000
00003FFFFFFFFFFFFFFFFC0000
0000FFFFFFFFFFFFFFFFFE0000
0001FFFFFFFFFFFFFFFFFF8000
0003FFFFFFFFFFFFFFFFFFC000
0007FFFFFFFFFFFFFFFFFFE000
000FFFFFFFFFFFFFFFFFFFF000
001FFFFFFFFFFFFFFFFFFFF800
003FFFFFFFFFFFFFFFFFFFFC00
007FFFFFFFFFFFFFFFFFFFFE00
00FFFFFFE00000000FFFFFFE00
01FFFFFF0000000000FFFFFF00
01FFFFF800000000003FFFFF80
03FFFFF000000000000FFFFF80
07FFFFC0000000000007FFFFC0
07FFFF80000000000001FFFFE0
0FFFFE00000000000000FFFFE0
0FFFFC000000000000007FFFF0
1FFFF8000000000000003FFFF0
1FFFF8000000000000001FFFF0
1FFFF0000000000000000FFFF8
3FFFE0000000000000000FFFF8
3FFFE00000000000000007FFFC
3FFFC00000000000000007FFFC
7FFFC00000000000000003FFFC
7FFF800000000000000003FFFC
7FFF800000000000000001FFFE
7FFF000000000000000001FFFE
7FFF000000000000000001FFFE
FFFF000000000000000000FFFE
FFFE000000000000000000FFFE
FFFE000000000000000000FFFE
FFFE000000000000000000FFFE
FFFE000000000000000000FFFE
FFFE0000000000000000007FFF
FFFE0000000000000000007FFF
FFFE0000000000000000007FFF
FFFE0000000000000000007FFF
FFFE0000000000000000007FFF
FFFE0000000000000000007FFE
FFFE0000000000000000007FFE
FFFE000000000000000000FFFE
FFFE000000000000000000FFFE
FFFE000000000000000000FFFE
FFFF000000000000000000FFFE
7FFF000000000000000000FFFE
7FFF000000000000000001FFFE
7FFF000000000000000001FFFC
7FFF800000000000000001FFFC
3FFF800000000000000003FFFC
3FFFC00000000000000003FFFC
3FFFC00000000000000007FFF8
3FFFE00000000000000007FFF8
1FFFE0000000000000000FFFF8
1FFFF0000000000000001FFFF0
0FFFF8000000000000001FFFF0
0FFFFC000000000000003FFFE0
07FFFE000000000000007FFFE0
07FFFF00000000000000FFFFC0
03FFFF80000000000001FFFFC0
03FFFFC0000000000007FFFF80
01FFFFF000000000000FFFFF80
00FFFFF800000000003FFFFF00
00FFFFFF0000000000FFFFFE00
007FFFFFE00000000FFFFFFC00
003FFFFFFFFFFFFFFFFFFFFC00
001FFFFFFFFFFFFFFFFFFFF800
000FFFFFFFFFFFFFFFFFFFF000
0007FFFFFFFFFFFFFFFFFFE000
0003FFFFFFFFFFFFFFFFFFC000
0001FFFFFFFFFFFFFFFFFF8000
0000FFFFFFFFFFFFFFFFFE0000
00007FFFFFFFFFFFFFFFFC0000
00001FFFFFFFFFFFFFFFF80000
00000FFFFFFFFFFFFFFFE00000
000003FFFFFFFFFFFFFF800000
000000FFFFFFFFFFFFFE000000
0000001FFFFFFFFFFFF8000000
00000003FFFFFFFFFF80000000
000000003FFFFFFFF800000000
ENDCHAR
STARTCHAR P
ENCODING 80
SWIDTH 867 0
DWIDTH 101 0
BBX 91 85 7 0
BITMAP
FFFFFFFFFFFFFFFFE0000000
FFFFFFFFFFFFFFFFFE000000
FFFFFFFFFFFFFFFFFFC00000
FFFFFFFFFFFFFFFFFFF00000
FFFFFFFFFFFFFFFFFFFC0000
FFFFFFFFFFFFFFFFFFFF0000
FFFFFFFFFFFFFFFFFFFF8000
FFFFFFFFFFFFFFFFFFFFC000
FFFFFFFFFFFFFFFFFFFFE000
FFFFFFFFFFFFFFFFFFFFF000
FFFFFFFFFFFFFFFFFFFFF800
FFFFFFFFFFFFFFFFFFFFFC00
FFFFFFFFFFFFFFFFFFFFFC00
FFFFFFFFFFFFFFFFFFFFFE00
FFFFFFFFFFFFFFFFFFFFFF00
FFFE0000000000003FFFFF00
FFFE0000000000000FFFFF80
FFFE00000000000003FFFF80
FFFE00000000000000FFFF80
FFFE000000000000007FFFC0
FFFE000000000000003FFFC0
FFFE000000000000003FFFC0
FFFE000000000000001FFFC0
FFFE000000000000001FFFE0
FFFE000000000000000FFFE0
FFFE000000000000000FFFE0
FFFE000000000000000FFFE0
FFFE000000000000000FFFE0
FFFE0000000000000007FFE0
FFFE0000000000000007FFE0
FFFE0000000000000007FFE0
FFFE0000000000000007FFE0
FFFE0000000000000007FFE0
FFFE0000000000000007FFE0
FFFE000000000000000FFFE0
FFFE000000000000000FFFE0
FFFE000000000000000FFFE0
FFFE000000000000000FFFE0
FFFE000000000000001FFFE0
FFFE000000000000001FFFC0
FFFE000000000000003FFFC0
FFFE000000000000007FFFC0
FFFE00000000000000FFFF80
FFFE00000000000001FFFF80
FFFE00000000000003FFFF80
FFFE0000000000000FFFFF00
FFFE0000000000007FFFFF00
FFFE003FFFFFFFFFFFFFFE00
FFFE003FFFFFFFFFFFFFFE00
FFFE003FFFFFFFFFFFFFFC00
FFFE003FFFFFFFFFFFFFF800
FFFE003FFFFFFFFFFFFFF800
FFFE003FFFFFFFFFFFFFF000
FFFE003FFFFFFFFFFFFFE000
FFFE003FFFFFFFFFFFFFC000
FFFE003FFFFFFFFFFFFF8000
FFFE003FFFFFFFFFFFFE0000
FFFE003FFFFFFFFFFFFC0000
FFFE003FFFFFFFFFFFF00000
FFFE003FFFFFFFFFFF800000
FFFE003FFFFFFFFFFE000000
FFFE003FFFFFFFFF80000000
FFFE00000000000000000000
FFFE00000000000000000000
FFFE00000000000000000000
FFFE00000000000000000000
FFFE00000000000000000000
FFFE00000000000000000000
FFFE00000000000000000000
FFFE00000000000000000000
FFFE00000000000000000000
FFFE00000000000000000000
FFFE00000000000000000000
FFFE00000000000000000000
FFFE00000000000000000000
FFFE00000000000000000000
FFFE00000000000000000000
FFFE00000000000000000000
FFFE00000000000000000000
FFFE00000000000000000000
FFFE00000000000000000000
FFFE00000000000000000000
FFFE00000000000000000000
FFFE00000000000000000000
FFFE00000000000000000000
ENDCHAR
STARTCHAR Q
ENCODING 81
SWIDTH 968 0
DWIDTH 113 0
BBX 108 85 5 0
BITMAP
000000003FFFFFFFF80000000000
00000007FFFFFFFFFFC000000000
0000003FFFFFFFFFFFF800000000
000000FFFFFFFFFFFFFF00000000
000007FFFFFFFFFFFFFFC0000000
00000FFFFFFFFFFFFFFFF0000000
00003FFFFFFFFFFFFFFFFC000000
0000FFFFFFFFFFFFFFFFFE000000
0001FFFFFFFFFFFFFFFFFF800000
0003FFFFFFFFFFFFFFFFFFC00000
0007FFFFFFFFFFFFFFFFFFE00000
000FFFFFFFFFFFFFFFFFFFF00000
001FFFFFFFFFFFFFFFFFFFF80000
003FFFFFFFFFFFFFFFFFFFFC0000
007FFFFFFFFFFFFFFFFFFFFE0000
00FFFFFFE00000000FFFFFFE0000
01FFFFFF0000000000FFFFFF0000
01FFFFF800000000003FFFFF8000
03FFFFF000000000000FFFFF8000
07FFFFC0000000000007FFFFC000
07FFFF80000000000001FFFFE000
0FFFFE00000000000000FFFFE000
0FFFFC000000000000007FFFF000
1FFFF8000000000000003FFFF000
1FFFF8000000000000001FFFF000
1FFFF0000000000000000FFFF800
3FFFE0000000000000000FFFF800
3FFFE00000000000000007FFFC00
3FFFC00000000000000007FFFC00
7FFFC00000000000000003FFFC00
7FFF800000000000000003FFFC00
7FFF800000000000000001FFFE00
7FFF000000000000000001FFFE00
7FFF000000000000000001FFFE00
FFFF000000000000000000FFFE00
FFFE000000000000000000FFFE00
FFFE000000000000000000FFFE00
FFFE000000000000000000FFFE00
FFFE000000000000000000FFFE00
FFFE0000000000000000007FFF00
FFFE0000000000000000007FFF00
FFFE0000000000000000007FFF00
FFFE0000000000000000007FFF00
FFFE0000000000000000007FFF00
FFFE0000000000000000007FFE00
FFFE0000000000000000007FFE00
FFFE000000000000000000FFFE00
FFFE000000000000000000FFFE00
FFFE000000000000000000FFFE00
FFFF000000000000000000FFFE00
7FFF00000007FFFF800000FFFE00
7FFF00000001FFFFC00001FFFE00
7FFF00000000FFFFE00001FFFC00
7FFF800000007FFFF80001FFFC00
3FFF800000001FFFFC0003FFFC00
3FFFC00000000FFFFE0003FFFC00
3FFFC000000007FFFF0007FFF800
3FFFE000000003FFFF8007FFF800
1FFFE000000000FFFFE00FFFF800
1FFFF0000000007FFFF01FFFF000
0FFFF8000000003FFFF81FFFF000
0FFFFC000000001FFFFC3FFFE000
07FFFE0000000007FFFE7FFFE000
07FFFF0000000003FFFFFFFFC000
03FFFF8000000001FFFFFFFFC000
03FFFFC0000000007FFFFFFF8000
01FFFFF0000000003FFFFFFF8000
00FFFFF8000000001FFFFFFF0000
00FFFFFF000000000FFFFFFE0000
007FFFFFE00000000FFFFFFC0000
003FFFFFFFFFFFFFFFFFFFFC0000
001FFFFFFFFFFFFFFFFFFFF80000
000FFFFFFFFFFFFFFFFFFFF00000
0007FFFFFFFFFFFFFFFFFFF80000
0003FFFFFFFFFFFFFFFFFFFC0000
0001FFFFFFFFFFFFFFFFFFFF0000
0000FFFFFFFFFFFFFFFFFFFF8000
00007FFFFFFFFFFFFFFFFFFFC000
00001FFFFFFFFFFFFFFFFFFFE000
00000FFFFFFFFFFFFFFFFFFFF800
000003FFFFFFFFFFFFFF9FFFFC00
000000FFFFFFFFFFFFFE0FFFFE00
0000001FFFFFFFFFFFF007FFFF80
00000003FFFFFFFFFF8003FFFFC0
000000003FFFFFFFF00001FFFFF0
ENDCHAR
STARTCHAR R
ENCODING 82
SWIDTH 921 0
DWIDTH 108 0
BBX 100 85 7 0
BITMAP
FFFFFFFFFFFFFFFFF000000000
FFFFFFFFFFFFFFFFFF00000000
FFFFFFFFFFFFFFFFFFE0000000
FFFFFFFFFFFFFFFFFFFC000000
FFFFFFFFFFFFFFFFFFFE000000
FFFFFFFFFFFFFFFFFFFF800000
FFFFFFFFFFFFFFFFFFFFC00000
FFFFFFFFFFFFFFFFFFFFE00000
FFFFFFFFFFFFFFFFFFFFF00000
FFFFFFFFFFFFFFFFFFFFF80000
FFFFFFFFFFFFFFFFFFFFFC0000
FFFFFFFFFFFFFFFFFFFFFE0000
FFFFFFFFFFFFFFFFFFFFFE0000
FFFFFFFFFFFFFFFFFFFFFF0000
FFFFFFFFFFFFFFFFFFFFFF8000
FFFE0000000000001FFFFF8000
FFFE00000000000003FFFFC000
FFFE00000000000000FFFFC000
FFFE000000000000007FFFC000
FFFE000000000000003FFFE000
FFFE000000000000001FFFE000
FFFE000000000000000FFFE000
FFFE000000000000000FFFE000
FFFE000000000000000FFFF000
FFFE0000000000000007FFF000
FFFE0000000000000007FFF000
FFFE0000000000000007FFF000
FFFE0000000000000007FFF000
FFFE0000000000000003FFF000
FFFE0000000000000003FFF000
FFFE0000000000000003FFF000
FFFE0000000000000003FFF000
FFFE0000000000000003FFF000
FFFE0000000000000003FFF000
FFFE0000000000000007FFF000
FFFE0000000000000007FFF000
FFFE0000000000000007FFF000
FFFE0000000000000007FFF000
FFFE0000000000000007FFF000
FFFE000000000000000FFFE000
FFFE000000000000000FFFE000
FFFE000000000000001FFFE000
FFFE000000000000001FFFE000
FFFE000000000000003FFFC000
FFFE000000000000007FFFC000
FFFE00000000000001FFFF8000
FFFE00000000000003FFFF8000
FFFE0000000000003FFFFF0000
FFFE003FFFFFFFFFFFFFFF0000
FFFE003FFFFFFFFFFFFFFE0000
FFFE003FFFFFFFFFFFFFFC0000
FFFE003FFFFFFFFFFFFFF80000
FFFE003FFFFFFFFFFFFFF80000
FFFE003FFFFFFFFFFFFFF00000
FFFE003FFFFFFFFFFFFFC00000
FFFE003FFFFFFFFFFFFF800000
FFFE003FFFFFFFFFFFFF000000
FFFE003FFFFFFFFFFFFC000000
FFFE003FFFFFFFFFFFF0000000
FFFE003FFFFFFFFFFFE0000000
FFFE003FFFFFFFFFFFF0000000
FFFE00000000003FFFF8000000
FFFE00000000001FFFFC000000
FFFE00000000000FFFFE000000
FFFE000000000007FFFF000000
FFFE000000000003FFFF800000
FFFE000000000001FFFFC00000
FFFE000000000000FFFFE00000
FFFE0000000000007FFFF00000
FFFE0000000000007FFFF80000
FFFE0000000000003FFFFC0000
FFFE0000000000001FFFFE0000
FFFE0000000000000FFFFF0000
FFFE00000000000007FFFF8000
FFFE00000000000003FFFFC000
FFFE00000000000001FFFFE000
FFFE00000000000000FFFFF000
FFFE000000000000007FFFF800
FFFE000000000000007FFFFC00
FFFE000000000000003FFFFE00
FFFE000000000000001FFFFF00
FFFE000000000000000FFFFF80
FFFE0000000000000007FFFFC0
FFFE0000000000000003FFFFE0
FFFE0000000000000001FFFFF0
ENDCHAR
STARTCHAR S
ENCODING 83
SWIDTH 880 0
DWIDTH 103 0
BBX 92 85 6 0
BITMAP
00000FFFFFFFFFFFFFFFFE00
0000FFFFFFFFFFFFFFFFFE00
0007FFFFFFFFFFFFFFFFFE00
001FFFFFFFFFFFFFFFFFFE00
003FFFFFFFFFFFFFFFFFFE00
00FFFFFFFFFFFFFFFFFFFE00
01FFFFFFFFFFFFFFFFFFFE00
03FFFFFFFFFFFFFFFFFFFE00
07FFFFFFFFFFFFFFFFFFFE00
0FFFFFFFFFFFFFFFFFFFFE00
0FFFFFFFFFFFFFFFFFFFFE00
1FFFFFFFFFFFFFFFFFFFFE00
1FFFFFFFFFFFFFFFFFFFFE00
3FFFFFFFFFFFFFFFFFFFFE00
3FFFFFFFFFFFFFFFFFFFFE00
7FFFFC000000000000000000
7FFFF0000000000000000000
7FFFC0000000000000000000
7FFF80000000000000000000
FFFF80000000000000000000
FFFF00000000000000000000
FFFF00000000000000000000
FFFF00000000000000000000
FFFF00000000000000000000
FFFF00000000000000000000
FFFF00000000000000000000
FFFF00000000000000000000
FFFF00000000000000000000
FFFF00000000000000000000
7FFF00000000000000000000
7FFF80000000000000000000
7FFFC0000000000000000000
7FFFE0000000000000000000
3FFFF0000000000000000000
3FFFFC000000000000000000
1FFFFFFFFFFFFFFFFF000000
1FFFFFFFFFFFFFFFFFF00000
0FFFFFFFFFFFFFFFFFFE0000
07FFFFFFFFFFFFFFFFFF8000
07FFFFFFFFFFFFFFFFFFE000
03FFFFFFFFFFFFFFFFFFF000
01FFFFFFFFFFFFFFFFFFF800
007FFFFFFFFFFFFFFFFFFC00
003FFFFFFFFFFFFFFFFFFE00
000FFFFFFFFFFFFFFFFFFF00
0003FFFFFFFFFFFFFFFFFF00
0000FFFFFFFFFFFFFFFFFF80
00000FFFFFFFFFFFFFFFFF80
000000000000000003FFFFC0
000000000000000000FFFFC0
0000000000000000003FFFC0
0000000000000000001FFFE0
0000000000000000000FFFE0
0000000000000000000FFFE0
00000000000000000007FFE0
00000000000000000007FFE0
00000000000000000007FFE0
00000000000000000007FFE0
00000000000000000003FFF0
00000000000000000003FFF0
00000000000000000007FFF0
00000000000000000007FFF0
00000000000000000007FFE0
00000000000000000007FFE0
0000000000000000000FFFE0
0000000000000000000FFFE0
0000000000000000001FFFE0
0000000000000000003FFFE0
000000000000000000FFFFC0
000000000000000003FFFFC0
7FFFFFFFFFFFFFFFFFFFFFC0
7FFFFFFFFFFFFFFFFFFFFF80
7FFFFFFFFFFFFFFFFFFFFF80
7FFFFFFFFFFFFFFFFFFFFF00
7FFFFFFFFFFFFFFFFFFFFF00
7FFFFFFFFFFFFFFFFFFFFE00
7FFFFFFFFFFFFFFFFFFFFC00
7FFFFFFFFFFFFFFFFFFFF800
7FFFFFFFFFFFFFFFFFFFF000
7FFFFFFFFFFFFFFFFFFFE000
7FFFFFFFFFFFFFFFFFFFC000
7FFFFFFFFFFFFFFFFFFF0000
7FFFFFFFFFFFFFFFFFFC0000
7FFFFFFFFFFFFFFFFFF00000
7FFFFFFFFFFFFFFFFE000000
ENDCHAR
STARTCHAR T
ENCODING 84
SWIDTH 720 0
DWIDTH 84 0
BBX 80 85 2 0
BITMAP
FFFFFFFFFFFFFFFFFFFF
FFFFFFFFFFFFFFFFFFFF
FFFFFFFFFFFFFFFFFFFF
FFFFFFFFFFFFFFFFFFFF
FFFFFFFFFFFFFFFFFFFF
FFFFFFFFFFFFFFFFFFFF
FFFFFFFFFFFFFFFFFFFF
FFFFFFFFFFFFFFFFFFFF
FFFFFFFFFFFFFFFFFFFF
FFFFFFFFFFFFFFFFFFFF
FFFFFFFFFFFFFFFFFFFF
FFFFFFFFFFFFFFFFFFFF
FFFFFFFFFFFFFFFFFFFF
FFFFFFFFFFFFFFFFFFFF
FFFFFFFFFFFFFFFFFFFF
000000007FFE00000000
000000007FFE00000000
000000007FFE00000000
000000007FFE00000000
000000007FFE00000000
000000007FFE00000000
000000007FFE00000000
000000007FFE00000000
000000007FFE00000000
000000007FFE00000000
000000007FFE00000000
000000007FFE00000000
000000007FFE00000000
000000007FFE00000000
000000007FFE00000000
000000007FFE00000000
000000007FFE00000000
000000007FFE00000000
000000007FFE00000000
000000007FFE00000000
000000007FFE00000000
000000007FFE00000000
000000007FFE00000000
000000007FFE00000000
000000007FFE00000000
000000007FFE00000000
000000007FFE00000000
000000007FFE00000000
000000007FFE00000000
000000007FFE00000000
000000007FFE00000000
000000007FFE00000000
000000007FFE00000000
000000007FFE00000000
000000007FFE00000000
000000007FFE00000000
000000007FFE00000000
000000007FFE00000000
000000007FFE00000000
000000007FFE00000000
000000007FFE00000000
000000007FFE00000000
000000007FFE00000000
000000007FFE00000000
000000007FFE00000000
000000007FFE00000000
000000007FFE00000000
000000007FFE00000000
000000007FFE00000000
000000007FFE00000000
000000007FFE00000000
000000007FFE00000000
000000007FFE00000000
000000007FFE00000000
000000007FFE00000000
000000007FFE00000000
000000007FFE00000000
000000007FFE00000000
000000007FFE00000000
000000007FFE00000000
000000007FFE00000000
000000007FFE00000000
000000007FFE00000000
000000007FFE00000000
000000007FFE00000000
000000007FFE00000000
000000007FFE00000000
000000007FFE00000000
000000007FFE00000000
000000007FFE00000000
ENDCHAR
STARTCHAR U
ENCODING 85
SWIDTH 889 0
DWIDTH 104 0
BBX 92 86 6 -1
BITMAP
FFFE0000000000000007FFF0
FFFE0000000000000007FFF0
FFFE0000000000000007FFF0
FFFE0000000000000007FFF0
FFFE0000000000000007FFF0
FFFE0000000000000007FFF0
FFFE0000000000000007FFF0
FFFE0000000000000007FFF0
FFFE0000000000000007FFF0
FFFE0000000000000007FFF0
FFFE0000000000000007FFF0
FFFE0000000000000007FFF0
FFFE0000000000000007FFF0
FFFE0000000000000007FFF0
FFFE0000000000000007FFF0
FFFE0000000000000007FFF0
FFFE0000000000000007FFF0
FFFE0000000000000007FFF0
FFFE0000000000000007FFF0
FFFE0000000000000007FFF0
FFFE0000000000000007FFF0
FFFE0000000000000007FFF0
FFFE0000000000000007FFF0
FFFE0000000000000007FFF0
FFFE0000000000000007FFF0
FFFE0000000000000007FFF0
FFFE0000000000000007FFF0
FFFE0000000000000007FFF0
FFFE0000000000000007FFF0
FFFE0000000000000007FFF0
FFFE0000000000000007FFF0
FFFE0000000000000007FFF0
FFFE0000000000000007FFF0
FFFE0000000000000007FFF0
FFFE0000000000000007FFF0
FFFE0000000000000007FFF0
FFFE0000000000000007FFF0
FFFE0000000000000007FFF0
FFFE0000000000000007FFF0
FFFE0000000000000007FFF0
FFFE0000000000000007FFF0
FFFE0000000000000007FFF0
FFFE0000000000000007FFF0
FFFE0000000000000007FFF0
FFFE0000000000000007FFF0
FFFE0000000000000007FFF0
FFFE0000000000000007FFF0
FFFE0000000000000007FFF0
FFFE0000000000000007FFF0
FFFE0000000000000007FFF0
FFFF0000000000000007FFF0
FFFF0000000000000007FFF0
FFFF0000000000000007FFF0
FFFF0000000000000007FFF0
FFFF0000000000000007FFF0
7FFF0000000000000007FFE0
7FFF000000000000000FFFE0
7FFF800000000000000FFFE0
7FFF800000000000000FFFE0
7FFFC00000000000001FFFE0
7FFFC00000000000001FFFC0
3FFFE00000000000003FFFC0
3FFFE00000000000003FFFC0
3FFFF00000000000007FFFC0
1FFFF8000000000000FFFF80
1FFFFC000000000001FFFF80
1FFFFE000000000007FFFF80
0FFFFF80000000000FFFFF00
0FFFFFE0000000003FFFFF00
07FFFFFC00000003FFFFFE00
03FFFFFFF000007FFFFFFC00
03FFFFFFFFFFFFFFFFFFFC00
01FFFFFFFFFFFFFFFFFFF800
00FFFFFFFFFFFFFFFFFFF000
007FFFFFFFFFFFFFFFFFE000
003FFFFFFFFFFFFFFFFFC000
001FFFFFFFFFFFFFFFFF8000
000FFFFFFFFFFFFFFFFF0000
0007FFFFFFFFFFFFFFFE0000
0001FFFFFFFFFFFFFFF80000
00007FFFFFFFFFFFFFE00000
00001FFFFFFFFFFFFF800000
000007FFFFFFFFFFFE000000
000000FFFFFFFFFFF0000000
0000000FFFFFFFFE00000000
000000000FFFFF0000000000
ENDCHAR
STARTCHAR V
ENCODING 86
SWIDTH 989 0
DWIDTH 116 0
BBX 112 86 2 -1
BITMAP
FFFFC0000000000000000001FFFF
7FFFE0000000000000000003FFFE
7FFFE0000000000000000007FFFC
3FFFF0000000000000000007FFFC
3FFFF000000000000000000FFFF8
1FFFF800000000000000000FFFF8
0FFFFC00000000000000001FFFF0
0FFFFC00000000000000003FFFE0
07FFFE00000000000000003FFFE0
07FFFE00000000000000007FFFC0
03FFFF00000000000000007FFFC0
01FFFF8000000000000000FFFF80
01FFFF8000000000000000FFFF00
00FFFFC000000000000001FFFF00
00FFFFC000000000000003FFFE00
007FFFE000000000000003FFFE00
003FFFE000000000000007FFFC00
003FFFF000000000000007FFF800
001FFFF80000000000000FFFF800
001FFFF80000000000001FFFF000
000FFFFC0000000000001FFFF000
0007FFFC0000000000003FFFE000
0007FFFE0000000000003FFFC000
0003FFFF0000000000007FFFC000
0003FFFF000000000000FFFF8000
0001FFFF800000000000FFFF8000
0000FFFF800000000001FFFF0000
0000FFFFC00000000001FFFE0000
00007FFFE00000000003FFFE0000
00007FFFE00000000003FFFC0000
00003FFFF00000000007FFFC0000
00001FFFF0000000000FFFF80000
00001FFFF8000000000FFFF00000
00000FFFF8000000001FFFF00000
00000FFFFC000000001FFFE00000
000007FFFE000000003FFFE00000
000003FFFE000000007FFFC00000
000003FFFF000000007FFF800000
000001FFFF00000000FFFF800000
000001FFFF80000000FFFF000000
000000FFFFC0000001FFFF000000
0000007FFFC0000001FFFE000000
0000007FFFE0000003FFFC000000
0000003FFFE0000007FFFC000000
0000003FFFF0000007FFF8000000
0000001FFFF800000FFFF8000000
0000000FFFF800000FFFF0000000
0000000FFFFC00001FFFE0000000
00000007FFFC00003FFFE0000000
00000007FFFE00003FFFC0000000
00000003FFFE00007FFF80000000
00000001FFFF00007FFF80000000
00000001FFFF8000FFFF00000000
00000000FFFF8001FFFF00000000
00000000FFFFC001FFFE00000000
000000007FFFC003FFFC00000000
000000003FFFE003FFFC00000000
000000003FFFF007FFF800000000
000000001FFFF007FFF800000000
000000001FFFF80FFFF000000000
000000000FFFF81FFFE000000000
0000000007FFFC1FFFE000000000
0000000007FFFE3FFFC000000000
0000000003FFFE3FFFC000000000
0000000003FFFF7FFF8000000000
0000000001FFFFFFFF0000000000
0000000000FFFFFFFF0000000000
0000000000FFFFFFFE0000000000
00000000007FFFFFFE0000000000
00000000007FFFFFFC0000000000
00000000003FFFFFF80000000000
00000000001FFFFFF80000000000
00000000001FFFFFF00000000000
00000000000FFFFFF00000000000
00000000000FFFFFE00000000000
000000000007FFFFC00000000000
000000000003FFFFC00000000000
000000000003FFFF800000000000
000000000001FFFF800000000000
000000000000FFFF000000000000
000000000000FFFE000000000000
0000000000007FFE000000000000
0000000000007FFC000000000000
0000000000003FF8000000000000
0000000000001FF0000000000000
00000000000007C0000000000000
ENDCHAR
STARTCHAR W
ENCODING 87
SWIDTH 1268 0
DWIDTH 148 0
BBX 145 86 2 -1
BITMAP
FFFFC000001FFFF80000000000000000FFFF80
FFFFC000001FFFF80000000000000001FFFF00
7FFFE000000FFFFC0000000000000001FFFE00
3FFFE000000FFFFC0000000000000003FFFE00
3FFFF0000007FFFE0000000000000003FFFC00
1FFFF0000007FFFE0000000000000007FFFC00
1FFFF8000003FFFF0000000000000007FFF800
0FFFF8000003FFFF000000000000000FFFF800
0FFFFC000001FFFF800000000000001FFFF000
07FFFC000001FFFF800000000000001FFFE000
07FFFE000000FFFFC00000000000003FFFE000
03FFFE0000007FFFC00000000000003FFFC000
03FFFF0000007FFFE00000000000007FFFC000
01FFFF8000003FFFE00000000000007FFF8000
01FFFF8000003FFFF0000000000000FFFF8000
00FFFFC000001FFFF0000000000000FFFF0000
007FFFC000001FFFF8000000000001FFFF0000
007FFFE000000FFFF8000000000001FFFE0000
003FFFE000000FFFFC000000000003FFFE0000
003FFFF0000007FFFC000000000003FFFC0000
001FFFF0000007FFFE000000000007FFFC0000
001FFFF8000003FFFE000000000007FFF80000
000FFFF8000003FFFF00000000000FFFF00000
000FFFFC000001FFFF00000000000FFFF00000
0007FFFC000001FFFF80000000001FFFE00000
0007FFFE000000FFFF80000000003FFFE00000
0003FFFE000000FFFFC0000000003FFFC00000
0001FFFF0000007FFFC0000000007FFFC00000
0001FFFF0000007FFFE0000000007FFF800000
0000FFFF8000003FFFE000000000FFFF800000
0000FFFF8000003FFFF000000000FFFF000000
00007FFFC000001FFFF000000001FFFF000000
00007FFFC000001FFFF800000001FFFE000000
00003FFFE000000FFFF800000003FFFC000000
00003FFFF000000FFFFC00000003FFFC000000
00001FFFF0000007FFFC00000007FFF8000000
00001FFFF8000007FFFE00000007FFF8000000
00000FFFF8000003FFFE0000000FFFF0000000
00000FFFFC000001FFFF0000000FFFF0000000
000007FFFC000001FFFF0000001FFFE0000000
000003FFFE000000FFFF8000001FFFE0000000
000003FFFE000000FFFF8000003FFFC0000000
000001FFFF0000007FFFC000003FFFC0000000
000001FFFF000000FFFFC000007FFF80000000
000000FFFF800000FFFFE00000FFFF80000000
000000FFFF800001FFFFE00000FFFF00000000
0000007FFFC00001FFFFF00001FFFE00000000
0000007FFFC00003FFFFF00001FFFE00000000
0000003FFFE00007FFFFF80003FFFC00000000
0000003FFFE00007FFFFF80003FFFC00000000
0000001FFFF0000FFFFFFC0007FFF800000000
0000001FFFF0000FFFFFFC0007FFF800000000
0000000FFFF8001FFFFFFE000FFFF000000000
00000007FFFC001FFFFFFE000FFFF000000000
00000007FFFC003FFFFFFF001FFFE000000000
00000003FFFE007FFFFFFF001FFFE000000000
00000003FFFE007FFFFFFF803FFFC000000000
00000001FFFF00FFFF7FFF803FFFC000000000
00000001FFFF00FFFE7FFFC07FFF8000000000
00000000FFFF81FFFE3FFFC07FFF0000000000
00000000FFFF81FFFC3FFFE0FFFF0000000000
000000007FFFC3FFFC1FFFE1FFFE0000000000
000000007FFFC7FFF81FFFF1FFFE0000000000
000000003FFFE7FFF80FFFF3FFFC0000000000
000000001FFFEFFFF00FFFFBFFFC0000000000
000000001FFFFFFFF007FFFFFFF80000000000
000000000FFFFFFFE007FFFFFFF80000000000
000000000FFFFFFFC003FFFFFFF00000000000
0000000007FFFFFFC003FFFFFFF00000000000
0000000007FFFFFF8001FFFFFFE00000000000
0000000003FFFFFF8001FFFFFFC00000000000
0000000003FFFFFF0000FFFFFFC00000000000
0000000001FFFFFF00007FFFFF800000000000
0000000001FFFFFE00007FFFFF800000000000
0000000000FFFFFE00003FFFFF000000000000
0000000000FFFFFC00003FFFFF000000000000
00000000007FFFFC00001FFFFE000000000000
00000000003FFFF800001FFFFE000000000000
00000000003FFFF800000FFFFC000000000000
00000000001FFFF000000FFFFC000000000000
00000000001FFFE0000007FFF8000000000000
00000000000FFFE0000007FFF8000000000000
00000000000FFFC0000003FFF0000000000000
000000000007FF80000001FFE0000000000000
000000000003FF00000000FFC0000000000000
000000000000FC000000003F00000000000000
ENDCHAR
STARTCHAR X
ENCODING 88
SWIDTH 1000 0
DWIDTH 117 0
BBX 111 85 3 0
BITMAP
1FFFFF0000000000000001FFFFE0
0FFFFF8000000000000003FFFF80
07FFFFC000000000000007FFFF00
03FFFFE00000000000000FFFFE00
01FFFFF00000000000001FFFFC00
00FFFFF80000000000003FFFF800
007FFFFC0000000000007FFFF000
003FFFFE000000000000FFFFE000
000FFFFF000000000001FFFFC000
0007FFFF800000000003FFFF8000
0003FFFFC00000000007FFFF0000
0001FFFFE0000000000FFFFE0000
0000FFFFF0000000001FFFFC0000
00007FFFF8000000003FFFF80000
00003FFFFC000000007FFFF00000
00001FFFFE00000000FFFFE00000
00000FFFFF00000001FFFFC00000
000007FFFF80000003FFFF800000
000003FFFFC0000007FFFF000000
000001FFFFE000000FFFFE000000
000000FFFFF000001FFFFC000000
0000007FFFF800003FFFF8000000
0000003FFFFC00007FFFF0000000
0000001FFFFE0000FFFFE0000000
0000000FFFFF0001FFFFC0000000
00000007FFFF8003FFFF80000000
00000003FFFFC007FFFF00000000
00000001FFFFE00FFFFE00000000
00000000FFFFF01FFFFC00000000
000000007FFFF83FFFF800000000
000000003FFFFC7FFFF000000000
000000001FFFFEFFFFE000000000
000000000FFFFFFFFFC000000000
0000000007FFFFFFFF8000000000
0000000003FFFFFFFF0000000000
0000000001FFFFFFFE0000000000
0000000000FFFFFFFC0000000000
00000000007FFFFFF80000000000
00000000003FFFFFF00000000000
00000000001FFFFFE00000000000
00000000000FFFFFC00000000000
000000000007FFFF800000000000
00000000000FFFFFC00000000000
00000000001FFFFFE00000000000
00000000003FFFFFF00000000000
00000000007FFFFFF80000000000
0000000000FFFFFFFC0000000000
0000000001FFFFFFFE0000000000
0000000003FFFFFFFF0000000000
0000000007FFFFFFFF8000000000
000000000FFFFFFFFFC000000000
000000001FFFFDFFFFE000000000
000000003FFFF0FFFFF000000000
000000007FFFE07FFFF800000000
00000000FFFFC03FFFFC00000000
00000003FFFF801FFFFE00000000
00000007FFFF000FFFFF80000000
0000000FFFFE0007FFFFC0000000
0000001FFFFC0003FFFFE0000000
0000003FFFF80001FFFFF0000000
0000007FFFF00000FFFFF8000000
000000FFFFE000007FFFFC000000
000001FFFFC000003FFFFE000000
000003FFFF8000001FFFFF000000
000007FFFF0000000FFFFF800000
00000FFFFE00000003FFFFC00000
00001FFFFC00000001FFFFE00000
00003FFFF800000000FFFFF00000
00007FFFF0000000007FFFF80000
0000FFFFE0000000003FFFFC0000
0001FFFFC0000000001FFFFE0000
0003FFFF80000000000FFFFF0000
0007FFFF000000000007FFFF8000
000FFFFE000000000003FFFFE000
001FFFFC000000000001FFFFF000
003FFFF8000000000000FFFFF800
00FFFFF00000000000007FFFFC00
01FFFFE00000000000003FFFFE00
03FFFFC00000000000001FFFFF00
07FFFF800000000000000FFFFF80
0FFFFF0000000000000007FFFFC0
1FFFFE0000000000000003FFFFE0
3FFFF80000000000000001FFFFF0
7FFFF00000000000000000FFFFF8
FFFFE000000000000000007FFFFE
ENDCHAR
STARTCHAR Y
ENCODING 89
SWIDTH 926 0
DWIDTH 108 0
BBX 105 85 2 0
BITMAP
FFFFF00000000000000007FFFF80
7FFFF80000000000000007FFFF00
3FFFFC000000000000000FFFFE00
3FFFFC000000000000001FFFFC00
1FFFFE000000000000003FFFF800
0FFFFF000000000000007FFFF000
07FFFF80000000000000FFFFE000
03FFFFC0000000000000FFFFC000
01FFFFE0000000000001FFFFC000
00FFFFE0000000000003FFFF8000
00FFFFF0000000000007FFFF0000
007FFFF800000000000FFFFE0000
003FFFFC00000000001FFFFC0000
001FFFFE00000000001FFFF80000
000FFFFF00000000003FFFF80000
0007FFFF00000000007FFFF00000
0003FFFF8000000000FFFFE00000
0003FFFFC000000001FFFFC00000
0001FFFFE000000003FFFF800000
0000FFFFF000000003FFFF000000
00007FFFF800000007FFFE000000
00003FFFF80000000FFFFE000000
00001FFFFC0000001FFFFC000000
00001FFFFE0000003FFFF8000000
00000FFFFF0000007FFFF0000000
000007FFFF8000007FFFE0000000
000003FFFFC00000FFFFC0000000
000001FFFFC00001FFFF80000000
000000FFFFE00003FFFF80000000
0000007FFFF00007FFFF00000000
0000007FFFF8000FFFFE00000000
0000003FFFFC000FFFFC00000000
0000001FFFFE001FFFF800000000
0000000FFFFE003FFFF000000000
00000007FFFF007FFFE000000000
00000003FFFF80FFFFE000000000
00000003FFFFC1FFFFC000000000
00000001FFFFE1FFFF8000000000
00000000FFFFF3FFFF0000000000
000000007FFFF7FFFE0000000000
000000003FFFFFFFFC0000000000
000000001FFFFFFFFC0000000000
000000000FFFFFFFF80000000000
000000000FFFFFFFF00000000000
0000000007FFFFFFE00000000000
0000000003FFFFFFC00000000000
0000000001FFFFFF800000000000
0000000000FFFFFF000000000000
00000000007FFFFF000000000000
00000000003FFFFE000000000000
00000000003FFFFC000000000000
00000000001FFFF8000000000000
00000000000FFFF0000000000000
000000000007FFF0000000000000
000000000007FFF0000000000000
000000000007FFF0000000000000
000000000007FFF0000000000000
000000000007FFF0000000000000
000000000007FFF0000000000000
000000000007FFF0000000000000
000000000007FFF0000000000000
000000000007FFF0000000000000
000000000007FFF0000000000000
000000000007FFF0000000000000
000000000007FFF0000000000000
000000000007FFF0000000000000
000000000007FFF0000000000000
000000000007FFF0000000000000
000000000007FFF0000000000000
000000000007FFF0000000000000
000000000007FFF0000000000000
000000000007FFF0000000000000
000000000007FFF0000000000000
000000000007FFF0000000000000
000000000007FFF0000000000000
000000000007FFF0000000000000
000000000007FFF0000000000000
000000000007FFF0000000000000
000000000007FFF0000000000000
000000000007FFF0000000000000
000000000007FFF0000000000000
000000000007FFF0000000000000
000000000007FFF0000000000000
000000000007FFF0000000000000
000000000007FFF0000000000000
ENDCHAR
STARTCHAR Z
ENCODING 90
SWIDTH 802 0
DWIDTH 94 0
BBX 84 85 5 0
BITMAP
7FFFFFFFFFFFFFFFFFFC00
7FFFFFFFFFFFFFFFFFFF00
7FFFFFFFFFFFFFFFFFFFC0
7FFFFFFFFFFFFFFFFFFFC0
7FFFFFFFFFFFFFFFFFFFE0
7FFFFFFFFFFFFFFFFFFFE0
7FFFFFFFFFFFFFFFFFFFE0
7FFFFFFFFFFFFFFFFFFFF0
7FFFFFFFFFFFFFFFFFFFF0
7FFFFFFFFFFFFFFFFFFFE0
7FFFFFFFFFFFFFFFFFFFE0
7FFFFFFFFFFFFFFFFFFFC0
7FFFFFFFFFFFFFFFFFFFC0
7FFFFFFFFFFFFFFFFFFF80
000000000000001FFFFF00
000000000000003FFFFE00
000000000000007FFFFC00
00000000000000FFFFF800
00000000000001FFFFF000
00000000000003FFFFE000
00000000000007FFFFC000
0000000000000FFFFF8000
0000000000001FFFFF0000
0000000000003FFFFE0000
0000000000007FFFFC0000
000000000000FFFFF80000
000000000001FFFFF00000
000000000003FFFFE00000
000000000007FFFFC00000
00000000000FFFFF800000
00000000001FFFFF000000
00000000003FFFFE000000
00000000007FFFFC000000
0000000000FFFFF8000000
0000000001FFFFF0000000
0000000003FFFFE0000000
0000000007FFFFC0000000
000000000FFFFF80000000
000000001FFFFF00000000
000000003FFFFE00000000
000000007FFFFC00000000
00000000FFFFF800000000
00000001FFFFF000000000
00000003FFFFE000000000
00000007FFFFC000000000
0000000FFFFF8000000000
0000001FFFFF0000000000
0000003FFFFE0000000000
0000007FFFFC0000000000
000000FFFFF80000000000
000001FFFFF00000000000
000003FFFFE00000000000
000007FFFFC00000000000
00000FFFFF800000000000
00001FFFFF000000000000
00003FFFFE000000000000
00007FFFFC000000000000
0000FFFFF8000000000000
0001FFFFF0000000000000
0003FFFFE0000000000000
0007FFFFC0000000000000
000FFFFF80000000000000
001FFFFF00000000000000
003FFFFE00000000000000
007FFFFC00000000000000
00FFFFF800000000000000
01FFFFF000000000000000
03FFFFE000000000000000
07FFFFE000000000000000
0FFFFFC000000000000000
1FFFFF8000000000000000
3FFFFFFFFFFFFFFFFFFFE0
7FFFFFFFFFFFFFFFFFFFE0
7FFFFFFFFFFFFFFFFFFFE0
FFFFFFFFFFFFFFFFFFFFE0
FFFFFFFFFFFFFFFFFFFFE0
FFFFFFFFFFFFFFFFFFFFE0
FFFFFFFFFFFFFFFFFFFFE0
FFFFFFFFFFFFFFFFFFFFE0
FFFFFFFFFFFFFFFFFFFFE0
FFFFFFFFFFFFFFFFFFFFE0
7FFFFFFFFFFFFFFFFFFFE0
3FFFFFFFFFFFFFFFFFFFE0
1FFFFFFFFFFFFFFFFFFFE0
07FFFFFFFFFFFFFFFFFFE0
ENDCHAR
STARTCHAR bracketleft
ENCODING 91
SWIDTH 333 0
DWIDTH 39 0
BBX 20 107 12 -10
BITMAP
FFFFF0
FFFFF0
FFFFF0
FFFFF0
FFFFF0
FFFFF0
FFFFF0
FFFFF0
FFFFF0
FFFFF0
FF8000
FF8000
FF8000
FF8000
FF8000
FF8000
FF8000
FF8000
FF8000
FF8000
FF8000
FF8000
FF8000
FF8000
FF8000
FF8000
FF8000
FF8000
FF8000
FF8000
FF8000
FF8000
FF8000
FF8000
FF8000
FF8000
FF8000
FF8000
FF8000
FF8000
FF8000
FF8000
FF8000
FF8000
FF8000
FF8000
FF8000
FF8000
FF8000
FF8000
FF8000
FF8000
FF8000
FF8000
FF8000
FF8000
FF8000
FF8000
FF8000
FF8000
FF8000
FF8000
FF8000
FF8000
FF8000
FF8000
FF8000
FF8000
FF8000
FF8000
FF8000
FF8000
FF8000
FF8000
FF8000
FF8000
FF8000
FF8000
FF8000
FF8000
FF8000
FF8000
FF8000
FF8000
FF8000
FF8000
FF8000
FF8000
FF8000
FF8000
FF8000
FF8000
FF8000
FF8000
FF8000
FF8000
FF8000
FF8000
FFFFF0
FFFFF0
FFFFF0
FFFFF0
FFFFF0
FFFFF0
FFFFF0
FFFFF0
FFFFF0
ENDCHAR
STARTCHAR backslash
ENCODING 92
SWIDTH 445 0
DWIDTH 52 0
BBX 50 85 1 0
BITMAP
FFC00000000000
7FE00000000000
7FE00000000000
3FF00000000000
3FF00000000000
1FF80000000000
1FF80000000000
0FFC0000000000
0FFC0000000000
07FC0000000000
07FE0000000000
07FE0000000000
03FF0000000000
03FF0000000000
01FF8000000000
01FF8000000000
00FFC000000000
00FFC000000000
007FE000000000
007FE000000000
003FF000000000
003FF000000000
001FF800000000
001FF800000000
000FFC00000000
000FFC00000000
000FFC00000000
0007FE00000000
0007FE00000000
0003FF00000000
0003FF00000000
0001FF80000000
0001FF80000000
0000FFC0000000
0000FFC0000000
00007FE0000000
00007FE0000000
00003FF0000000
00003FF0000000
00003FF8000000
00001FF8000000
00001FF8000000
00000FFC000000
00000FFC000000
000007FE000000
000007FE000000
000003FF000000
000003FF000000
000001FF800000
000001FF800000
000000FFC00000
000000FFC00000
0000007FE00000
0000007FE00000
0000007FF00000
0000003FF00000
0000003FF80000
0000001FF80000
0000001FF80000
0000000FFC0000
0000000FFC0000
00000007FE0000
00000007FE0000
00000003FF0000
00000003FF0000
00000001FF8000
00000001FF8000
00000001FFC000
00000000FFC000
00000000FFE000
000000007FE000
000000007FF000
000000003FF000
000000003FF800
000000001FF800
000000001FF800
000000000FFC00
000000000FFC00
0000000007FE00
0000000007FE00
0000000007FF00
0000000003FF00
0000000003FF80
0000000001FF80
0000000001FFC0
ENDCHAR
STARTCHAR bracketright
ENCODING 93
SWIDTH 333 0
DWIDTH 39 0
BBX 20 107 7 -10
BITMAP
FFFFF0
FFFFF0
FFFFF0
FFFFF0
FFFFF0
FFFFF0
FFFFF0
FFFFF0
FFFFF0
FFFFF0
001FF0
001FF0
001FF0
001FF0
001FF0
001FF0
001FF0
001FF0
001FF0
001FF0
001FF0
001FF0
001FF0
001FF0
001FF0
001FF0
001FF0
001FF0
001FF0
001FF0
001FF0
001FF0
001FF0
001FF0
001FF0
001FF0
001FF0
001FF0
001FF0
001FF0
001FF0
001FF0
001FF0
001FF0
001FF0
001FF0
001FF0
001FF0
001FF0
001FF0
001FF0
001FF0
001FF0
001FF0
001FF0
001FF0
001FF0
001FF0
001FF0
001FF0
001FF0
001FF0
001FF0
001FF0
001FF0
001FF0
001FF0
001FF0
001FF0
001FF0
001FF0
001FF0
001FF0
001FF0
001FF0
001FF0
001FF0
001FF0
001FF0
001FF0
001FF0
001FF0
001FF0
001FF0
001FF0
001FF0
001FF0
001FF0
001FF0
001FF0
001FF0
001FF0
001FF0
001FF0
001FF0
001FF0
001FF0
001FF0
FFFFF0
FFFFF0
FFFFF0
FFFFF0
FFFFF0
FFFFF0
FFFFF0
FFFFF0
FFFFF0
ENDCHAR
STARTCHAR asciicircum
ENCODING 94
SWIDTH 559 0
DWIDTH 65 0
BBX 51 51 7 34
BITMAP
000001F0000000
000003FC000000
000007FE000000
000007FE000000
00000FFF000000
00000FFF000000
00001FFF000000
00001FFF800000
00003FFF800000
00003FFFC00000
00003FFFC00000
00007FFFE00000
00007FFFE00000
0000FFBFE00000
0000FF9FF00000
0001FF9FF00000
0001FF1FF80000
0001FF0FF80000
0003FE0FF80000
0003FE07FC0000
0007FE07FC0000
0007FC07FE0000
000FFC03FE0000
000FF803FF0000
000FF803FF0000
001FF801FF0000
001FF001FF8000
003FF000FF8000
003FE000FFC000
003FE000FFC000
007FE0007FC000
007FC0007FE000
00FFC0003FE000
00FF80003FF000
01FF80003FF000
01FF80001FF800
01FF00001FF800
03FF00000FF800
03FE00000FFC00
07FE00000FFC00
07FE000007FE00
0FFC000007FE00
0FFC000003FE00
0FF8000003FF00
1FF8000003FF00
1FF8000001FF80
3FF0000001FF80
3FF0000000FFC0
7FE0000000FFC0
7FE0000000FFC0
FFE00000007FE0
ENDCHAR
STARTCHAR underscore
ENCODING 95
SWIDTH 668 0
DWIDTH 78 0
BBX 79 7 0 -19
BITMAP
FFFFFFFFFFFFFFFFFFFE
FFFFFFFFFFFFFFFFFFFE
FFFFFFFFFFFFFFFFFFFE
FFFFFFFFFFFFFFFFFFFE
FFFFFFFFFFFFFFFFFFFE
FFFFFFFFFFFFFFFFFFFE
FFFFFFFFFFFFFFFFFFFE
ENDCHAR
STARTCHAR grave
ENCODING 96
SWIDTH 362 0
DWIDTH 42 0
BBX 30 16 6 90
BITMAP
C0000000
F8000000
FF000000
FFF00000
FFFE0000
FFFFC000
FFFFFC00
FFFFFF80
FFFFFFF0
7FFFFFFC
03FFFFFC
003FFFFC
0001FFFC
00000FFC
000000FC
00000004
ENDCHAR
STARTCHAR a
ENCODING 97
SWIDTH 989 0
DWIDTH 116 0
BBX 112 86 2 0
BITMAP
00000000000007E0000000000000
0000000000001FF0000000000000
0000000000003FF8000000000000
0000000000007FFC000000000000
0000000000007FFE000000000000
000000000000FFFE000000000000
000000000001FFFF000000000000
000000000001FFFF800000000000
000000000003FFFF800000000000
000000000003FFFFC00000000000
000000000007FFFFC00000000000
00000000000FFFFFE00000000000
00000000000FFFFFF00000000000
00000000001FFFFFF00000000000
00000000001FFFFFF80000000000
00000000003FFFFFF80000000000
00000000007FFFFFFC0000000000
00000000007FFFFFFE0000000000
0000000000FFFFFFFE0000000000
0000000000FFFFFFFF0000000000
0000000001FFFFFFFF0000000000
0000000003FFFFFFFF8000000000
0000000003FFFCFFFFC000000000
0000000007FFFC7FFFC000000000
0000000007FFF87FFFE000000000
000000000FFFF83FFFE000000000
000000001FFFF03FFFF000000000
000000001FFFE01FFFF800000000
000000003FFFE00FFFF800000000
000000003FFFC00FFFFC00000000
000000007FFFC007FFFC00000000
00000000FFFF8007FFFE00000000
00000000FFFF8003FFFF00000000
00000001FFFF0001FFFF00000000
00000001FFFE0001FFFF80000000
00000003FFFE0000FFFF80000000
00000007FFFC0000FFFFC0000000
00000007FFFC00007FFFE0000000
0000000FFFF800003FFFE0000000
0000000FFFF000003FFFF0000000
0000001FFFF000001FFFF0000000
0000003FFFE000001FFFF8000000
0000003FFFE000000FFFFC000000
0000007FFFC000000FFFFC000000
0000007FFF80000007FFFE000000
000000FFFF80000003FFFF000000
000001FFFF00000003FFFF000000
000001FFFF00000001FFFF800000
000003FFFE00000001FFFF800000
000003FFFC00000000FFFFC00000
000007FFFC000000007FFFE00000
00000FFFF8000000007FFFE00000
00000FFFF8000000003FFFF00000
00001FFFF000FFFFFFFFFFF00000
00001FFFE001FFFFFFFFFFF80000
00003FFFE001FFFFFFFFFFFC0000
00007FFFC003FFFFFFFFFFFC0000
00007FFFC007FFFFFFFFFFFE0000
0000FFFF8007FFFFFFFFFFFE0000
0000FFFF000FFFFFFFFFFFFF0000
0001FFFF000FFFFFFFFFFFFF8000
0003FFFE001FFFFFFFFFFFFF8000
0003FFFE001FFFFFFFFFFFFFC000
0007FFFC003FFFFFFFFFFFFFC000
0007FFF8007FFFFFFFFFFFFFE000
000FFFF80000000000003FFFF000
001FFFF00000000000003FFFF000
001FFFF00000000000001FFFF800
003FFFE00000000000001FFFF800
003FFFC00000000000000FFFFC00
007FFFC000000000000007FFFE00
00FFFF8000000000000007FFFE00
00FFFF8000000000000003FFFF00
01FFFF0000000000000003FFFF00
01FFFE0000000000000001FFFF80
03FFFE0000000000000000FFFFC0
07FFFC0000000000000000FFFFC0
07FFFC00000000000000007FFFE0
0FFFF800000000000000007FFFE0
0FFFF800000000000000003FFFF0
1FFFF000000000000000001FFFF8
3FFFE000000000000000001FFFF8
3FFFE000000000000000000FFFFC
7FFFC0000000000000000007FFFC
7FFFC0000000000000000007FFFE
FFFF80000000000000000003FFFF
ENDCHAR
STARTCHAR b
ENCODING 98
SWIDTH 891 0
DWIDTH 104 0
BBX 92 85 7 0
BITMAP
FFFFFFFFFFFFFFFFF8000000
FFFFFFFFFFFFFFFFFFC00000
FFFFFFFFFFFFFFFFFFF80000
FFFFFFFFFFFFFFFFFFFE0000
FFFFFFFFFFFFFFFFFFFF8000
FFFFFFFFFFFFFFFFFFFFC000
FFFFFFFFFFFFFFFFFFFFF000
FFFFFFFFFFFFFFFFFFFFF800
FFFFFFFFFFFFFFFFFFFFFC00
FFFFFFFFFFFFFFFFFFFFFC00
FFFFFFFFFFFFFFFFFFFFFE00
FFFFFFFFFFFFFFFFFFFFFF00
FFFFFFFFFFFFFFFFFFFFFF00
FFFFFFFFFFFFFFFFFFFFFF80
FFFFFFFFFFFFFFFFFFFFFF80
FFFE0000000000003FFFFF80
FFFE00000000000003FFFFC0
FFFE00000000000000FFFFC0
FFFE000000000000007FFFC0
FFFE000000000000003FFFC0
FFFE000000000000003FFFC0
FFFE000000000000001FFFC0
FFFE000000000000001FFFC0
FFFE000000000000001FFFC0
FFFE000000000000001FFFC0
FFFE000000000000001FFFC0
FFFE000000000000001FFFC0
FFFE000000000000001FFFC0
FFFE000000000000001FFF80
FFFE000000000000003FFF80
FFFE000000000000003FFF80
FFFE000000000000007FFF00
FFFE00000000000000FFFF00
FFFE00000000000001FFFE00
FFFE0000000000000FFFFC00
FFFE003FFFFFFFFFFFFFF800
FFFE003FFFFFFFFFFFFFF000
FFFE003FFFFFFFFFFFFFE000
FFFE003FFFFFFFFFFFFF8000
FFFE003FFFFFFFFFFFFE0000
FFFE003FFFFFFFFFFFFF0000
FFFE003FFFFFFFFFFFFFC000
FFFE003FFFFFFFFFFFFFF000
FFFE003FFFFFFFFFFFFFF800
FFFE003FFFFFFFFFFFFFFC00
FFFE003FFFFFFFFFFFFFFE00
FFFE003FFFFFFFFFFFFFFF00
FFFE003FFFFFFFFFFFFFFF00
FFFE0000000000000FFFFF80
FFFE00000000000001FFFFC0
FFFE000000000000007FFFC0
FFFE000000000000003FFFC0
FFFE000000000000001FFFE0
FFFE000000000000001FFFE0
FFFE000000000000000FFFE0
FFFE000000000000000FFFE0
FFFE000000000000000FFFE0
FFFE000000000000000FFFF0
FFFE0000000000000007FFF0
FFFE000000000000000FFFF0
FFFE000000000000000FFFF0
FFFE000000000000000FFFF0
FFFE000000000000000FFFE0
FFFE000000000000000FFFE0
FFFE000000000000001FFFE0
FFFE000000000000003FFFE0
FFFE000000000000007FFFE0
FFFE00000000000000FFFFC0
FFFE00000000000003FFFFC0
FFFE0000000000003FFFFFC0
FFFFFFFFFFFFFFFFFFFFFF80
FFFFFFFFFFFFFFFFFFFFFF80
FFFFFFFFFFFFFFFFFFFFFF00
FFFFFFFFFFFFFFFFFFFFFF00
FFFFFFFFFFFFFFFFFFFFFE00
FFFFFFFFFFFFFFFFFFFFFC00
FFFFFFFFFFFFFFFFFFFFFC00
FFFFFFFFFFFFFFFFFFFFF800
FFFFFFFFFFFFFFFFFFFFF000
FFFFFFFFFFFFFFFFFFFFC000
FFFFFFFFFFFFFFFFFFFF8000
FFFFFFFFFFFFFFFFFFFE0000
FFFFFFFFFFFFFFFFFFF80000
FFFFFFFFFFFFFFFFFFE00000
FFFFFFFFFFFFFFFFFE000000
ENDCHAR
STARTCHAR c
ENCODING 99
SWIDTH 829 0
DWIDTH 97 0
BBX 87 85 5 0
BITMAP
000000003FFFFFFFFFFFFE
00000007FFFFFFFFFFFFFE
0000003FFFFFFFFFFFFFFE
000000FFFFFFFFFFFFFFFE
000007FFFFFFFFFFFFFFFE
00000FFFFFFFFFFFFFFFFE
00003FFFFFFFFFFFFFFFFE
0000FFFFFFFFFFFFFFFFFE
0001FFFFFFFFFFFFFFFFFE
0003FFFFFFFFFFFFFFFFFE
0007FFFFFFFFFFFFFFFFFE
000FFFFFFFFFFFFFFFFFFE
001FFFFFFFFFFFFFFFFFFE
003FFFFFFFFFFFFFFFFFFE
007FFFFFFFFFFFFFFFFFFE
00FFFFFFE0000000000000
01FFFFFF00000000000000
01FFFFF800000000000000
03FFFFF000000000000000
07FFFFC000000000000000
07FFFF8000000000000000
0FFFFE0000000000000000
0FFFFC0000000000000000
1FFFF80000000000000000
1FFFF80000000000000000
1FFFF00000000000000000
3FFFE00000000000000000
3FFFE00000000000000000
3FFFC00000000000000000
7FFFC00000000000000000
7FFF800000000000000000
7FFF800000000000000000
7FFF000000000000000000
7FFF000000000000000000
FFFF000000000000000000
FFFE000000000000000000
FFFE000000000000000000
FFFE000000000000000000
FFFE000000000000000000
FFFE000000000000000000
FFFE000000000000000000
FFFE000000000000000000
FFFE000000000000000000
FFFE000000000000000000
FFFE000000000000000000
FFFE000000000000000000
FFFE000000000000000000
FFFE000000000000000000
FFFE000000000000000000
FFFF000000000000000000
7FFF000000000000000000
7FFF000000000000000000
7FFF000000000000000000
7FFF800000000000000000
3FFF800000000000000000
3FFFC00000000000000000
3FFFC00000000000000000
3FFFE00000000000000000
1FFFE00000000000000000
1FFFF00000000000000000
0FFFF80000000000000000
0FFFFC0000000000000000
07FFFE0000000000000000
07FFFF0000000000000000
03FFFF8000000000000000
03FFFFC000000000000000
01FFFFF000000000000000
00FFFFF800000000000000
00FFFFFF00000000000000
007FFFFFE0000000000000
003FFFFFFFFFFFFFFFFFFE
001FFFFFFFFFFFFFFFFFFE
000FFFFFFFFFFFFFFFFFFE
0007FFFFFFFFFFFFFFFFFE
0003FFFFFFFFFFFFFFFFFE
0001FFFFFFFFFFFFFFFFFE
0000FFFFFFFFFFFFFFFFFE
00007FFFFFFFFFFFFFFFFE
00001FFFFFFFFFFFFFFFFE
00000FFFFFFFFFFFFFFFFE
000003FFFFFFFFFFFFFFFE
000000FFFFFFFFFFFFFFFE
0000001FFFFFFFFFFFFFFE
00000003FFFFFFFFFFFFFE
000000003FFFFFFFFFFFFE
ENDCHAR
STARTCHAR d
ENCODING 100
SWIDTH 879 0
DWIDTH 103 0
BBX 91 85 7 0
BITMAP
FFFFFFFFFFFFFF8000000000
FFFFFFFFFFFFFFFC00000000
FFFFFFFFFFFFFFFF80000000
FFFFFFFFFFFFFFFFE0000000
FFFFFFFFFFFFFFFFF8000000
FFFFFFFFFFFFFFFFFE000000
FFFFFFFFFFFFFFFFFF800000
FFFFFFFFFFFFFFFFFFE00000
FFFFFFFFFFFFFFFFFFF00000
FFFFFFFFFFFFFFFFFFF80000
FFFFFFFFFFFFFFFFFFFC0000
FFFFFFFFFFFFFFFFFFFE0000
FFFFFFFFFFFFFFFFFFFF0000
FFFFFFFFFFFFFFFFFFFF8000
FFFFFFFFFFFFFFFFFFFFC000
FFFE0000000000FFFFFFE000
FFFE00000000001FFFFFE000
FFFE000000000007FFFFF000
FFFE000000000001FFFFF800
FFFE0000000000007FFFF800
FFFE0000000000003FFFFC00
FFFE0000000000001FFFFC00
FFFE00000000000007FFFE00
FFFE00000000000007FFFE00
FFFE00000000000003FFFF00
FFFE00000000000001FFFF00
FFFE00000000000000FFFF80
FFFE00000000000000FFFF80
FFFE000000000000007FFF80
FFFE000000000000007FFFC0
FFFE000000000000003FFFC0
FFFE000000000000003FFFC0
FFFE000000000000001FFFC0
FFFE000000000000001FFFC0
FFFE000000000000001FFFE0
FFFE000000000000001FFFE0
FFFE000000000000000FFFE0
FFFE000000000000000FFFE0
FFFE000000000000000FFFE0
FFFE000000000000000FFFE0
FFFE000000000000000FFFE0
FFFE000000000000000FFFE0
FFFE000000000000000FFFE0
FFFE000000000000000FFFE0
FFFE000000000000000FFFE0
FFFE000000000000000FFFE0
FFFE000000000000000FFFE0
FFFE000000000000000FFFE0
FFFE000000000000000FFFE0
FFFE000000000000001FFFC0
FFFE000000000000001FFFC0
FFFE000000000000001FFFC0
FFFE000000000000001FFFC0
FFFE000000000000003FFFC0
FFFE000000000000003FFF80
FFFE000000000000007FFF80
FFFE000000000000007FFF80
FFFE00000000000000FFFF00
FFFE00000000000000FFFF00
FFFE00000000000001FFFF00
FFFE00000000000003FFFE00
FFFE00000000000007FFFE00
FFFE0000000000000FFFFC00
FFFE0000000000001FFFFC00
FFFE0000000000003FFFF800
FFFE0000000000007FFFF800
FFFE000000000001FFFFF000
FFFE000000000007FFFFE000
FFFE00000000001FFFFFE000
FFFE0000000000FFFFFFC000
FFFFFFFFFFFFFFFFFFFF8000
FFFFFFFFFFFFFFFFFFFF0000
FFFFFFFFFFFFFFFFFFFE0000
FFFFFFFFFFFFFFFFFFFC0000
FFFFFFFFFFFFFFFFFFF80000
FFFFFFFFFFFFFFFFFFF00000
FFFFFFFFFFFFFFFFFFE00000
FFFFFFFFFFFFFFFFFFC00000
FFFFFFFFFFFFFFFFFF000000
FFFFFFFFFFFFFFFFFC000000
FFFFFFFFFFFFFFFFF8000000
FFFFFFFFFFFFFFFFE0000000
FFFFFFFFFFFFFFFF00000000
FFFFFFFFFFFFFFF800000000
FFFFFFFFFFFFFF8000000000
ENDCHAR
STARTCHAR e
ENCODING 101
SWIDTH 759 0
DWIDTH 89 0
BBX 76 85 7 0
BITMAP
FFFFFFFFFFFFFFFFFFF0
FFFFFFFFFFFFFFFFFFF0
FFFFFFFFFFFFFFFFFFF0
FFFFFFFFFFFFFFFFFFF0
FFFFFFFFFFFFFFFFFFF0
FFFFFFFFFFFFFFFFFFF0
FFFFFFFFFFFFFFFFFFF0
FFFFFFFFFFFFFFFFFFF0
FFFFFFFFFFFFFFFFFFF0
FFFFFFFFFFFFFFFFFFF0
FFFFFFFFFFFFFFFFFFF0
FFFFFFFFFFFFFFFFFFF0
FFFFFFFFFFFFFFFFFFF0
FFFFFFFFFFFFFFFFFFF0
FFFFFFFFFFFFFFFFFFF0
FFFE0000000000000000
FFFE0000000000000000
FFFE0000000000000000
FFFE0000000000000000
FFFE0000000000000000
FFFE0000000000000000
FFFE0000000000000000
FFFE0000000000000000
FFFE0000000000000000
FFFE0000000000000000
FFFE0000000000000000
FFFE0000000000000000
FFFE0000000000000000
FFFE0000000000000000
FFFE0000000000000000
FFFE0000000000000000
FFFE0000000000000000
FFFE0000000000000000
FFFE0000000000000000
FFFE0000000000000000
FFFE003FFFFFFFFFFF80
FFFE003FFFFFFFFFFF80
FFFE003FFFFFFFFFFF80
FFFE003FFFFFFFFFFF80
FFFE003FFFFFFFFFFF80
FFFE003FFFFFFFFFFF80
FFFE003FFFFFFFFFFF80
FFFE003FFFFFFFFFFF80
FFFE003FFFFFFFFFFF80
FFFE003FFFFFFFFFFF80
FFFE003FFFFFFFFFFF80
FFFE003FFFFFFFFFFF80
FFFE003FFFFFFFFFFF80
FFFE0000000000000000
FFFE0000000000000000
FFFE0000000000000000
FFFE0000000000000000
FFFE0000000000000000
FFFE0000000000000000
FFFE0000000000000000
FFFE0000000000000000
FFFE0000000000000000
FFFE0000000000000000
FFFE0000000000000000
FFFE0000000000000000
FFFE0000000000000000
FFFE0000000000000000
FFFE0000000000000000
FFFE0000000000000000
FFFE0000000000000000
FFFE0000000000000000
FFFE0000000000000000
FFFE0000000000000000
FFFE0000000000000000
FFFE0000000000000000
FFFFFFFFFFFFFFFFFFF0
FFFFFFFFFFFFFFFFFFF0
FFFFFFFFFFFFFFFFFFF0
FFFFFFFFFFFFFFFFFFF0
FFFFFFFFFFFFFFFFFFF0
FFFFFFFFFFFFFFFFFFF0
FFFFFFFFFFFFFFFFFFF0
FFFFFFFFFFFFFFFFFFF0
FFFFFFFFFFFFFFFFFFF0
FFFFFFFFFFFFFFFFFFF0
FFFFFFFFFFFFFFFFFFF0
FFFFFFFFFFFFFFFFFFF0
FFFFFFFFFFFFFFFFFFF0
FFFFFFFFFFFFFFFFFFF0
FFFFFFFFFFFFFFFFFFF0
ENDCHAR
STARTCHAR f
ENCODING 102
SWIDTH 705 0
DWIDTH 82 0
BBX 73 85 7 0
BITMAP
FFFFFFFFFFFFFFFFFF80
FFFFFFFFFFFFFFFFFF80
FFFFFFFFFFFFFFFFFF80
FFFFFFFFFFFFFFFFFF80
FFFFFFFFFFFFFFFFFF80
FFFFFFFFFFFFFFFFFF80
FFFFFFFFFFFFFFFFFF80
FFFFFFFFFFFFFFFFFF80
FFFFFFFFFFFFFFFFFF80
FFFFFFFFFFFFFFFFFF80
FFFFFFFFFFFFFFFFFF80
FFFFFFFFFFFFFFFFFF80
FFFFFFFFFFFFFFFFFF80
FFFFFFFFFFFFFFFFFF80
FFFFFFFFFFFFFFFFFF80
FFFE0000000000000000
FFFE0000000000000000
FFFE0000000000000000
FFFE0000000000000000
FFFE0000000000000000
FFFE0000000000000000
FFFE0000000000000000
FFFE0000000000000000
FFFE0000000000000000
FFFE0000000000000000
FFFE0000000000000000
FFFE0000000000000000
FFFE0000000000000000
FFFE0000000000000000
FFFE0000000000000000
FFFE0000000000000000
FFFE0000000000000000
FFFE0000000000000000
FFFE0000000000000000
FFFE0000000000000000
FFFE0000000000000000
FFFE0000000000000000
FFFE003FFFFFFFFFF800
FFFE003FFFFFFFFFF800
FFFE003FFFFFFFFFF800
FFFE003FFFFFFFFFF800
FFFE003FFFFFFFFFF800
FFFE003FFFFFFFFFF800
FFFE003FFFFFFFFFF800
FFFE003FFFFFFFFFF800
FFFE003FFFFFFFFFF800
FFFE003FFFFFFFFFF800
FFFE003FFFFFFFFFF800
FFFE003FFFFFFFFFF800
FFFE003FFFFFFFFFF800
FFFE0000000000000000
FFFE0000000000000000
FFFE0000000000000000
FFFE0000000000000000
FFFE0000000000000000
FFFE0000000000000000
FFFE0000000000000000
FFFE0000000000000000
FFFE0000000000000000
FFFE0000000000000000
FFFE0000000000000000
FFFE0000000000000000
FFFE0000000000000000
FFFE0000000000000000
FFFE0000000000000000
FFFE0000000000000000
FFFE0000000000000000
FFFE0000000000000000
FFFE0000000000000000
FFFE0000000000000000
FFFE0000000000000000
FFFE0000000000000000
FFFE0000000000000000
FFFE0000000000000000
FFFE0000000000000000
FFFE0000000000000000
FFFE0000000000000000
FFFE0000000000000000
FFFE0000000000000000
FFFE0000000000000000
FFFE0000000000000000
FFFE0000000000000000
FFFE0000000000000000
FFFE0000000000000000
FFFE0000000000000000
ENDCHAR
STARTCHAR g
ENCODING 103
SWIDTH 888 0
DWIDTH 104 0
BBX 93 85 5 0
BITMAP
000000003FFFFFFFFFFFFE00
00000007FFFFFFFFFFFFFE00
0000003FFFFFFFFFFFFFFE00
000000FFFFFFFFFFFFFFFE00
000007FFFFFFFFFFFFFFFE00
00000FFFFFFFFFFFFFFFFE00
00003FFFFFFFFFFFFFFFFE00
0000FFFFFFFFFFFFFFFFFE00
0001FFFFFFFFFFFFFFFFFE00
0003FFFFFFFFFFFFFFFFFE00
0007FFFFFFFFFFFFFFFFFE00
000FFFFFFFFFFFFFFFFFFE00
001FFFFFFFFFFFFFFFFFFE00
003FFFFFFFFFFFFFFFFFFE00
007FFFFFFFFFFFFFFFFFFE00
00FFFFFFE000000000000000
01FFFFFF0000000000000000
01FFFFF80000000000000000
03FFFFF00000000000000000
07FFFFC00000000000000000
07FFFF800000000000000000
0FFFFE000000000000000000
0FFFFC000000000000000000
1FFFF8000000000000000000
1FFFF8000000000000000000
1FFFF0000000000000000000
3FFFE0000000000000000000
3FFFE0000000000000000000
3FFFC0000000000000000000
7FFFC0000000000000000000
7FFF80000000000000000000
7FFF80000000000000000000
7FFF00000000000000000000
7FFF00000000000000000000
FFFF00000000000000000000
FFFE000001FFFFFFFFFFFFF8
FFFE000001FFFFFFFFFFFFF8
FFFE000001FFFFFFFFFFFFF8
FFFE000001FFFFFFFFFFFFF8
FFFE000001FFFFFFFFFFFFF8
FFFE000001FFFFFFFFFFFFF8
FFFE000001FFFFFFFFFFFFF8
FFFE000001FFFFFFFFFFFFF8
FFFE000001FFFFFFFFFFFFF8
FFFE000001FFFFFFFFFFFFF8
FFFE000001FFFFFFFFFFFFF8
FFFE000001FFFFFFFFFFFFF8
FFFE000001FFFFFFFFFFFFF8
FFFE0000000000000003FFF8
FFFF0000000000000003FFF8
7FFF0000000000000003FFF8
7FFF0000000000000003FFF8
7FFF0000000000000003FFF8
7FFF8000000000000003FFF8
3FFF8000000000000003FFF8
3FFFC000000000000003FFF8
3FFFC000000000000003FFF8
3FFFE000000000000003FFF8
1FFFE000000000000003FFF8
1FFFF000000000000003FFF8
0FFFF800000000000003FFF8
0FFFFC00000000000003FFF8
07FFFE00000000000003FFF8
07FFFF00000000000003FFF8
03FFFF80000000000003FFF8
03FFFFC0000000000003FFF8
01FFFFF0000000000003FFF8
00FFFFF8000000000003FFF8
00FFFFFF000000000003FFF8
007FFFFFE00000000003FFF8
003FFFFFFFFFFFFFFFFFFFF8
001FFFFFFFFFFFFFFFFFFFF8
000FFFFFFFFFFFFFFFFFFFF8
0007FFFFFFFFFFFFFFFFFFF8
0003FFFFFFFFFFFFFFFFFFF8
0001FFFFFFFFFFFFFFFFFFF8
0000FFFFFFFFFFFFFFFFFFF8
00007FFFFFFFFFFFFFFFFFF8
00001FFFFFFFFFFFFFFFFFF8
00000FFFFFFFFFFFFFFFFFF8
000003FFFFFFFFFFFFFFFFF8
000000FFFFFFFFFFFFFFFFF8
0000001FFFFFFFFFFFFFFFF8
00000003FFFFFFFFFFFFFFF8
000000003FFFFFFFFFFFFFF8
ENDCHAR
STARTCHAR h
ENCODING 104
SWIDTH 838 0
DWIDTH 98 0
BBX 84 85 7 0
BITMAP
FFFE00000000000007FFF0
FFFE00000000000007FFF0
FFFE00000000000007FFF0
FFFE00000000000007FFF0
FFFE00000000000007FFF0
FFFE00000000000007FFF0
FFFE00000000000007FFF0
FFFE00000000000007FFF0
FFFE00000000000007FFF0
FFFE00000000000007FFF0
FFFE00000000000007FFF0
FFFE00000000000007FFF0
FFFE00000000000007FFF0
FFFE00000000000007FFF0
FFFE00000000000007FFF0
FFFE00000000000007FFF0
FFFE00000000000007FFF0
FFFE00000000000007FFF0
FFFE00000000000007FFF0
FFFE00000000000007FFF0
FFFE00000000000007FFF0
FFFE00000000000007FFF0
FFFE00000000000007FFF0
FFFE00000000000007FFF0
FFFE00000000000007FFF0
FFFE00000000000007FFF0
FFFE00000000000007FFF0
FFFE00000000000007FFF0
FFFE00000000000007FFF0
FFFE00000000000007FFF0
FFFE00000000000007FFF0
FFFE00000000000007FFF0
FFFE00000000000007FFF0
FFFE00000000000007FFF0
FFFE00000000000007FFF0
FFFE003FFFFFFFFFFFFFF0
FFFE003FFFFFFFFFFFFFF0
FFFE003FFFFFFFFFFFFFF0
FFFE003FFFFFFFFFFFFFF0
FFFE003FFFFFFFFFFFFFF0
FFFE003FFFFFFFFFFFFFF0
FFFE003FFFFFFFFFFFFFF0
FFFE003FFFFFFFFFFFFFF0
FFFE003FFFFFFFFFFFFFF0
FFFE003FFFFFFFFFFFFFF0
FFFE003FFFFFFFFFFFFFF0
FFFE003FFFFFFFFFFFFFF0
FFFE003FFFFFFFFFFFFFF0
FFFE00000000000007FFF0
FFFE00000000000007FFF0
FFFE00000000000007FFF0
FFFE00000000000007FFF0
FFFE00000000000007FFF0
FFFE00000000000007FFF0
FFFE00000000000007FFF0
FFFE00000000000007FFF0
FFFE00000000000007FFF0
FFFE00000000000007FFF0
FFFE00000000000007FFF0
FFFE00000000000007FFF0
FFFE00000000000007FFF0
FFFE00000000000007FFF0
FFFE00000000000007FFF0
FFFE00000000000007FFF0
FFFE00000000000007FFF0
FFFE00000000000007FFF0
FFFE00000000000007FFF0
FFFE00000000000007FFF0
FFFE00000000000007FFF0
FFFE00000000000007FFF0
FFFE00000000000007FFF0
FFFE00000000000007FFF0
FFFE00000000000007FFF0
FFFE00000000000007FFF0
FFFE00000000000007FFF0
FFFE00000000000007FFF0
FFFE00000000000007FFF0
FFFE00000000000007FFF0
FFFE00000000000007FFF0
FFFE00000000000007FFF0
FFFE00000000000007FFF0
FFFE00000000000007FFF0
FFFE00000000000007FFF0
FFFE00000000000007FFF0
FFFE00000000000007FFF0
ENDCHAR
STARTCHAR i
ENCODING 105
SWIDTH 267 0
DWIDTH 31 0
BBX 15 85 8 0
BITMAP
FFFE
FFFE
FFFE
FFFE
FFFE
FFFE
FFFE
FFFE
FFFE
FFFE
FFFE
FFFE
FFFE
FFFE
FFFE
FFFE
FFFE
FFFE
FFFE
FFFE
FFFE
FFFE
FFFE
FFFE
FFFE
FFFE
FFFE
FFFE
FFFE
FFFE
FFFE
FFFE
FFFE
FFFE
FFFE
FFFE
FFFE
FFFE
FFFE
FFFE
FFFE
FFFE
FFFE
FFFE
FFFE
FFFE
FFFE
FFFE
FFFE
FFFE
FFFE
FFFE
FFFE
FFFE
FFFE
FFFE
FFFE
FFFE
FFFE
FFFE
FFFE
FFFE
FFFE
FFFE
FFFE
FFFE
FFFE
FFFE
FFFE
FFFE
FFFE
FFFE
FFFE
FFFE
FFFE
FFFE
FFFE
FFFE
FFFE
FFFE
FFFE
FFFE
FFFE
FFFE
FFFE
ENDCHAR
STARTCHAR j
ENCODING 106
SWIDTH 708 0
DWIDTH 83 0
BBX 74 85 3 0
BITMAP
000000000000001FFFC0
000000000000001FFFC0
000000000000001FFFC0
000000000000001FFFC0
000000000000001FFFC0
000000000000001FFFC0
000000000000001FFFC0
000000000000001FFFC0
000000000000001FFFC0
000000000000001FFFC0
000000000000001FFFC0
000000000000001FFFC0
000000000000001FFFC0
000000000000001FFFC0
000000000000001FFFC0
000000000000001FFFC0
000000000000001FFFC0
000000000000001FFFC0
000000000000001FFFC0
000000000000001FFFC0
000000000000001FFFC0
000000000000001FFFC0
000000000000001FFFC0
000000000000001FFFC0
000000000000001FFFC0
000000000000001FFFC0
000000000000001FFFC0
000000000000001FFFC0
000000000000001FFFC0
000000000000001FFFC0
000000000000001FFFC0
000000000000001FFFC0
000000000000001FFFC0
000000000000001FFFC0
000000000000001FFFC0
000000000000001FFFC0
000000000000001FFFC0
000000000000001FFFC0
000000000000001FFFC0
000000000000001FFFC0
000000000000001FFFC0
000000000000001FFFC0
000000000000001FFFC0
000000000000001FFFC0
000000000000001FFFC0
000000000000001FFFC0
000000000000001FFFC0
000000000000001FFFC0
000000000000001FFFC0
000000000000001FFFC0
000000000000001FFFC0
000000000000001FFFC0
000000000000003FFF80
000000000000003FFF80
000000000000003FFF80
000000000000003FFF80
000000000000007FFF80
000000000000007FFF80
000000000000007FFF80
00000000000000FFFF00
00000000000000FFFF00
00000000000001FFFF00
00000000000003FFFE00
00000000000007FFFE00
0000000000000FFFFE00
0000000000001FFFFC00
0000000000007FFFFC00
000000000001FFFFFC00
00000000000FFFFFF800
0000000000FFFFFFF000
FFFFFFFFFFFFFFFFF000
FFFFFFFFFFFFFFFFE000
FFFFFFFFFFFFFFFFC000
FFFFFFFFFFFFFFFF8000
FFFFFFFFFFFFFFFF0000
FFFFFFFFFFFFFFFE0000
FFFFFFFFFFFFFFFC0000
FFFFFFFFFFFFFFF80000
FFFFFFFFFFFFFFF00000
FFFFFFFFFFFFFFC00000
FFFFFFFFFFFFFF000000
FFFFFFFFFFFFF8000000
FFFFFFFFFFFFE0000000
FFFFFFFFFFFE00000000
FFFFFFFFFF0000000000
ENDCHAR
STARTCHAR k
ENCODING 107
SWIDTH 875 0
DWIDTH 102 0
BBX 93 85 7 0
BITMAP
FFFE0000000000000FFFFFE0
FFFE0000000000001FFFFF80
FFFE0000000000007FFFFF00
FFFE000000000000FFFFFE00
FFFE000000000001FFFFF800
FFFE000000000007FFFFF000
FFFE00000000000FFFFFE000
FFFE00000000001FFFFFC000
FFFE00000000007FFFFF0000
FFFE0000000000FFFFFE0000
FFFE0000000001FFFFFC0000
FFFE0000000003FFFFF00000
FFFE000000000FFFFFE00000
FFFE000000001FFFFFC00000
FFFE000000003FFFFF000000
FFFE00000000FFFFFE000000
FFFE00000001FFFFFC000000
FFFE00000003FFFFF0000000
FFFE0000000FFFFFE0000000
FFFE0000001FFFFFC0000000
FFFE0000003FFFFF00000000
FFFE0000007FFFFE00000000
FFFE000001FFFFFC00000000
FFFE000003FFFFF000000000
FFFE000007FFFFE000000000
FFFE00001FFFFFC000000000
FFFE00003FFFFF0000000000
FFFE00007FFFFE0000000000
FFFE0001FFFFFC0000000000
FFFE0003FFFFF00000000000
FFFE0007FFFFE00000000000
FFFE000FFFFFC00000000000
FFFE003FFFFF000000000000
FFFE007FFFFE000000000000
FFFE00FFFFFC000000000000
FFFE03FFFFF8000000000000
FFFE07FFFFE0000000000000
FFFE07FFFFC0000000000000
FFFE0FFFFF80000000000000
FFFE0FFFFE00000000000000
FFFE0FFFFC00000000000000
FFFE0FFFF800000000000000
FFFE0FFFF000000000000000
FFFE0FFFFC00000000000000
FFFE0FFFFE00000000000000
FFFE07FFFF00000000000000
FFFE03FFFFC0000000000000
FFFE01FFFFE0000000000000
FFFE00FFFFF0000000000000
FFFE007FFFFC000000000000
FFFE001FFFFE000000000000
FFFE000FFFFF000000000000
FFFE0007FFFFC00000000000
FFFE0003FFFFE00000000000
FFFE0000FFFFF00000000000
FFFE00007FFFFC0000000000
FFFE00003FFFFE0000000000
FFFE00001FFFFF0000000000
FFFE000007FFFFC000000000
FFFE000003FFFFE000000000
FFFE000001FFFFF000000000
FFFE0000007FFFFC00000000
FFFE0000003FFFFE00000000
FFFE0000001FFFFF00000000
FFFE0000000FFFFFC0000000
FFFE00000003FFFFE0000000
FFFE00000001FFFFF0000000
FFFE00000000FFFFFC000000
FFFE000000007FFFFE000000
FFFE000000001FFFFF000000
FFFE000000000FFFFFC00000
FFFE0000000007FFFFE00000
FFFE0000000001FFFFF00000
FFFE0000000000FFFFFC0000
FFFE00000000007FFFFE0000
FFFE00000000003FFFFF0000
FFFE00000000000FFFFFC000
FFFE000000000007FFFFE000
FFFE000000000003FFFFF000
FFFE000000000001FFFFFC00
FFFE0000000000007FFFFE00
FFFE0000000000003FFFFF00
FFFE0000000000001FFFFFC0
FFFE00000000000007FFFFE0
FFFE00000000000003FFFFF8
ENDCHAR
STARTCHAR l
ENCODING 108
SWIDTH 707 0
DWIDTH 83 0
BBX 72 85 7 0
BITMAP
FFFE00000000000000
FFFE00000000000000
FFFE00000000000000
FFFE00000000000000
FFFE00000000000000
FFFE00000000000000
FFFE00000000000000
FFFE00000000000000
FFFE00000000000000
FFFE00000000000000
FFFE00000000000000
FFFE00000000000000
FFFE00000000000000
FFFE00000000000000
FFFE00000000000000
FFFE00000000000000
FFFE00000000000000
FFFE00000000000000
FFFE00000000000000
FFFE00000000000000
FFFE00000000000000
FFFE00000000000000
FFFE00000000000000
FFFE00000000000000
FFFE00000000000000
FFFE00000000000000
FFFE00000000000000
FFFE00000000000000
FFFE00000000000000
FFFE00000000000000
FFFE00000000000000
FFFE00000000000000
FFFE00000000000000
FFFE00000000000000
FFFE00000000000000
FFFE00000000000000
FFFE00000000000000
FFFE00000000000000
FFFE00000000000000
FFFE00000000000000
FFFE00000000000000
FFFE00000000000000
FFFE00000000000000
FFFE00000000000000
FFFE00000000000000
FFFE00000000000000
FFFE00000000000000
FFFE00000000000000
FFFE00000000000000
FFFE00000000000000
FFFE00000000000000
FFFE00000000000000
FFFE00000000000000
FFFE00000000000000
FFFE00000000000000
FFFE00000000000000
FFFE00000000000000
FFFE00000000000000
FFFE00000000000000
FFFE00000000000000
FFFE00000000000000
FFFE00000000000000
FFFE00000000000000
FFFE00000000000000
FFFE00000000000000
FFFE00000000000000
FFFE00000000000000
FFFE00000000000000
FFFE00000000000000
FFFE00000000000000
FFFFFFFFFFFFFFFFFF
FFFFFFFFFFFFFFFFFF
FFFFFFFFFFFFFFFFFF
FFFFFFFFFFFFFFFFFF
FFFFFFFFFFFFFFFFFF
FFFFFFFFFFFFFFFFFF
FFFFFFFFFFFFFFFFFF
FFFFFFFFFFFFFFFFFF
FFFFFFFFFFFFFFFFFF
FFFFFFFFFFFFFFFFFF
FFFFFFFFFFFFFFFFFF
FFFFFFFFFFFFFFFFFF
FFFFFFFFFFFFFFFFFF
FFFFFFFFFFFFFFFFFF
FFFFFFFFFFFFFFFFFF
ENDCHAR
STARTCHAR m
ENCODING 109
SWIDTH 1115 0
DWIDTH 130 0
BBX 125 86 3 -1
BITMAP
0000003F0000000000000007E0000000
000000FFC00000000000001FF8000000
000001FFE00000000000003FFC000000
000001FFF00000000000003FFC000000
000003FFF00000000000007FFE000000
000003FFF80000000000007FFE000000
000003FFF8000000000000FFFE000000
000007FFFC000000000000FFFF000000
000007FFFC000000000001FFFF000000
000007FFFE000000000001FFFF000000
00000FFFFE000000000001FFFF000000
00000FFFFE000000000003FFFF800000
00000FFFFF000000000003FFFF800000
00000FFFFF000000000007FFFF800000
00001FFFFF800000000007FFFFC00000
00001FFFFF80000000000FFFFFC00000
00001FFFFFC0000000000FFFFFC00000
00003FFFFFC0000000001FFFFFC00000
00003FFFFFE0000000001FFFFFE00000
00003FFFFFE0000000001FFFFFE00000
00003FFFFFE0000000003FFFFFE00000
00007FFFFFF0000000003FFFFFF00000
00007FFFFFF0000000007FFFFFF00000
00007FFFFFF8000000007FFFFFF00000
00007FFFFFF800000000FFFFFFF00000
0000FFFFFFFC00000000FFFFFFF80000
0000FFFFFFFC00000001FFFFFFF80000
0000FFFDFFFC00000001FFFBFFF80000
0001FFFCFFFE00000001FFF9FFF80000
0001FFFCFFFE00000003FFF9FFFC0000
0001FFFC7FFF00000003FFF1FFFC0000
0001FFF87FFF00000007FFF1FFFC0000
0003FFF87FFF80000007FFE0FFFE0000
0003FFF83FFF8000000FFFE0FFFE0000
0003FFF03FFFC000000FFFC0FFFE0000
0003FFF01FFFC000001FFFC07FFE0000
0007FFF01FFFC000001FFF807FFF0000
0007FFF00FFFE000001FFF807FFF0000
0007FFE00FFFE000003FFF807FFF0000
000FFFE007FFF000003FFF003FFF0000
000FFFE007FFF000007FFF003FFF8000
000FFFC007FFF800007FFE003FFF8000
000FFFC003FFF80000FFFE001FFF8000
001FFFC003FFFC0000FFFC001FFFC000
001FFFC001FFFC0000FFFC001FFFC000
001FFF8001FFFC0001FFF8001FFFC000
003FFF8000FFFE0001FFF8000FFFC000
003FFF8000FFFE0003FFF8000FFFE000
003FFF80007FFF0003FFF0000FFFE000
003FFF00007FFF0007FFF0000FFFE000
007FFF00007FFF8007FFE00007FFE000
007FFF00003FFF800FFFE00007FFF000
007FFE00003FFFC00FFFC00007FFF000
007FFE00001FFFC00FFFC00003FFF000
00FFFE00001FFFC01FFF800003FFF800
00FFFE00000FFFE01FFF800003FFF800
00FFFC00000FFFE03FFF800003FFF800
01FFFC000007FFF03FFF000001FFF800
01FFFC000007FFF07FFF000001FFFC00
01FFF8000007FFF87FFE000001FFFC00
01FFF8000003FFF8FFFE000001FFFC00
03FFF8000003FFF8FFFC000000FFFE00
03FFF8000001FFFCFFFC000000FFFE00
03FFF0000001FFFDFFF8000000FFFE00
07FFF0000000FFFFFFF80000007FFE00
07FFF0000000FFFFFFF80000007FFF00
07FFF00000007FFFFFF00000007FFF00
07FFE00000007FFFFFF00000007FFF00
0FFFE00000007FFFFFE00000003FFF00
0FFFE00000003FFFFFE00000003FFF80
0FFFC00000003FFFFFC00000003FFF80
0FFFC00000001FFFFFC00000001FFF80
1FFFC00000001FFFFF800000001FFFC0
1FFFC00000000FFFFF800000001FFFC0
1FFF800000000FFFFF800000001FFFC0
3FFF800000000FFFFF000000000FFFC0
3FFF8000000007FFFF000000000FFFE0
3FFF8000000007FFFE000000000FFFE0
3FFF0000000003FFFE000000000FFFE0
7FFF0000000003FFFC0000000007FFE0
7FFF0000000001FFFC0000000007FFF0
7FFE0000000001FFF80000000007FFF0
FFFE0000000000FFF80000000003FFF0
FFFE00000000007FF00000000003FFF8
FFFE00000000003FE00000000003FFF8
000000000000001F8000000000000000
ENDCHAR
STARTCHAR n
ENCODING 110
SWIDTH 873 0
DWIDTH 102 0
BBX 88 85 7 0
BITMAP
07C0000000000000003FFF
1FF0000000000000003FFF
3FF8000000000000003FFF
7FFC000000000000003FFF
7FFE000000000000003FFF
FFFF800000000000003FFF
FFFFC00000000000003FFF
FFFFE00000000000003FFF
FFFFF00000000000003FFF
FFFFF80000000000003FFF
FFFFFC0000000000003FFF
FFFFFE0000000000003FFF
FFFFFF0000000000003FFF
FFFFFF8000000000003FFF
FFFFFFC000000000003FFF
FFFFFFE000000000003FFF
FFFFFFF000000000003FFF
FFFFFFF800000000003FFF
FFFFFFFC00000000003FFF
FFFFFFFE00000000003FFF
FFFFFFFF00000000003FFF
FFFFFFFF80000000003FFF
FFFFFFFFC0000000003FFF
FFFFFFFFE0000000003FFF
FFFDFFFFF0000000003FFF
FFFCFFFFF8000000003FFF
FFFC7FFFFC000000003FFF
FFFC3FFFFE000000003FFF
FFFC1FFFFF000000003FFF
FFFC0FFFFF800000003FFF
FFFC07FFFFC00000003FFF
FFFC03FFFFE00000003FFF
FFFC01FFFFF00000003FFF
FFFC00FFFFF80000003FFF
FFFC007FFFFC0000003FFF
FFFC003FFFFE0000003FFF
FFFC001FFFFF0000003FFF
FFFC000FFFFF8000003FFF
FFFC0007FFFFC000003FFF
FFFC0003FFFFE000003FFF
FFFC0001FFFFF000003FFF
FFFC0000FFFFF800003FFF
FFFC00007FFFFC00003FFF
FFFC00003FFFFE00003FFF
FFFC00001FFFFF00003FFF
FFFC000007FFFF80003FFF
FFFC000003FFFFC0003FFF
FFFC000001FFFFE0003FFF
FFFC000000FFFFF0003FFF
FFFC0000007FFFF8003FFF
FFFC0000003FFFFC003FFF
FFFC0000001FFFFE003FFF
FFFC0000000FFFFF003FFF
FFFC00000007FFFF803FFF
FFFC00000003FFFFC03FFF
FFFC00000001FFFFF03FFF
FFFC00000000FFFFF83FFF
FFFC000000007FFFFC3FFF
FFFC000000003FFFFE3FFF
FFFC000000001FFFFF3FFF
FFFC000000000FFFFFBFFF
FFFC0000000007FFFFFFFF
FFFC0000000003FFFFFFFF
FFFC0000000001FFFFFFFF
FFFC0000000000FFFFFFFF
FFFC00000000007FFFFFFF
FFFC00000000003FFFFFFF
FFFC00000000001FFFFFFF
FFFC00000000000FFFFFFF
FFFC000000000007FFFFFF
FFFC000000000003FFFFFF
FFFC000000000001FFFFFF
FFFC000000000000FFFFFF
FFFC0000000000007FFFFF
FFFC0000000000003FFFFF
FFFC0000000000001FFFFF
FFFC0000000000000FFFFF
FFFC00000000000007FFFF
FFFC00000000000003FFFF
FFFC00000000000001FFFF
FFFC00000000000000FFFE
FFFC000000000000003FFE
FFFC000000000000001FFC
FFFC000000000000000FF8
FFFC0000000000000003E0
ENDCHAR
STARTCHAR o
ENCODING 111
SWIDTH 968 0
DWIDTH 113 0
BBX 104 85 5 0
BITMAP
000000003FFFFFFFF800000000
00000007FFFFFFFFFFC0000000
0000003FFFFFFFFFFFF8000000
000000FFFFFFFFFFFFFF000000
000007FFFFFFFFFFFFFFC00000
00000FFFFFFFFFFFFFFFF00000
00003FFFFFFFFFFFFFFFFC0000
0000FFFFFFFFFFFFFFFFFE0000
0001FFFFFFFFFFFFFFFFFF8000
0003FFFFFFFFFFFFFFFFFFC000
0007FFFFFFFFFFFFFFFFFFE000
000FFFFFFFFFFFFFFFFFFFF000
001FFFFFFFFFFFFFFFFFFFF800
003FFFFFFFFFFFFFFFFFFFFC00
007FFFFFFFFFFFFFFFFFFFFE00
00FFFFFFE00000000FFFFFFE00
01FFFFFF0000000000FFFFFF00
01FFFFF800000000003FFFFF80
03FFFFF000000000000FFFFF80
07FFFFC0000000000007FFFFC0
07FFFF80000000000001FFFFE0
0FFFFE00000000000000FFFFE0
0FFFFC000000000000007FFFF0
1FFFF8000000000000003FFFF0
1FFFF8000000000000001FFFF0
1FFFF0000000000000000FFFF8
3FFFE0000000000000000FFFF8
3FFFE00000000000000007FFFC
3FFFC00000000000000007FFFC
7FFFC00000000000000003FFFC
7FFF800000000000000003FFFC
7FFF800000000000000001FFFE
7FFF000000000000000001FFFE
7FFF000000000000000001FFFE
FFFF000000000000000000FFFE
FFFE000000000000000000FFFE
FFFE000000000000000000FFFE
FFFE000000000000000000FFFE
FFFE000000000000000000FFFE
FFFE0000000000000000007FFF
FFFE0000000000000000007FFF
FFFE0000000000000000007FFF
FFFE0000000000000000007FFF
FFFE0000000000000000007FFF
FFFE0000000000000000007FFE
FFFE0000000000000000007FFE
FFFE000000000000000000FFFE
FFFE000000000000000000FFFE
FFFE000000000000000000FFFE
FFFF000000000000000000FFFE
7FFF000000000000000000FFFE
7FFF000000000000000001FFFE
7FFF000000000000000001FFFC
7FFF800000000000000001FFFC
3FFF800000000000000003FFFC
3FFFC00000000000000003FFFC
3FFFC00000000000000007FFF8
3FFFE00000000000000007FFF8
1FFFE0000000000000000FFFF8
1FFFF0000000000000001FFFF0
0FFFF8000000000000001FFFF0
0FFFFC000000000000003FFFE0
07FFFE000000000000007FFFE0
07FFFF00000000000000FFFFC0
03FFFF80000000000001FFFFC0
03FFFFC0000000000007FFFF80
01FFFFF000000000000FFFFF80
00FFFFF800000000003FFFFF00
00FFFFFF0000000000FFFFFE00
007FFFFFE00000000FFFFFFC00
003FFFFFFFFFFFFFFFFFFFFC00
001FFFFFFFFFFFFFFFFFFFF800
000FFFFFFFFFFFFFFFFFFFF000
0007FFFFFFFFFFFFFFFFFFE000
0003FFFFFFFFFFFFFFFFFFC000
0001FFFFFFFFFFFFFFFFFF8000
0000FFFFFFFFFFFFFFFFFE0000
00007FFFFFFFFFFFFFFFFC0000
00001FFFFFFFFFFFFFFFF80000
00000FFFFFFFFFFFFFFFE00000
000003FFFFFFFFFFFFFF800000
000000FFFFFFFFFFFFFE000000
0000001FFFFFFFFFFFF8000000
00000003FFFFFFFFFF80000000
000000003FFFFFFFF800000000
ENDCHAR
STARTCHAR p
ENCODING 112
SWIDTH 867 0
DWIDTH 101 0
BBX 91 85 7 0
BITMAP
FFFFFFFFFFFFFFFFE0000000
FFFFFFFFFFFFFFFFFE000000
FFFFFFFFFFFFFFFFFFC00000
FFFFFFFFFFFFFFFFFFF00000
FFFFFFFFFFFFFFFFFFFC0000
FFFFFFFFFFFFFFFFFFFF0000
FFFFFFFFFFFFFFFFFFFF8000
FFFFFFFFFFFFFFFFFFFFC000
FFFFFFFFFFFFFFFFFFFFE000
FFFFFFFFFFFFFFFFFFFFF000
FFFFFFFFFFFFFFFFFFFFF800
FFFFFFFFFFFFFFFFFFFFFC00
FFFFFFFFFFFFFFFFFFFFFC00
FFFFFFFFFFFFFFFFFFFFFE00
FFFFFFFFFFFFFFFFFFFFFF00
FFFE0000000000003FFFFF00
FFFE0000000000000FFFFF80
FFFE00000000000003FFFF80
FFFE00000000000000FFFF80
FFFE000000000000007FFFC0
FFFE000000000000003FFFC0
FFFE000000000000003FFFC0
FFFE000000000000001FFFC0
FFFE000000000000001FFFE0
FFFE000000000000000FFFE0
FFFE000000000000000FFFE0
FFFE000000000000000FFFE0
FFFE000000000000000FFFE0
FFFE0000000000000007FFE0
FFFE0000000000000007FFE0
FFFE0000000000000007FFE0
FFFE0000000000000007FFE0
FFFE0000000000000007FFE0
FFFE0000000000000007FFE0
FFFE000000000000000FFFE0
FFFE000000000000000FFFE0
FFFE000000000000000FFFE0
FFFE000000000000000FFFE0
FFFE000000000000001FFFE0
FFFE000000000000001FFFC0
FFFE000000000000003FFFC0
FFFE000000000000007FFFC0
FFFE00000000000000FFFF80
FFFE00000000000001FFFF80
FFFE00000000000003FFFF80
FFFE0000000000000FFFFF00
FFFE0000000000007FFFFF00
FFFE003FFFFFFFFFFFFFFE00
FFFE003FFFFFFFFFFFFFFE00
FFFE003FFFFFFFFFFFFFFC00
FFFE003FFFFFFFFFFFFFF800
FFFE003FFFFFFFFFFFFFF800
FFFE003FFFFFFFFFFFFFF000
FFFE003FFFFFFFFFFFFFE000
FFFE003FFFFFFFFFFFFFC000
FFFE003FFFFFFFFFFFFF8000
FFFE003FFFFFFFFFFFFE0000
FFFE003FFFFFFFFFFFFC0000
FFFE003FFFFFFFFFFFF00000
FFFE003FFFFFFFFFFF800000
FFFE003FFFFFFFFFFE000000
FFFE003FFFFFFFFF80000000
FFFE00000000000000000000
FFFE00000000000000000000
FFFE00000000000000000000
FFFE00000000000000000000
FFFE00000000000000000000
FFFE00000000000000000000
FFFE00000000000000000000
FFFE00000000000000000000
FFFE00000000000000000000
FFFE00000000000000000000
FFFE00000000000000000000
FFFE00000000000000000000
FFFE00000000000000000000
FFFE00000000000000000000
FFFE00000000000000000000
FFFE00000000000000000000
FFFE00000000000000000000
FFFE00000000000000000000
FFFE00000000000000000000
FFFE00000000000000000000
FFFE00000000000000000000
FFFE00000000000000000000
FFFE00000000000000000000
ENDCHAR
STARTCHAR q
ENCODING 113
SWIDTH 968 0
DWIDTH 113 0
BBX 108 85 5 0
BITMAP
000000003FFFFFFFF80000000000
00000007FFFFFFFFFFC000000000
0000003FFFFFFFFFFFF800000000
000000FFFFFFFFFFFFFF00000000
000007FFFFFFFFFFFFFFC0000000
00000FFFFFFFFFFFFFFFF0000000
00003FFFFFFFFFFFFFFFFC000000
0000FFFFFFFFFFFFFFFFFE000000
0001FFFFFFFFFFFFFFFFFF800000
0003FFFFFFFFFFFFFFFFFFC00000
0007FFFFFFFFFFFFFFFFFFE00000
000FFFFFFFFFFFFFFFFFFFF00000
001FFFFFFFFFFFFFFFFFFFF80000
003FFFFFFFFFFFFFFFFFFFFC0000
007FFFFFFFFFFFFFFFFFFFFE0000
00FFFFFFE00000000FFFFFFE0000
01FFFFFF0000000000FFFFFF0000
01FFFFF800000000003FFFFF8000
03FFFFF000000000000FFFFF8000
07FFFFC0000000000007FFFFC000
07FFFF80000000000001FFFFE000
0FFFFE00000000000000FFFFE000
0FFFFC000000000000007FFFF000
1FFFF8000000000000003FFFF000
1FFFF8000000000000001FFFF000
1FFFF0000000000000000FFFF800
3FFFE0000000000000000FFFF800
3FFFE00000000000000007FFFC00
3FFFC00000000000000007FFFC00
7FFFC00000000000000003FFFC00
7FFF800000000000000003FFFC00
7FFF800000000000000001FFFE00
7FFF000000000000000001FFFE00
7FFF000000000000000001FFFE00
FFFF000000000000000000FFFE00
FFFE000000000000000000FFFE00
FFFE000000000000000000FFFE00
FFFE000000000000000000FFFE00
FFFE000000000000000000FFFE00
FFFE0000000000000000007FFF00
FFFE0000000000000000007FFF00
FFFE0000000000000000007FFF00
FFFE0000000000000000007FFF00
FFFE0000000000000000007FFF00
FFFE0000000000000000007FFE00
FFFE0000000000000000007FFE00
FFFE000000000000000000FFFE00
FFFE000000000000000000FFFE00
FFFE000000000000000000FFFE00
FFFF000000000000000000FFFE00
7FFF00000007FFFF800000FFFE00
7FFF00000001FFFFC00001FFFE00
7FFF00000000FFFFE00001FFFC00
7FFF800000007FFFF80001FFFC00
3FFF800000001FFFFC0003FFFC00
3FFFC00000000FFFFE0003FFFC00
3FFFC000000007FFFF0007FFF800
3FFFE000000003FFFF8007FFF800
1FFFE000000000FFFFE00FFFF800
1FFFF0000000007FFFF01FFFF000
0FFFF8000000003FFFF81FFFF000
0FFFFC000000001FFFFC3FFFE000
07FFFE0000000007FFFE7FFFE000
07FFFF0000000003FFFFFFFFC000
03FFFF8000000001FFFFFFFFC000
03FFFFC0000000007FFFFFFF8000
01FFFFF0000000003FFFFFFF8000
00FFFFF8000000001FFFFFFF0000
00FFFFFF000000000FFFFFFE0000
007FFFFFE00000000FFFFFFC0000
003FFFFFFFFFFFFFFFFFFFFC0000
001FFFFFFFFFFFFFFFFFFFF80000
000FFFFFFFFFFFFFFFFFFFF00000
0007FFFFFFFFFFFFFFFFFFF80000
0003FFFFFFFFFFFFFFFFFFFC0000
0001FFFFFFFFFFFFFFFFFFFF0000
0000FFFFFFFFFFFFFFFFFFFF8000
00007FFFFFFFFFFFFFFFFFFFC000
00001FFFFFFFFFFFFFFFFFFFE000
00000FFFFFFFFFFFFFFFFFFFF800
000003FFFFFFFFFFFFFF9FFFFC00
000000FFFFFFFFFFFFFE0FFFFE00
0000001FFFFFFFFFFFF007FFFF80
00000003FFFFFFFFFF8003FFFFC0
000000003FFFFFFFF00001FFFFF0
ENDCHAR
STARTCHAR r
ENCODING 114
SWIDTH 921 0
DWIDTH 108 0
BBX 100 85 7 0
BITMAP
FFFFFFFFFFFFFFFFF000000000
FFFFFFFFFFFFFFFFFF00000000
FFFFFFFFFFFFFFFFFFE0000000
FFFFFFFFFFFFFFFFFFFC000000
FFFFFFFFFFFFFFFFFFFE000000
FFFFFFFFFFFFFFFFFFFF800000
FFFFFFFFFFFFFFFFFFFFC00000
FFFFFFFFFFFFFFFFFFFFE00000
FFFFFFFFFFFFFFFFFFFFF00000
FFFFFFFFFFFFFFFFFFFFF80000
FFFFFFFFFFFFFFFFFFFFFC0000
FFFFFFFFFFFFFFFFFFFFFE0000
FFFFFFFFFFFFFFFFFFFFFE0000
FFFFFFFFFFFFFFFFFFFFFF0000
FFFFFFFFFFFFFFFFFFFFFF8000
FFFE0000000000001FFFFF8000
FFFE00000000000003FFFFC000
FFFE00000000000000FFFFC000
FFFE000000000000007FFFC000
FFFE000000000000003FFFE000
FFFE000000000000001FFFE000
FFFE000000000000000FFFE000
FFFE000000000000000FFFE000
FFFE000000000000000FFFF000
FFFE0000000000000007FFF000
FFFE0000000000000007FFF000
FFFE0000000000000007FFF000
FFFE0000000000000007FFF000
FFFE0000000000000003FFF000
FFFE0000000000000003FFF000
FFFE0000000000000003FFF000
FFFE0000000000000003FFF000
FFFE0000000000000003FFF000
FFFE0000000000000003FFF000
FFFE0000000000000007FFF000
FFFE0000000000000007FFF000
FFFE0000000000000007FFF000
FFFE0000000000000007FFF000
FFFE0000000000000007FFF000
FFFE000000000000000FFFE000
FFFE000000000000000FFFE000
FFFE000000000000001FFFE000
FFFE000000000000001FFFE000
FFFE000000000000003FFFC000
FFFE000000000000007FFFC000
FFFE00000000000001FFFF8000
FFFE00000000000003FFFF8000
FFFE0000000000003FFFFF0000
FFFE003FFFFFFFFFFFFFFF0000
FFFE003FFFFFFFFFFFFFFE0000
FFFE003FFFFFFFFFFFFFFC0000
FFFE003FFFFFFFFFFFFFF80000
FFFE003FFFFFFFFFFFFFF80000
FFFE003FFFFFFFFFFFFFF00000
FFFE003FFFFFFFFFFFFFC00000
FFFE003FFFFFFFFFFFFF800000
FFFE003FFFFFFFFFFFFF000000
FFFE003FFFFFFFFFFFFC000000
FFFE003FFFFFFFFFFFF0000000
FFFE003FFFFFFFFFFFE0000000
FFFE003FFFFFFFFFFFF0000000
FFFE00000000003FFFF8000000
FFFE00000000001FFFFC000000
FFFE00000000000FFFFE000000
FFFE000000000007FFFF000000
FFFE000000000003FFFF800000
FFFE000000000001FFFFC00000
FFFE000000000000FFFFE00000
FFFE0000000000007FFFF00000
FFFE0000000000007FFFF80000
FFFE0000000000003FFFFC0000
FFFE0000000000001FFFFE0000
FFFE0000000000000FFFFF0000
FFFE00000000000007FFFF8000
FFFE00000000000003FFFFC000
FFFE00000000000001FFFFE000
FFFE00000000000000FFFFF000
FFFE000000000000007FFFF800
FFFE000000000000007FFFFC00
FFFE000000000000003FFFFE00
FFFE000000000000001FFFFF00
FFFE000000000000000FFFFF80
FFFE0000000000000007FFFFC0
FFFE0000000000000003FFFFE0
FFFE0000000000000001FFFFF0
ENDCHAR
STARTCHAR s
ENCODING 115
SWIDTH 880 0
DWIDTH 103 0
BBX 92 85 6 0
BITMAP
00000FFFFFFFFFFFFFFFFE00
0000FFFFFFFFFFFFFFFFFE00
0007FFFFFFFFFFFFFFFFFE00
001FFFFFFFFFFFFFFFFFFE00
003FFFFFFFFFFFFFFFFFFE00
00FFFFFFFFFFFFFFFFFFFE00
01FFFFFFFFFFFFFFFFFFFE00
03FFFFFFFFFFFFFFFFFFFE00
07FFFFFFFFFFFFFFFFFFFE00
0FFFFFFFFFFFFFFFFFFFFE00
0FFFFFFFFFFFFFFFFFFFFE00
1FFFFFFFFFFFFFFFFFFFFE00
1FFFFFFFFFFFFFFFFFFFFE00
3FFFFFFFFFFFFFFFFFFFFE00
3FFFFFFFFFFFFFFFFFFFFE00
7FFFFC000000000000000000
7FFFF0000000000000000000
7FFFC0000000000000000000
7FFF80000000000000000000
FFFF80000000000000000000
FFFF00000000000000000000
FFFF00000000000000000000
FFFF00000000000000000000
FFFF00000000000000000000
FFFF00000000000000000000
FFFF00000000000000000000
FFFF00000000000000000000
FFFF00000000000000000000
FFFF00000000000000000000
7FFF00000000000000000000
7FFF80000000000000000000
7FFFC0000000000000000000
7FFFE0000000000000000000
3FFFF0000000000000000000
3FFFFC000000000000000000
1FFFFFFFFFFFFFFFFF000000
1FFFFFFFFFFFFFFFFFF00000
0FFFFFFFFFFFFFFFFFFE0000
07FFFFFFFFFFFFFFFFFF8000
07FFFFFFFFFFFFFFFFFFE000
03FFFFFFFFFFFFFFFFFFF000
01FFFFFFFFFFFFFFFFFFF800
007FFFFFFFFFFFFFFFFFFC00
003FFFFFFFFFFFFFFFFFFE00
000FFFFFFFFFFFFFFFFFFF00
0003FFFFFFFFFFFFFFFFFF00
0000FFFFFFFFFFFFFFFFFF80
00000FFFFFFFFFFFFFFFFF80
000000000000000003FFFFC0
000000000000000000FFFFC0
0000000000000000003FFFC0
0000000000000000001FFFE0
0000000000000000000FFFE0
0000000000000000000FFFE0
00000000000000000007FFE0
00000000000000000007FFE0
00000000000000000007FFE0
00000000000000000007FFE0
00000000000000000003FFF0
00000000000000000003FFF0
00000000000000000007FFF0
00000000000000000007FFF0
00000000000000000007FFE0
00000000000000000007FFE0
0000000000000000000FFFE0
0000000000000000000FFFE0
0000000000000000001FFFE0
0000000000000000003FFFE0
000000000000000000FFFFC0
000000000000000003FFFFC0
7FFFFFFFFFFFFFFFFFFFFFC0
7FFFFFFFFFFFFFFFFFFFFF80
7FFFFFFFFFFFFFFFFFFFFF80
7FFFFFFFFFFFFFFFFFFFFF00
7FFFFFFFFFFFFFFFFFFFFF00
7FFFFFFFFFFFFFFFFFFFFE00
7FFFFFFFFFFFFFFFFFFFFC00
7FFFFFFFFFFFFFFFFFFFF800
7FFFFFFFFFFFFFFFFFFFF000
7FFFFFFFFFFFFFFFFFFFE000
7FFFFFFFFFFFFFFFFFFFC000
7FFFFFFFFFFFFFFFFFFF0000
7FFFFFFFFFFFFFFFFFFC0000
7FFFFFFFFFFFFFFFFFF00000
7FFFFFFFFFFFFFFFFE000000
ENDCHAR
STARTCHAR t
ENCODING 116
SWIDTH 720 0
DWIDTH 84 0
BBX 80 85 2 0
BITMAP
FFFFFFFFFFFFFFFFFFFF
FFFFFFFFFFFFFFFFFFFF
FFFFFFFFFFFFFFFFFFFF
FFFFFFFFFFFFFFFFFFFF
FFFFFFFFFFFFFFFFFFFF
FFFFFFFFFFFFFFFFFFFF
FFFFFFFFFFFFFFFFFFFF
FFFFFFFFFFFFFFFFFFFF
FFFFFFFFFFFFFFFFFFFF
FFFFFFFFFFFFFFFFFFFF
FFFFFFFFFFFFFFFFFFFF
FFFFFFFFFFFFFFFFFFFF
FFFFFFFFFFFFFFFFFFFF
FFFFFFFFFFFFFFFFFFFF
FFFFFFFFFFFFFFFFFFFF
000000007FFE00000000
000000007FFE00000000
000000007FFE00000000
000000007FFE00000000
000000007FFE00000000
000000007FFE00000000
000000007FFE00000000
000000007FFE00000000
000000007FFE00000000
000000007FFE00000000
000000007FFE00000000
000000007FFE00000000
000000007FFE00000000
000000007FFE00000000
000000007FFE00000000
000000007FFE00000000
000000007FFE00000000
000000007FFE00000000
000000007FFE00000000
000000007FFE00000000
000000007FFE00000000
000000007FFE00000000
000000007FFE00000000
000000007FFE00000000
000000007FFE00000000
000000007FFE00000000
000000007FFE00000000
000000007FFE00000000
000000007FFE00000000
000000007FFE00000000
000000007FFE00000000
000000007FFE00000000
000000007FFE00000000
000000007FFE00000000
000000007FFE00000000
000000007FFE00000000
000000007FFE00000000
000000007FFE00000000
000000007FFE00000000
000000007FFE00000000
000000007FFE00000000
000000007FFE00000000
000000007FFE00000000
000000007FFE00000000
000000007FFE00000000
000000007FFE00000000
000000007FFE00000000
000000007FFE00000000
000000007FFE00000000
000000007FFE00000000
000000007FFE00000000
000000007FFE00000000
000000007FFE00000000
000000007FFE00000000
000000007FFE00000000
000000007FFE00000000
000000007FFE00000000
000000007FFE00000000
000000007FFE00000000
000000007FFE00000000
000000007FFE00000000
000000007FFE00000000
000000007FFE00000000
000000007FFE00000000
000000007FFE00000000
000000007FFE00000000
000000007FFE00000000
000000007FFE00000000
000000007FFE00000000
000000007FFE00000000
ENDCHAR
STARTCHAR u
ENCODING 117
SWIDTH 889 0
DWIDTH 104 0
BBX 92 86 6 -1
BITMAP
FFFE0000000000000007FFF0
FFFE0000000000000007FFF0
FFFE0000000000000007FFF0
FFFE0000000000000007FFF0
FFFE0000000000000007FFF0
FFFE0000000000000007FFF0
FFFE0000000000000007FFF0
FFFE0000000000000007FFF0
FFFE0000000000000007FFF0
FFFE0000000000000007FFF0
FFFE0000000000000007FFF0
FFFE0000000000000007FFF0
FFFE0000000000000007FFF0
FFFE0000000000000007FFF0
FFFE0000000000000007FFF0
FFFE0000000000000007FFF0
FFFE0000000000000007FFF0
FFFE0000000000000007FFF0
FFFE0000000000000007FFF0
FFFE0000000000000007FFF0
FFFE0000000000000007FFF0
FFFE0000000000000007FFF0
FFFE0000000000000007FFF0
FFFE0000000000000007FFF0
FFFE0000000000000007FFF0
FFFE0000000000000007FFF0
FFFE0000000000000007FFF0
FFFE0000000000000007FFF0
FFFE0000000000000007FFF0
FFFE0000000000000007FFF0
FFFE0000000000000007FFF0
FFFE0000000000000007FFF0
FFFE0000000000000007FFF0
FFFE0000000000000007FFF0
FFFE0000000000000007FFF0
FFFE0000000000000007FFF0
FFFE0000000000000007FFF0
FFFE0000000000000007FFF0
FFFE0000000000000007FFF0
FFFE0000000000000007FFF0
FFFE0000000000000007FFF0
FFFE0000000000000007FFF0
FFFE0000000000000007FFF0
FFFE0000000000000007FFF0
FFFE0000000000000007FFF0
FFFE0000000000000007FFF0
FFFE0000000000000007FFF0
FFFE0000000000000007FFF0
FFFE0000000000000007FFF0
FFFE0000000000000007FFF0
FFFF0000000000000007FFF0
FFFF0000000000000007FFF0
FFFF0000000000000007FFF0
FFFF0000000000000007FFF0
FFFF0000000000000007FFF0
7FFF0000000000000007FFE0
7FFF000000000000000FFFE0
7FFF800000000000000FFFE0
7FFF800000000000000FFFE0
7FFFC00000000000001FFFE0
7FFFC00000000000001FFFC0
3FFFE00000000000003FFFC0
3FFFE00000000000003FFFC0
3FFFF00000000000007FFFC0
1FFFF8000000000000FFFF80
1FFFFC000000000001FFFF80
1FFFFE000000000007FFFF80
0FFFFF80000000000FFFFF00
0FFFFFE0000000003FFFFF00
07FFFFFC00000003FFFFFE00
03FFFFFFF000007FFFFFFC00
03FFFFFFFFFFFFFFFFFFFC00
01FFFFFFFFFFFFFFFFFFF800
00FFFFFFFFFFFFFFFFFFF000
007FFFFFFFFFFFFFFFFFE000
003FFFFFFFFFFFFFFFFFC000
001FFFFFFFFFFFFFFFFF8000
000FFFFFFFFFFFFFFFFF0000
0007FFFFFFFFFFFFFFFE0000
0001FFFFFFFFFFFFFFF80000
00007FFFFFFFFFFFFFE00000
00001FFFFFFFFFFFFF800000
000007FFFFFFFFFFFE000000
000000FFFFFFFFFFF0000000
0000000FFFFFFFFE00000000
000000000FFFFF0000000000
ENDCHAR
STARTCHAR v
ENCODING 118
SWIDTH 989 0
DWIDTH 116 0
BBX 112 86 2 -1
BITMAP
FFFFC0000000000000000001FFFF
7FFFE0000000000000000003FFFE
7FFFE0000000000000000007FFFC
3FFFF0000000000000000007FFFC
3FFFF000000000000000000FFFF8
1FFFF800000000000000000FFFF8
0FFFFC00000000000000001FFFF0
0FFFFC00000000000000003FFFE0
07FFFE00000000000000003FFFE0
07FFFE00000000000000007FFFC0
03FFFF00000000000000007FFFC0
01FFFF8000000000000000FFFF80
01FFFF8000000000000000FFFF00
00FFFFC000000000000001FFFF00
00FFFFC000000000000003FFFE00
007FFFE000000000000003FFFE00
003FFFE000000000000007FFFC00
003FFFF000000000000007FFF800
001FFFF80000000000000FFFF800
001FFFF80000000000001FFFF000
000FFFFC0000000000001FFFF000
0007FFFC0000000000003FFFE000
0007FFFE0000000000003FFFC000
0003FFFF0000000000007FFFC000
0003FFFF000000000000FFFF8000
0001FFFF800000000000FFFF8000
0000FFFF800000000001FFFF0000
0000FFFFC00000000001FFFE0000
00007FFFE00000000003FFFE0000
00007FFFE00000000003FFFC0000
00003FFFF00000000007FFFC0000
00001FFFF0000000000FFFF80000
00001FFFF8000000000FFFF00000
00000FFFF8000000001FFFF00000
00000FFFFC000000001FFFE00000
000007FFFE000000003FFFE00000
000003FFFE000000007FFFC00000
000003FFFF000000007FFF800000
000001FFFF00000000FFFF800000
000001FFFF80000000FFFF000000
000000FFFFC0000001FFFF000000
0000007FFFC0000001FFFE000000
0000007FFFE0000003FFFC000000
0000003FFFE0000007FFFC000000
0000003FFFF0000007FFF8000000
0000001FFFF800000FFFF8000000
0000000FFFF800000FFFF0000000
0000000FFFFC00001FFFE0000000
00000007FFFC00003FFFE0000000
00000007FFFE00003FFFC0000000
00000003FFFE00007FFF80000000
00000001FFFF00007FFF80000000
00000001FFFF8000FFFF00000000
00000000FFFF8001FFFF00000000
00000000FFFFC001FFFE00000000
000000007FFFC003FFFC00000000
000000003FFFE003FFFC00000000
000000003FFFF007FFF800000000
000000001FFFF007FFF800000000
000000001FFFF80FFFF000000000
000000000FFFF81FFFE000000000
0000000007FFFC1FFFE000000000
0000000007FFFE3FFFC000000000
0000000003FFFE3FFFC000000000
0000000003FFFF7FFF8000000000
0000000001FFFFFFFF0000000000
0000000000FFFFFFFF0000000000
0000000000FFFFFFFE0000000000
00000000007FFFFFFE0000000000
00000000007FFFFFFC0000000000
00000000003FFFFFF80000000000
00000000001FFFFFF80000000000
00000000001FFFFFF00000000000
00000000000FFFFFF00000000000
00000000000FFFFFE00000000000
000000000007FFFFC00000000000
000000000003FFFFC00000000000
000000000003FFFF800000000000
000000000001FFFF800000000000
000000000000FFFF000000000000
000000000000FFFE000000000000
0000000000007FFE000000000000
0000000000007FFC000000000000
0000000000003FF8000000000000
0000000000001FF0000000000000
00000000000007C0000000000000
ENDCHAR
STARTCHAR w
ENCODING 119
SWIDTH 1268 0
DWIDTH 148 0
BBX 145 86 2 -1
BITMAP
FFFFC000001FFFF80000000000000000FFFF80
FFFFC000001FFFF80000000000000001FFFF00
7FFFE000000FFFFC0000000000000001FFFE00
3FFFE000000FFFFC0000000000000003FFFE00
3FFFF0000007FFFE0000000000000003FFFC00
1FFFF0000007FFFE0000000000000007FFFC00
1FFFF8000003FFFF0000000000000007FFF800
0FFFF8000003FFFF000000000000000FFFF800
0FFFFC000001FFFF800000000000001FFFF000
07FFFC000001FFFF800000000000001FFFE000
07FFFE000000FFFFC00000000000003FFFE000
03FFFE0000007FFFC00000000000003FFFC000
03FFFF0000007FFFE00000000000007FFFC000
01FFFF8000003FFFE00000000000007FFF8000
01FFFF8000003FFFF0000000000000FFFF8000
00FFFFC000001FFFF0000000000000FFFF0000
007FFFC000001FFFF8000000000001FFFF0000
007FFFE000000FFFF8000000000001FFFE0000
003FFFE000000FFFFC000000000003FFFE0000
003FFFF0000007FFFC000000000003FFFC0000
001FFFF0000007FFFE000000000007FFFC0000
001FFFF8000003FFFE000000000007FFF80000
000FFFF8000003FFFF00000000000FFFF00000
000FFFFC000001FFFF00000000000FFFF00000
0007FFFC000001FFFF80000000001FFFE00000
0007FFFE000000FFFF80000000003FFFE00000
0003FFFE000000FFFFC0000000003FFFC00000
0001FFFF0000007FFFC0000000007FFFC00000
0001FFFF0000007FFFE0000000007FFF800000
0000FFFF8000003FFFE000000000FFFF800000
0000FFFF8000003FFFF000000000FFFF000000
00007FFFC000001FFFF000000001FFFF000000
00007FFFC000001FFFF800000001FFFE000000
00003FFFE000000FFFF800000003FFFC000000
00003FFFF000000FFFFC00000003FFFC000000
00001FFFF0000007FFFC00000007FFF8000000
00001FFFF8000007FFFE00000007FFF8000000
00000FFFF8000003FFFE0000000FFFF0000000
00000FFFFC000001FFFF0000000FFFF0000000
000007FFFC000001FFFF0000001FFFE0000000
000003FFFE000000FFFF8000001FFFE0000000
000003FFFE000000FFFF8000003FFFC0000000
000001FFFF0000007FFFC000003FFFC0000000
000001FFFF000000FFFFC000007FFF80000000
000000FFFF800000FFFFE00000FFFF80000000
000000FFFF800001FFFFE00000FFFF00000000
0000007FFFC00001FFFFF00001FFFE00000000
0000007FFFC00003FFFFF00001FFFE00000000
0000003FFFE00007FFFFF80003FFFC00000000
0000003FFFE00007FFFFF80003FFFC00000000
0000001FFFF0000FFFFFFC0007FFF800000000
0000001FFFF0000FFFFFFC0007FFF800000000
0000000FFFF8001FFFFFFE000FFFF000000000
00000007FFFC001FFFFFFE000FFFF000000000
00000007FFFC003FFFFFFF001FFFE000000000
00000003FFFE007FFFFFFF001FFFE000000000
00000003FFFE007FFFFFFF803FFFC000000000
00000001FFFF00FFFF7FFF803FFFC000000000
00000001FFFF00FFFE7FFFC07FFF8000000000
00000000FFFF81FFFE3FFFC07FFF0000000000
00000000FFFF81FFFC3FFFE0FFFF0000000000
000000007FFFC3FFFC1FFFE1FFFE0000000000
000000007FFFC7FFF81FFFF1FFFE0000000000
000000003FFFE7FFF80FFFF3FFFC0000000000
000000001FFFEFFFF00FFFFBFFFC0000000000
000000001FFFFFFFF007FFFFFFF80000000000
000000000FFFFFFFE007FFFFFFF80000000000
000000000FFFFFFFC003FFFFFFF00000000000
0000000007FFFFFFC003FFFFFFF00000000000
0000000007FFFFFF8001FFFFFFE00000000000
0000000003FFFFFF8001FFFFFFC00000000000
0000000003FFFFFF0000FFFFFFC00000000000
0000000001FFFFFF00007FFFFF800000000000
0000000001FFFFFE00007FFFFF800000000000
0000000000FFFFFE00003FFFFF000000000000
0000000000FFFFFC00003FFFFF000000000000
00000000007FFFFC00001FFFFE000000000000
00000000003FFFF800001FFFFE000000000000
00000000003FFFF800000FFFFC000000000000
00000000001FFFF000000FFFFC000000000000
00000000001FFFE0000007FFF8000000000000
00000000000FFFE0000007FFF8000000000000
00000000000FFFC0000003FFF0000000000000
000000000007FF80000001FFE0000000000000
000000000003FF00000000FFC0000000000000
000000000000FC000000003F00000000000000
ENDCHAR
STARTCHAR x
ENCODING 120
SWIDTH 1000 0
DWIDTH 117 0
BBX 111 85 3 0
BITMAP
1FFFFF0000000000000001FFFFE0
0FFFFF8000000000000003FFFF80
07FFFFC000000000000007FFFF00
03FFFFE00000000000000FFFFE00
01FFFFF00000000000001FFFFC00
00FFFFF80000000000003FFFF800
007FFFFC0000000000007FFFF000
003FFFFE000000000000FFFFE000
000FFFFF000000000001FFFFC000
0007FFFF800000000003FFFF8000
0003FFFFC00000000007FFFF0000
0001FFFFE0000000000FFFFE0000
0000FFFFF0000000001FFFFC0000
00007FFFF8000000003FFFF80000
00003FFFFC000000007FFFF00000
00001FFFFE00000000FFFFE00000
00000FFFFF00000001FFFFC00000
000007FFFF80000003FFFF800000
000003FFFFC0000007FFFF000000
000001FFFFE000000FFFFE000000
000000FFFFF000001FFFFC000000
0000007FFFF800003FFFF8000000
0000003FFFFC00007FFFF0000000
0000001FFFFE0000FFFFE0000000
0000000FFFFF0001FFFFC0000000
00000007FFFF8003FFFF80000000
00000003FFFFC007FFFF00000000
00000001FFFFE00FFFFE00000000
00000000FFFFF01FFFFC00000000
000000007FFFF83FFFF800000000
000000003FFFFC7FFFF000000000
000000001FFFFEFFFFE000000000
000000000FFFFFFFFFC000000000
0000000007FFFFFFFF8000000000
0000000003FFFFFFFF0000000000
0000000001FFFFFFFE0000000000
0000000000FFFFFFFC0000000000
00000000007FFFFFF80000000000
00000000003FFFFFF00000000000
00000000001FFFFFE00000000000
00000000000FFFFFC00000000000
000000000007FFFF800000000000
00000000000FFFFFC00000000000
00000000001FFFFFE00000000000
00000000003FFFFFF00000000000
00000000007FFFFFF80000000000
0000000000FFFFFFFC0000000000
0000000001FFFFFFFE0000000000
0000000003FFFFFFFF0000000000
0000000007FFFFFFFF8000000000
000000000FFFFFFFFFC000000000
000000001FFFFDFFFFE000000000
000000003FFFF0FFFFF000000000
000000007FFFE07FFFF800000000
00000000FFFFC03FFFFC00000000
00000003FFFF801FFFFE00000000
00000007FFFF000FFFFF80000000
0000000FFFFE0007FFFFC0000000
0000001FFFFC0003FFFFE0000000
0000003FFFF80001FFFFF0000000
0000007FFFF00000FFFFF8000000
000000FFFFE000007FFFFC000000
000001FFFFC000003FFFFE000000
000003FFFF8000001FFFFF000000
000007FFFF0000000FFFFF800000
00000FFFFE00000003FFFFC00000
00001FFFFC00000001FFFFE00000
00003FFFF800000000FFFFF00000
00007FFFF0000000007FFFF80000
0000FFFFE0000000003FFFFC0000
0001FFFFC0000000001FFFFE0000
0003FFFF80000000000FFFFF0000
0007FFFF000000000007FFFF8000
000FFFFE000000000003FFFFE000
001FFFFC000000000001FFFFF000
003FFFF8000000000000FFFFF800
00FFFFF00000000000007FFFFC00
01FFFFE00000000000003FFFFE00
03FFFFC00000000000001FFFFF00
07FFFF800000000000000FFFFF80
0FFFFF0000000000000007FFFFC0
1FFFFE0000000000000003FFFFE0
3FFFF80000000000000001FFFFF0
7FFFF00000000000000000FFFFF8
FFFFE000000000000000007FFFFE
ENDCHAR
STARTCHAR y
ENCODING 121
SWIDTH 926 0
DWIDTH 108 0
BBX 105 85 2 0
BITMAP
FFFFF00000000000000007FFFF80
7FFFF80000000000000007FFFF00
3FFFFC000000000000000FFFFE00
3FFFFC000000000000001FFFFC00
1FFFFE000000000000003FFFF800
0FFFFF000000000000007FFFF000
07FFFF80000000000000FFFFE000
03FFFFC0000000000000FFFFC000
01FFFFE0000000000001FFFFC000
00FFFFE0000000000003FFFF8000
00FFFFF0000000000007FFFF0000
007FFFF800000000000FFFFE0000
003FFFFC00000000001FFFFC0000
001FFFFE00000000001FFFF80000
000FFFFF00000000003FFFF80000
0007FFFF00000000007FFFF00000
0003FFFF8000000000FFFFE00000
0003FFFFC000000001FFFFC00000
0001FFFFE000000003FFFF800000
0000FFFFF000000003FFFF000000
00007FFFF800000007FFFE000000
00003FFFF80000000FFFFE000000
00001FFFFC0000001FFFFC000000
00001FFFFE0000003FFFF8000000
00000FFFFF0000007FFFF0000000
000007FFFF8000007FFFE0000000
000003FFFFC00000FFFFC0000000
000001FFFFC00001FFFF80000000
000000FFFFE00003FFFF80000000
0000007FFFF00007FFFF00000000
0000007FFFF8000FFFFE00000000
0000003FFFFC000FFFFC00000000
0000001FFFFE001FFFF800000000
0000000FFFFE003FFFF000000000
00000007FFFF007FFFE000000000
00000003FFFF80FFFFE000000000
00000003FFFFC1FFFFC000000000
00000001FFFFE1FFFF8000000000
00000000FFFFF3FFFF0000000000
000000007FFFF7FFFE0000000000
000000003FFFFFFFFC0000000000
000000001FFFFFFFFC0000000000
000000000FFFFFFFF80000000000
000000000FFFFFFFF00000000000
0000000007FFFFFFE00000000000
0000000003FFFFFFC00000000000
0000000001FFFFFF800000000000
0000000000FFFFFF000000000000
00000000007FFFFF000000000000
00000000003FFFFE000000000000
00000000003FFFFC000000000000
00000000001FFFF8000000000000
00000000000FFFF0000000000000
000000000007FFF0000000000000
000000000007FFF0000000000000
000000000007FFF0000000000000
000000000007FFF0000000000000
000000000007FFF0000000000000
000000000007FFF0000000000000
000000000007FFF0000000000000
000000000007FFF0000000000000
000000000007FFF0000000000000
000000000007FFF0000000000000
000000000007FFF0000000000000
000000000007FFF0000000000000
000000000007FFF0000000000000
000000000007FFF0000000000000
000000000007FFF0000000000000
000000000007FFF0000000000000
000000000007FFF0000000000000
000000000007FFF0000000000000
000000000007FFF0000000000000
000000000007FFF0000000000000
000000000007FFF0000000000000
000000000007FFF0000000000000
000000000007FFF0000000000000
000000000007FFF0000000000000
000000000007FFF0000000000000
000000000007FFF0000000000000
000000000007FFF0000000000000
000000000007FFF0000000000000
000000000007FFF0000000000000
000000000007FFF0000000000000
000000000007FFF0000000000000
000000000007FFF0000000000000
ENDCHAR
STARTCHAR z
ENCODING 122
SWIDTH 802 0
DWIDTH 94 0
BBX 84 85 5 0
BITMAP
7FFFFFFFFFFFFFFFFFFC00
7FFFFFFFFFFFFFFFFFFF00
7FFFFFFFFFFFFFFFFFFFC0
7FFFFFFFFFFFFFFFFFFFC0
7FFFFFFFFFFFFFFFFFFFE0
7FFFFFFFFFFFFFFFFFFFE0
7FFFFFFFFFFFFFFFFFFFE0
7FFFFFFFFFFFFFFFFFFFF0
7FFFFFFFFFFFFFFFFFFFF0
7FFFFFFFFFFFFFFFFFFFE0
7FFFFFFFFFFFFFFFFFFFE0
7FFFFFFFFFFFFFFFFFFFC0
7FFFFFFFFFFFFFFFFFFFC0
7FFFFFFFFFFFFFFFFFFF80
000000000000001FFFFF00
000000000000003FFFFE00
000000000000007FFFFC00
00000000000000FFFFF800
00000000000001FFFFF000
00000000000003FFFFE000
00000000000007FFFFC000
0000000000000FFFFF8000
0000000000001FFFFF0000
0000000000003FFFFE0000
0000000000007FFFFC0000
000000000000FFFFF80000
000000000001FFFFF00000
000000000003FFFFE00000
000000000007FFFFC00000
00000000000FFFFF800000
00000000001FFFFF000000
00000000003FFFFE000000
00000000007FFFFC000000
0000000000FFFFF8000000
0000000001FFFFF0000000
0000000003FFFFE0000000
0000000007FFFFC0000000
000000000FFFFF80000000
000000001FFFFF00000000
000000003FFFFE00000000
000000007FFFFC00000000
00000000FFFFF800000000
00000001FFFFF000000000
00000003FFFFE000000000
00000007FFFFC000000000
0000000FFFFF8000000000
0000001FFFFF0000000000
0000003FFFFE0000000000
0000007FFFFC0000000000
000000FFFFF80000000000
000001FFFFF00000000000
000003FFFFE00000000000
000007FFFFC00000000000
00000FFFFF800000000000
00001FFFFF000000000000
00003FFFFE000000000000
00007FFFFC000000000000
0000FFFFF8000000000000
0001FFFFF0000000000000
0003FFFFE0000000000000
0007FFFFC0000000000000
000FFFFF80000000000000
001FFFFF00000000000000
003FFFFE00000000000000
007FFFFC00000000000000
00FFFFF800000000000000
01FFFFF000000000000000
03FFFFE000000000000000
07FFFFE000000000000000
0FFFFFC000000000000000
1FFFFF8000000000000000
3FFFFFFFFFFFFFFFFFFFE0
7FFFFFFFFFFFFFFFFFFFE0
7FFFFFFFFFFFFFFFFFFFE0
FFFFFFFFFFFFFFFFFFFFE0
FFFFFFFFFFFFFFFFFFFFE0
FFFFFFFFFFFFFFFFFFFFE0
FFFFFFFFFFFFFFFFFFFFE0
FFFFFFFFFFFFFFFFFFFFE0
FFFFFFFFFFFFFFFFFFFFE0
FFFFFFFFFFFFFFFFFFFFE0
7FFFFFFFFFFFFFFFFFFFE0
3FFFFFFFFFFFFFFFFFFFE0
1FFFFFFFFFFFFFFFFFFFE0
07FFFFFFFFFFFFFFFFFFE0
ENDCHAR
STARTCHAR braceleft
ENCODING 123
SWIDTH 337 0
DWIDTH 39 0
BBX 25 107 7 -10
BITMAP
0001FF80
0007FF80
001FFF80
003FFF80
007FFF80
00FFFF80
00FFFF80
01FFFF80
01FFF800
01FFE000
03FFC000
03FF8000
03FF8000
03FF0000
03FF0000
03FF0000
03FF0000
03FF0000
03FF0000
03FF0000
03FF0000
03FF0000
03FF0000
03FF0000
03FF0000
03FF0000
03FF0000
03FF0000
03FF0000
03FF0000
03FF0000
03FF0000
03FF0000
03FF0000
03FF0000
03FF0000
03FF0000
03FF0000
03FF0000
03FF0000
03FF0000
03FF0000
03FF0000
03FF0000
03FF0000
03FF0000
03FF0000
03FF0000
03FF0000
0FFE0000
FFFE0000
FFFE0000
FFFC0000
FFF80000
FFF00000
FFFC0000
FFFE0000
FFFE0000
0FFE0000
03FF0000
03FF0000
03FF0000
03FF0000
03FF0000
03FF0000
03FF0000
03FF0000
03FF0000
03FF0000
03FF0000
03FF0000
03FF0000
03FF0000
03FF0000
03FF0000
03FF0000
03FF0000
03FF0000
03FF0000
03FF0000
03FF0000
03FF0000
03FF0000
03FF0000
03FF0000
03FF0000
03FF0000
03FF0000
03FF0000
03FF0000
03FF0000
03FF0000
03FF0000
03FF0000
03FF0000
03FF8000
03FF8000
01FFC000
01FFF800
01FFFF80
00FFFF80
00FFFF80
007FFF80
003FFF80
001FFF80
0007FF80
0001FF80
ENDCHAR
STARTCHAR bar
ENCODING 124
SWIDTH 297 0
DWIDTH 35 0
BBX 9 107 13 -10
BITMAP
FF80
FF80
FF80
FF80
FF80
FF80
FF80
FF80
FF80
FF80
FF80
FF80
FF80
FF80
FF80
FF80
FF80
FF80
FF80
FF80
FF80
FF80
FF80
FF80
FF80
FF80
FF80
FF80
FF80
FF80
FF80
FF80
FF80
FF80
FF80
FF80
FF80
FF80
FF80
FF80
FF80
FF80
FF80
FF80
FF80
FF80
FF80
FF80
FF80
FF80
FF80
FF80
FF80
FF80
FF80
FF80
FF80
FF80
FF80
FF80
FF80
FF80
FF80
FF80
FF80
FF80
FF80
FF80
FF80
FF80
FF80
FF80
FF80
FF80
FF80
FF80
FF80
FF80
FF80
FF80
FF80
FF80
FF80
FF80
FF80
FF80
FF80
FF80
FF80
FF80
FF80
FF80
FF80
FF80
FF80
FF80
FF80
FF80
FF80
FF80
FF80
FF80
FF80
FF80
FF80
FF80
FF80
ENDCHAR
STARTCHAR braceright
ENCODING 125
SWIDTH 337 0
DWIDTH 39 0
BBX 25 107 7 -10
BITMAP
FFC00000
FFF00000
FFFC0000
FFFE0000
FFFF0000
FFFF8000
FFFF8000
FFFFC000
0FFFC000
03FFC000
01FFE000
00FFE000
007FE000
007FE000
007FE000
007FE000
007FE000
007FE000
007FE000
007FE000
007FE000
007FE000
007FE000
007FE000
007FE000
007FE000
007FE000
007FE000
007FE000
007FE000
007FE000
007FE000
007FE000
007FE000
007FE000
007FE000
007FE000
007FE000
007FE000
007FE000
007FE000
007FE000
007FE000
007FE000
007FE000
007FE000
007FE000
007FE000
003FE000
003FF800
003FFF80
001FFF80
001FFF80
0007FF80
0007FF80
000FFF80
001FFF80
003FFF80
003FF800
003FE000
007FE000
007FE000
007FE000
007FE000
007FE000
007FE000
007FE000
007FE000
007FE000
007FE000
007FE000
007FE000
007FE000
007FE000
007FE000
007FE000
007FE000
007FE000
007FE000
007FE000
007FE000
007FE000
007FE000
007FE000
007FE000
007FE000
007FE000
007FE000
007FE000
007FE000
007FE000
007FE000
007FE000
007FE000
007FE000
007FE000
00FFE000
01FFE000
07FFC000
FFFFC000
FFFF8000
FFFF8000
FFFF0000
FFFE0000
FFFC0000
FFF00000
FFC00000
ENDCHAR
STARTCHAR asciitilde
ENCODING 126
SWIDTH 691 0
DWIDTH 81 0
BBX 66 18 7 35
BITMAP
000FFE000000000000
00FFFFC00000000040
03FFFFF80000000040
0FFFFFFF00000001C0
1FFFFFFFE0000003C0
7FFFFFFFF800000FC0
FFFFFFFFFF00003FC0
FFFFFFFFFFF003FFC0
FFFFFFFFFFFFFFFFC0
FFFFFFFFFFFFFFFFC0
FFF801FFFFFFFFFFC0
FF80003FFFFFFFFFC0
FE000007FFFFFFFFC0
F8000000FFFFFFFF80
E00000001FFFFFFE00
C000000007FFFFF800
8000000000FFFFE000
00000000000FFE0000
ENDCHAR
STARTCHAR nonbreakingspace
ENCODING 160
SWIDTH 294 0
DWIDTH 34 0
BBX 1 1 0 0
BITMAP
00
ENDCHAR
STARTCHAR exclamdown
ENCODING 161
SWIDTH 298 0
DWIDTH 35 0
BBX 16 85 10 0
BITMAP
07E0
1FF0
3FFC
7FFC
FFFE
FFFE
FFFE
FFFF
FFFF
FFFF
FFFE
FFFE
7FFC
3FFC
1FF8
07E0
0000
0000
0000
0000
0000
0000
0000
0000
0000
0000
0000
7FFE
7FFE
7FFE
7FFE
7FFE
7FFE
7FFE
7FFE
7FFE
7FFE
7FFE
7FFE
7FFE
7FFE
7FFE
7FFE
7FFE
7FFE
7FFE
7FFE
7FFE
7FFE
7FFE
7FFE
7FFE
7FFE
7FFE
7FFE
7FFE
7FFE
7FFE
7FFE
7FFE
7FFE
7FFE
7FFE
7FFE
7FFE
7FFE
7FFE
7FFE
7FFE
7FFE
7FFE
7FFE
7FFE
7FFE
7FFE
7FFE
7FFE
7FFE
7FFE
7FFE
7FFE
7FFE
7FFE
7FFE
7FFE
ENDCHAR
STARTCHAR cent
ENCODING 162
SWIDTH 692 0
DWIDTH 81 0
BBX 70 85 5 0
BITMAP
00000000003F000000
00000000003F000000
00000000003F000000
00000000003F000000
00000000003F000000
00000000003F000000
00000000003F000000
00000000003F000000
0000001FFFFFFFFFFC
000003FFFFFFFFFFFC
00000FFFFFFFFFFFFC
00007FFFFFFFFFFFFC
0001FFFFFFFFFFFFFC
0003FFFFFFFFFFFFFC
000FFFFFFFFFFFFFFC
001FFFFFFFFFFFFFFC
003FFFFFFFFFFFFFFC
007FFFFFFFFFFFFFFC
00FFFFFFFFFFFFFFFC
01FFFFFFFFFFFFFFFC
03FFFFF0003F000000
03FFFF80003F000000
07FFFE00003F000000
0FFFF800003F000000
0FFFF000003F000000
1FFFE000003F000000
1FFFC000003F000000
1FFF8000003F000000
3FFF0000003F000000
3FFE0000003F000000
7FFE0000003F000000
7FFC0000003F000000
7FFC0000003F000000
7FF80000003F000000
7FF80000003F000000
FFF80000003F000000
FFF00000003F000000
FFF00000003F000000
FFF00000003F000000
FFF00000003F000000
FFF00000003F000000
FFF00000003F000000
FFF00000003F000000
FFF00000003F000000
FFF00000003F000000
FFF00000003F000000
FFF00000003F000000
FFF00000003F000000
FFF00000003F000000
7FF80000003F000000
7FF80000003F000000
7FF80000003F000000
7FFC0000003F000000
3FFC0000003F000000
3FFE0000003F000000
3FFE0000003F000000
1FFF0000003F000000
1FFF8000003F000000
1FFFC000003F000000
0FFFE000003F000000
07FFF000003F000000
07FFF800003F000000
03FFFE00003F000000
03FFFF80003F000000
01FFFFF0003F000000
00FFFFFFFFFFFFFFFC
007FFFFFFFFFFFFFFC
003FFFFFFFFFFFFFFC
001FFFFFFFFFFFFFFC
000FFFFFFFFFFFFFFC
0007FFFFFFFFFFFFFC
0001FFFFFFFFFFFFFC
0000FFFFFFFFFFFFFC
00003FFFFFFFFFFFFC
00000FFFFFFFFFFFFC
000001FFFFFFFFFFFC
0000001FFFFFFFFFFC
00000000003F000000
00000000003F000000
00000000003F000000
00000000003F000000
00000000003F000000
00000000003F000000
00000000003F000000
00000000003F000000
ENDCHAR
STARTCHAR sterling
ENCODING 163
SWIDTH 709 0
DWIDTH 83 0
BBX 75 85 3 0
BITMAP
00000001FFFFFFFE0000
0000001FFFFFFFFE0000
000000FFFFFFFFFE0000
000003FFFFFFFFFE0000
00000FFFFFFFFFFE0000
00001FFFFFFFFFFE0000
00003FFFFFFFFFFE0000
00007FFFFFFFFFFE0000
0000FFFFFFFFFFFE0000
0001FFFFFFFFFFFE0000
0001FFFFFFFFFFFE0000
0003FFFFFFFFFFFE0000
0007FFFFFFFFFFFE0000
0007FFFFFFFFFFFE0000
0007FFFFFFFFFFFE0000
000FFFFFC00000000000
000FFFFE000000000000
000FFFF8000000000000
001FFFF0000000000000
001FFFE0000000000000
001FFFC0000000000000
001FFFC0000000000000
001FFF80000000000000
001FFF80000000000000
001FFF80000000000000
001FFF80000000000000
001FFF80000000000000
001FFF80000000000000
001FFF80000000000000
001FFF80000000000000
001FFF80000000000000
001FFF80000000000000
001FFF80000000000000
001FFF80000000000000
001FFF80000000000000
001FFF80000000000000
07FFFFFFFFFF00000000
07FFFFFFFFFF00000000
07FFFFFFFFFF00000000
07FFFFFFFFFF00000000
07FFFFFFFFFF00000000
07FFFFFFFFFF00000000
07FFFFFFFFFF00000000
07FFFFFFFFFF00000000
07FFFFFFFFFF00000000
07FFFFFFFFFF00000000
07FFFFFFFFFF00000000
001FFF80000000000000
001FFF80000000000000
001FFF80000000000000
001FFF80000000000000
001FFF80000000000000
001FFF80000000000000
001FFF80000000000000
001FFF80000000000000
001FFF80000000000000
001FFF80000000000000
001FFF80000000000000
001FFF80000000000000
001FFF80000000000000
001FFF80000000000000
001FFF80000000000000
001FFF80000000000000
001FFF80000000000000
001FFF80000000000000
001FFF80000000000000
001FFF80000000000000
001FFF80000000000000
001FFF80000000000000
001FFF80000000000000
FFFFFFFFFFFFFFFFFFE0
FFFFFFFFFFFFFFFFFFE0
FFFFFFFFFFFFFFFFFFE0
FFFFFFFFFFFFFFFFFFE0
FFFFFFFFFFFFFFFFFFE0
FFFFFFFFFFFFFFFFFFE0
FFFFFFFFFFFFFFFFFFE0
FFFFFFFFFFFFFFFFFFE0
FFFFFFFFFFFFFFFFFFE0
FFFFFFFFFFFFFFFFFFE0
FFFFFFFFFFFFFFFFFFE0
FFFFFFFFFFFFFFFFFFE0
FFFFFFFFFFFFFFFFFFE0
FFFFFFFFFFFFFFFFFFE0
FFFFFFFFFFFFFFFFFFE0
ENDCHAR
STARTCHAR yen
ENCODING 165
SWIDTH 787 0
DWIDTH 92 0
BBX 87 85 2 0
BITMAP
FFFFC0000000000007FFFE
7FFFE0000000000007FFFC
3FFFF000000000000FFFF8
1FFFF000000000001FFFF8
1FFFF800000000001FFFF0
0FFFFC00000000003FFFE0
07FFFC00000000003FFFE0
07FFFE00000000007FFFC0
03FFFE0000000000FFFF80
01FFFF0000000000FFFF80
01FFFF8000000001FFFF00
00FFFF8000000003FFFE00
007FFFC000000003FFFE00
007FFFE000000007FFFC00
003FFFE000000007FFFC00
001FFFF00000000FFFF800
001FFFF80000001FFFF000
000FFFF80000001FFFF000
0007FFFC0000003FFFE000
0007FFFE0000007FFFC000
0003FFFE0000007FFFC000
0001FFFF000000FFFF8000
0001FFFF000000FFFF0000
0000FFFF800001FFFF0000
00007FFFC00003FFFE0000
00007FFFC00003FFFC0000
00003FFFE00007FFFC0000
00001FFFF00007FFF80000
00001FFFF0000FFFF00000
00000FFFF8001FFFF00000
000007FFFC001FFFE00000
000007FFFC003FFFC00000
000003FFFE007FFFC00000
000001FFFF007FFF800000
000001FFFF00FFFF000000
000000FFFF80FFFF000000
0000007FFF81FFFE000000
0000007FFFC3FFFC000000
0000003FFFE3FFFC000000
0000001FFFE7FFF8000000
0000001FFFFFFFF0000000
0000000FFFFFFFF0000000
00000007FFFFFFE0000000
00000007FFFFFFC0000000
00000003FFFFFFC0000000
00000001FFFFFF80000000
0007FFFFFFFFFFFFFFF000
0007FFFFFFFFFFFFFFF000
0007FFFFFFFFFFFFFFF000
0007FFFFFFFFFFFFFFF000
0007FFFFFFFFFFFFFFF000
0007FFFFFFFFFFFFFFF000
0007FFFFFFFFFFFFFFF000
0007FFFFFFFFFFFFFFF000
0007FFFFFFFFFFFFFFF000
0007FFFFFFFFFFFFFFF000
0000000007FFE000000000
0000000007FFE000000000
0000000007FFE000000000
0000000007FFE000000000
0000000007FFE000000000
0000000007FFE000000000
0000000007FFE000000000
0000000007FFE000000000
0000000007FFE000000000
0000000007FFE000000000
0007FFFFFFFFFFFFFFF000
0007FFFFFFFFFFFFFFF000
0007FFFFFFFFFFFFFFF000
0007FFFFFFFFFFFFFFF000
0007FFFFFFFFFFFFFFF000
0007FFFFFFFFFFFFFFF000
0007FFFFFFFFFFFFFFF000
0007FFFFFFFFFFFFFFF000
0007FFFFFFFFFFFFFFF000
0007FFFFFFFFFFFFFFF000
0000000007FFE000000000
0000000007FFE000000000
0000000007FFE000000000
0000000007FFE000000000
0000000007FFE000000000
0000000007FFE000000000
0000000007FFE000000000
0000000007FFE000000000
0000000007FFE000000000
ENDCHAR
STARTCHAR brokenbar
ENCODING 166
SWIDTH 297 0
DWIDTH 35 0
BBX 9 107 13 -10
BITMAP
FF80
FF80
FF80
FF80
FF80
FF80
FF80
FF80
FF80
FF80
FF80
FF80
FF80
FF80
FF80
FF80
FF80
FF80
FF80
FF80
FF80
FF80
FF80
FF80
FF80
FF80
FF80
FF80
FF80
FF80
FF80
FF80
FF80
FF80
FF80
FF80
FF80
FF80
FF80
FF80
FF80
FF80
FF80
FF80
FF80
FF80
FF80
0000
0000
0000
0000
0000
0000
0000
0000
0000
0000
0000
0000
0000
FF80
FF80
FF80
FF80
FF80
FF80
FF80
FF80
FF80
FF80
FF80
FF80
FF80
FF80
FF80
FF80
FF80
FF80
FF80
FF80
FF80
FF80
FF80
FF80
FF80
FF80
FF80
FF80
FF80
FF80
FF80
FF80
FF80
FF80
FF80
FF80
FF80
FF80
FF80
FF80
FF80
FF80
FF80
FF80
FF80
FF80
FF80
ENDCHAR
STARTCHAR section
ENCODING 167
SWIDTH 773 0
DWIDTH 90 0
BBX 78 108 6 -23
BITMAP
00003FFFFFFFFFFFF000
0003FFFFFFFFFFFFF000
000FFFFFFFFFFFFFF000
003FFFFFFFFFFFFFF000
00FFFFFFFFFFFFFFF000
01FFFFFFFFFFFFFFF000
03FFFFFFFFFFFFFFF000
07FFFFFFFFFFFFFFF000
0FFFFFFFFFFFFFFFF000
1FFFFFFFFFFFFFFFF000
1FFFFFFFFFFFFFFFF000
3FFFFFFFFFFFFFFFF000
3FFFFFFFFFFFFFFFF000
7FFFFFFFFFFFFFFFF000
7FFFFC00000000000000
7FFFE000000000000000
FFFF8000000000000000
FFFF0000000000000000
FFFE0000000000000000
FFFE0000000000000000
FFFC0000000000000000
FFFC0000000000000000
FFFC0000000000000000
FFFC0000000000000000
FFFC0000000000000000
FFFC0000000000000000
FFFC0000000000000000
FFFC0000000000000000
FFFE0000000000000000
7FFE0000000000000000
7FFF0000000000000000
7FFF8000000000000000
3FFFC000000000000000
3FFFF000000000000000
1FFFFFFFFFFFFFE00000
0FFFFFFFFFFFFFFE0000
0FFFFFFFFFFFFFFF8000
07FFFFFFFFFFFFFFE000
03FFFFFFFFFFFFFFF000
00FFFFFFFFFFFFFFF800
007FFFFFFFFFFFFFFC00
001FFFFFFFFFFFFFFE00
007FFFFFFFFFFFFFFE00
00FFFFFFFFFFFFFFFF00
01FFFFFFFFFFFFFFFF00
03FFFE00000003FFFF00
03FFF0000000007FFF80
07FFE0000000003FFF80
07FFC0000000001FFF80
07FFC0000000001FFF80
0FFF80000000000FFF80
0FFF80000000000FFF80
0FFF80000000000FFF80
0FFF80000000000FFF80
0FFF80000000000FFF80
0FFF80000000000FFF80
0FFF80000000000FFF80
0FFF80000000000FFF80
0FFFC0000000001FFF80
0FFFC0000000001FFF00
0FFFE0000000003FFF00
0FFFF8000000007FFE00
07FFFE00000001FFFE00
07FFFFFFFFFFFFFFFC00
03FFFFFFFFFFFFFFF800
03FFFFFFFFFFFFFFF000
01FFFFFFFFFFFFFFE000
01FFFFFFFFFFFFFFF000
00FFFFFFFFFFFFFFF800
007FFFFFFFFFFFFFFE00
001FFFFFFFFFFFFFFF00
000FFFFFFFFFFFFFFF80
0003FFFFFFFFFFFFFF80
00003FFFFFFFFFFFFFC0
000000000000007FFFE0
000000000000001FFFE0
000000000000000FFFF0
0000000000000007FFF0
0000000000000003FFF8
0000000000000001FFF8
0000000000000001FFF8
0000000000000001FFF8
0000000000000001FFF8
0000000000000001FFFC
0000000000000001FFFC
0000000000000001FFFC
0000000000000001FFFC
0000000000000001FFFC
0000000000000003FFF8
0000000000000003FFF8
0000000000000007FFF8
000000000000000FFFF8
000000000000003FFFF8
00000000000001FFFFF0
007FFFFFFFFFFFFFFFF0
007FFFFFFFFFFFFFFFF0
007FFFFFFFFFFFFFFFE0
007FFFFFFFFFFFFFFFE0
007FFFFFFFFFFFFFFFC0
007FFFFFFFFFFFFFFF80
007FFFFFFFFFFFFFFF00
007FFFFFFFFFFFFFFE00
007FFFFFFFFFFFFFFC00
007FFFFFFFFFFFFFF800
007FFFFFFFFFFFFFE000
007FFFFFFFFFFFFFC000
007FFFFFFFFFFFFE0000
007FFFFFFFFFFFE00000
ENDCHAR
STARTCHAR dieresis
ENCODING 168
SWIDTH 393 0
DWIDTH 46 0
BBX 34 11 6 94
BITMAP
0F80007C00
3FC001FF00
7FE001FF80
FFF003FF80
FFF003FFC0
FFF003FFC0
FFF003FFC0
FFF003FF80
7FE001FF80
3FC001FF00
0F80007C00
ENDCHAR
STARTCHAR copyright
ENCODING 169
SWIDTH 829 0
DWIDTH 97 0
BBX 87 87 5 -2
BITMAP
0000000007FFC000000000
00000000FFFFFE00000000
00000007FFFFFFC0000000
0000003FFFFFFFF8000000
000000FFF8003FFE000000
000003FF800001FF800000
000007FC0000003FE00000
00001FE00000000FF00000
00003F8000000003FC0000
0000FE0000000000FE0000
0001FC00000000007F0000
0003F000000000001F8000
0007E000000000000FC000
000FC0000000000007E000
001F80000000000003F000
003F00000000000000F800
007E00000000000000FC00
007C000000000000007E00
00F8000000000000003E00
01F0000000000000001F00
03E0000000000000000F80
03E0000000000000000F80
07C00000000000000007C0
0780000003FFFF800003C0
0F8000003FFFFF800003E0
0F000000FFFFFF800001E0
1F000003FFFFFF800001F0
1E000007FFFFFF800000F0
1E00000FFFFFFF800000F0
3E00001FFE000000000078
3C00003FF0000000000078
3C00007FC0000000000078
7C0000FF8000000000003C
780000FF0000000000003C
780001FE0000000000003C
780001FC0000000000003C
F80003FC0000000000001E
F80003F80000000000001E
F00003F80000000000001E
F00003F00000000000001E
F00003F00000000000001E
F00007F00000000000001E
F00007F00000000000001E
F00007F00000000000001E
F00007F00000000000001E
F00003F00000000000001E
F00003F00000000000001E
F00003F00000000000001E
F00003F00000000000001E
F80003F80000000000001E
F80001F80000000000001C
780001FC0000000000003C
780000FC0000000000003C
780000FE0000000000003C
7C00007F0000000000003C
3C00007F80000000000078
3C00003FC0000000000078
3E00001FF0000000000078
1E00000FFE0000000000F0
1E000007FFFFFF800000F0
1F000001FFFFFF800001F0
0F000000FFFFFF800001E0
0F8000001FFFFF800003E0
0780000003FFFF800003C0
07C00000000000000007C0
03E0000000000000000780
01E0000000000000000F00
01F0000000000000001F00
00F8000000000000003E00
007C000000000000007C00
007E000000000000007C00
003F00000000000000F800
001F80000000000001F000
000FC0000000000007E000
0007E000000000000FC000
0003F000000000001F8000
0001FC00000000007F0000
0000FE0000000000FE0000
00003F8000000003F80000
00001FE00000000FF00000
000007FC0000003FC00000
000003FF800001FF800000
000000FFF8003FFE000000
0000003FFFFFFFF8000000
00000007FFFFFFC0000000
00000000FFFFFE00000000
0000000007FFC000000000
ENDCHAR
STARTCHAR ordfeminine
ENCODING 170
SWIDTH 604 0
DWIDTH 71 0
BBX 62 48 4 35
BITMAP
0000000100000000
00000007C0000000
0000000FE0000000
0000001FE0000000
0000003FF0000000
0000003FF8000000
0000007FF8000000
0000007FFC000000
000000FFFC000000
000001FFFE000000
000001FFFF000000
000003FFFF000000
000003FFFF800000
000007FCFF800000
00000FFCFFC00000
00000FF87FE00000
00001FF03FE00000
00001FF03FF00000
00003FE01FF00000
00003FE00FF80000
00007FC00FFC0000
0000FF8007FC0000
0000FF8007FE0000
0001FF0003FE0000
0001FF0001FF0000
0003FE0001FF8000
0007FC0000FF8000
0007FC0000FFC000
000FF800007FC000
000FF81FFFFFE000
001FF03FFFFFF000
003FE03FFFFFF000
003FE07FFFFFF800
007FC07FFFFFFC00
007FC0FFFFFFFC00
00FF81FFFFFFFE00
01FF80000003FE00
01FF00000003FF00
03FE00000001FF00
03FE00000001FF80
07FC00000000FFC0
0FFC000000007FC0
0FF8000000007FE0
1FF0000000003FF0
1FF0000000003FF0
3FE0000000001FF8
7FE0000000000FF8
FFC0000000000FFC
ENDCHAR
STARTCHAR guillemotleft
ENCODING 171
SWIDTH 629 0
DWIDTH 74 0
BBX 64 43 5 22
BITMAP
0000000080000001
0000000380000007
000000078000001F
0000001F8000007F
0000007F800000FF
000000FF800003FF
000003FF80000FFF
00000FFF00001FFE
00001FFE00007FF8
00007FF80001FFF0
0001FFE00003FFC0
0003FF80000FFF00
000FFF00003FFC00
003FFC00007FF800
00FFF00001FFE000
01FFE00007FF8000
07FF80000FFE0000
1FFE00003FFC0000
3FF80000FFF00000
7FF00001FFC00000
FFC00001FF000000
FF000003FE000000
FF800001FF000000
7FE00001FF800000
3FF00000FFE00000
1FFC00003FF80000
07FF00000FFE0000
01FFC00007FF0000
00FFE00001FFC000
003FF800007FF000
000FFE00003FF800
0007FF80000FFE00
0001FFC00003FF80
00007FF00001FFE0
00003FFC00007FF0
00000FFE00001FFC
000003FF80000FFF
000001FF800003FF
0000007F800000FF
0000001F8000007F
0000000F8000001F
0000000380000007
0000000080000003
ENDCHAR
STARTCHAR registered
ENCODING 174
SWIDTH 585 0
DWIDTH 68 0
BBX 54 53 7 32
BITMAP
000003FF000000
00003FFFF00000
0000FFFFFE0000
0003FFFFFF8000
000FFC00FFC000
001FE0001FF000
003F800007F800
00FE000001FC00
01FC0000007E00
01F00000003F00
03E00000001F80
07C00000000F80
0F8000000007C0
0F8000000007E0
1F0000000003E0
1E01FFFFE001F0
3E01FFFFF801F0
3C01FFFFFC00F0
3C01FFFFFE00F8
7C01E0003E0078
7801E0001F0078
7801E0000F007C
7801E0000F007C
7801E0000F003C
F801E0000F003C
F001E0001F003C
F001E0003E003C
F001E0FFFE003C
F801E0FFFC003C
7801E0FFF8003C
7801E0FFE0007C
7801E001F0007C
7801E000FC0078
7C01E0007E0078
3C01E0003F00F8
3C01E0001F80F8
3E01E0000FC1F0
1E0000000001F0
1F0000000003E0
0F8000000003E0
0F8000000007C0
07C00000000F80
03E00000001F80
01F00000003F00
01FC0000007E00
00FE000001FC00
003F800003F800
001FE0001FF000
000FFC00FFC000
0003FFFFFF0000
0000FFFFFE0000
00003FFFF00000
000003FF800000
ENDCHAR
STARTCHAR macron
ENCODING 175
SWIDTH 362 0
DWIDTH 42 0
BBX 30 7 6 95
BITMAP
FFFFFFFC
FFFFFFFC
FFFFFFFC
FFFFFFFC
FFFFFFFC
FFFFFFFC
FFFFFFFC
ENDCHAR
STARTCHAR degree
ENCODING 176
SWIDTH 361 0
DWIDTH 42 0
BBX 32 33 5 52
BITMAP
001FF800
00FFFF00
03FFFFC0
07FFFFF0
0FFFFFF8
1FFFFFF8
3FFFFFFC
3FF00FFE
7FC003FE
7F8001FE
7F0000FF
FE00007F
FE00007F
FE00007F
FC00003F
FC00003F
FC00003F
FC00003F
FC00003F
FE00007F
FE00007F
FE00007F
7F0000FF
7F8001FE
7FC003FE
3FF00FFE
3FFFFFFC
1FFFFFF8
0FFFFFF8
07FFFFF0
03FFFFC0
00FFFF00
001FF800
ENDCHAR
STARTCHAR plusminus
ENCODING 177
SWIDTH 690 0
DWIDTH 81 0
BBX 66 82 7 -6
BITMAP
0000000FFC00000000
0000000FFC00000000
0000000FFC00000000
0000000FFC00000000
0000000FFC00000000
0000000FFC00000000
0000000FFC00000000
0000000FFC00000000
0000000FFC00000000
0000000FFC00000000
0000000FFC00000000
0000000FFC00000000
0000000FFC00000000
0000000FFC00000000
0000000FFC00000000
0000000FFC00000000
0000000FFC00000000
0000000FFC00000000
0000000FFC00000000
0000000FFC00000000
0000000FFC00000000
0000000FFC00000000
0000000FFC00000000
0000000FFC00000000
0000000FFC00000000
0000000FFC00000000
0000000FFC00000000
0000000FFC00000000
FFFFFFFFFFFFFFFFC0
FFFFFFFFFFFFFFFFC0
FFFFFFFFFFFFFFFFC0
FFFFFFFFFFFFFFFFC0
FFFFFFFFFFFFFFFFC0
FFFFFFFFFFFFFFFFC0
FFFFFFFFFFFFFFFFC0
FFFFFFFFFFFFFFFFC0
FFFFFFFFFFFFFFFFC0
FFFFFFFFFFFFFFFFC0
0000000FFC00000000
0000000FFC00000000
0000000FFC00000000
0000000FFC00000000
0000000FFC00000000
0000000FFC00000000
0000000FFC00000000
0000000FFC00000000
0000000FFC00000000
0000000FFC00000000
0000000FFC00000000
0000000FFC00000000
0000000FFC00000000
0000000FFC00000000
0000000FFC00000000
0000000FFC00000000
0000000FFC00000000
0000000FFC00000000
0000000FFC00000000
0000000FFC00000000
0000000FFC00000000
0000000FFC00000000
0000000FFC00000000
0000000FFC00000000
0000000FFC00000000
0000000FFC00000000
0000000FFC00000000
0000000FFC00000000
000000000000000000
000000000000000000
000000000000000000
000000000000000000
000000000000000000
000000000000000000
FFFFFFFFFFFFFFFFC0
FFFFFFFFFFFFFFFFC0
FFFFFFFFFFFFFFFFC0
FFFFFFFFFFFFFFFFC0
FFFFFFFFFFFFFFFFC0
FFFFFFFFFFFFFFFFC0
FFFFFFFFFFFFFFFFC0
FFFFFFFFFFFFFFFFC0
FFFFFFFFFFFFFFFFC0
FFFFFFFFFFFFFFFFC0
ENDCHAR
STARTCHAR twosuperior
ENCODING 178
SWIDTH 442 0
DWIDTH 52 0
BBX 42 42 5 44
BITMAP
7FFFFFFF8000
7FFFFFFFF000
7FFFFFFFFC00
7FFFFFFFFE00
7FFFFFFFFF00
7FFFFFFFFF00
7FFFFFFFFF80
00000001FF80
000000007FC0
000000003FC0
000000003FC0
000000003FC0
000000003FC0
000000003FC0
000000003FC0
000000007F80
00000001FF80
007FFFFFFF00
03FFFFFFFF00
0FFFFFFFFE00
1FFFFFFFFC00
3FFFFFFFF000
3FFFFFFF8000
7FE000000000
7F8000000000
7F0000000000
7F0000000000
FF0000000000
FE0000000000
FE0000000000
FE0000000000
FE0000000000
FE0000000000
FE0000000000
FE0000000000
FFFFFFFFFF80
FFFFFFFFFF80
FFFFFFFFFF80
FFFFFFFFFF80
FFFFFFFFFF80
FFFFFFFFFF80
FFFFFFFFFF80
ENDCHAR
STARTCHAR threesuperior
ENCODING 179
SWIDTH 443 0
DWIDTH 52 0
BBX 43 42 4 44
BITMAP
7FFFFFFFC000
7FFFFFFFF800
7FFFFFFFFE00
7FFFFFFFFF00
7FFFFFFFFF80
7FFFFFFFFF80
7FFFFFFFFFC0
00000001FFC0
000000003FC0
000000003FC0
000000001FC0
000000001FC0
000000001FC0
000000001FC0
000000003FC0
000000003F80
00000000FF80
001FFFFFFF00
001FFFFFFC00
001FFFFFF800
001FFFFFFE00
001FFFFFFF00
001FFFFFFF80
00000000FFC0
000000003FC0
000000001FE0
000000001FE0
000000000FE0
000000000FE0
000000000FE0
000000001FE0
000000001FE0
000000003FE0
000000007FE0
00000001FFC0
FFFFFFFFFFC0
FFFFFFFFFF80
FFFFFFFFFF00
FFFFFFFFFF00
FFFFFFFFFC00
FFFFFFFFF800
FFFFFFFFC000
ENDCHAR
STARTCHAR acute
ENCODING 180
SWIDTH 362 0
DWIDTH 42 0
BBX 30 16 6 90
BITMAP
00000004
0000007C
000003FC
00001FFC
0001FFFC
000FFFFC
007FFFFC
07FFFFFC
3FFFFFFC
FFFFFFF8
FFFFFF80
FFFFF000
FFFE0000
FFE00000
FC000000
80000000
ENDCHAR
STARTCHAR paragraph
ENCODING 182
SWIDTH 629 0
DWIDTH 74 0
BBX 61 97 5 -12
BITMAP
0003FFFFFFFFFFF8
001FFFFFFFFFFFF8
007FFFFFFFFFFFF8
01FFFFFFFFFFFFF8
03FFFFFFFFFFFFF8
07FFFFFFFFFFFFF8
0FFFFFFFFFFFFFF8
1FFFFFFFFFFFFFF8
1FFFFFFFFFFFFFF8
3FFFFFFFF8000FF8
3FFFFFFFF8000FF8
7FFFFFFFF8000FF8
7FFFFFFFF8000FF8
7FFFFFFFF8000FF8
7FFFFFFFF8000FF8
FFFFFFFFF8000FF8
FFFFFFFFF8000FF8
FFFFFFFFF8000FF8
FFFFFFFFF8000FF8
FFFFFFFFF8000FF8
FFFFFFFFF8000FF8
FFFFFFFFF8000FF8
FFFFFFFFF8000FF8
7FFFFFFFF8000FF8
7FFFFFFFF8000FF8
7FFFFFFFF8000FF8
7FFFFFFFF8000FF8
3FFFFFFFF8000FF8
3FFFFFFFF8000FF8
1FFFFFFFF8000FF8
1FFFFFFFF8000FF8
0FFFFFFFF8000FF8
07FFFFFFF8000FF8
03FFFFFFF8000FF8
01FFFFFFF8000FF8
00FFFFFFF8000FF8
003FFFFFF8000FF8
0007FFFFF8000FF8
0000000FF8000FF8
0000000FF8000FF8
0000000FF8000FF8
0000000FF8000FF8
0000000FF8000FF8
0000000FF8000FF8
0000000FF8000FF8
0000000FF8000FF8
0000000FF8000FF8
0000000FF8000FF8
0000000FF8000FF8
0000000FF8000FF8
0000000FF8000FF8
0000000FF8000FF8
0000000FF8000FF8
0000000FF8000FF8
0000000FF8000FF8
0000000FF8000FF8
0000000FF8000FF8
0000000FF8000FF8
0000000FF8000FF8
0000000FF8000FF8
0000000FF8000FF8
0000000FF8000FF8
0000000FF8000FF8
0000000FF8000FF8
0000000FF8000FF8
0000000FF8000FF8
0000000FF8000FF8
0000000FF8000FF8
0000000FF8000FF8
0000000FF8000FF8
0000000FF8000FF8
0000000FF8000FF8
0000000FF8000FF8
0000000FF8000FF8
0000000FF8000FF8
0000000FF8000FF8
0000000FF8000FF8
0000000FF8000FF8
0000000FF8000FF8
0000000FF8000FF8
0000000FF8000FF8
0000000FF8000FF8
0000000FF8000FF8
0000000FF8000FF8
0000000FF8000FF8
0000000FF8000FF8
0000000FF8000FF8
0000000FF8000FF8
0000000FF8000FF8
0000000FF8000FF8
0000000FF8000FF8
0000000FF8000FF8
0000000FF8000FF8
0000000FF8000FF8
0000000FF8000FF8
0000000FF8000FF8
0000000FF8000FF8
ENDCHAR
STARTCHAR periodcentered
ENCODING 183
SWIDTH 262 0
DWIDTH 31 0
BBX 16 16 7 34
BITMAP
07E0
1FF8
3FFC
3FFE
7FFF
7FFF
FFFF
FFFF
FFFF
FFFF
7FFF
7FFF
3FFE
3FFC
1FF8
07E0
ENDCHAR
STARTCHAR cedilla
ENCODING 184
SWIDTH 219 0
DWIDTH 26 0
BBX 16 18 5 -24
BITMAP
FFFF
7FFE
7FFE
3FFC
3FFC
3FF8
1FF8
1FF0
0FF0
0FE0
07E0
07E0
07C0
03C0
0380
0180
0100
0100
ENDCHAR
STARTCHAR onesuperior
ENCODING 185
SWIDTH 222 0
DWIDTH 26 0
BBX 18 42 3 44
BITMAP
FF8000
FFE000
FFF800
FFFC00
FFFE00
FFFF00
FFFF00
01FF80
007F80
007F80
003F80
003F80
003FC0
003FC0
003FC0
003FC0
003FC0
003FC0
003FC0
003FC0
003FC0
003FC0
003FC0
003FC0
003FC0
003FC0
003FC0
003FC0
003FC0
003FC0
003FC0
003FC0
003FC0
003FC0
003FC0
003FC0
003FC0
003FC0
003FC0
003FC0
003FC0
003FC0
ENDCHAR
STARTCHAR ordmasculine
ENCODING 186
SWIDTH 592 0
DWIDTH 69 0
BBX 57 47 6 35
BITMAP
00003FFFFF000000
0003FFFFFFE00000
000FFFFFFFF80000
003FFFFFFFFE0000
007FFFFFFFFF8000
01FFFFFFFFFFC000
03FFFFFFFFFFE000
07FFFFFFFFFFF000
07FFE00003FFF800
0FFF0000007FF800
1FFE0000001FFC00
1FF80000000FFC00
3FF000000007FE00
3FF000000003FE00
3FE000000001FF00
7FC000000001FF00
7FC000000000FF00
7F8000000000FF80
7F8000000000FF80
FF80000000007F80
FF80000000007F80
FF00000000007F80
FF00000000007F80
FF00000000007F80
FF00000000007F80
FF00000000007F80
FF80000000007F80
7F80000000007F80
7F8000000000FF80
7F8000000000FF00
7FC000000000FF00
7FC000000001FF00
3FE000000001FF00
3FE000000003FE00
1FF000000007FE00
1FF80000000FFC00
0FFE0000001FFC00
0FFF0000007FF800
07FFE00003FFF000
03FFFFFFFFFFE000
01FFFFFFFFFFC000
00FFFFFFFFFF8000
007FFFFFFFFF0000
001FFFFFFFFE0000
000FFFFFFFF80000
0001FFFFFFE00000
00003FFFFE000000
ENDCHAR
STARTCHAR guillemotright
ENCODING 187
SWIDTH 629 0
DWIDTH 74 0
BBX 64 43 5 22
BITMAP
8000000300000000
E000000380000000
F8000003E0000000
FC000003F8000000
FF000003FC000000
FFC00003FF000000
FFE00003FFC00000
7FF80001FFE00000
3FFE00007FF80000
0FFF00001FFE0000
03FFC0000FFF0000
00FFF00003FFC000
007FF80000FFF000
001FFE00003FF800
0007FF80001FFE00
0001FFC00007FF80
0000FFF00001FFC0
00003FFC00007FF0
00000FFE00003FFC
000003FF80000FFE
000001FF800003FF
0000007F800000FF
000000FF800001FF
000003FF800007FE
000007FE00001FFC
00001FFC00007FF0
00007FF00000FFC0
0001FFC00003FF80
0003FF80000FFE00
000FFE00003FF800
003FF800007FF000
00FFF00001FFC000
01FFC00007FF0000
07FF00000FFE0000
1FFE00003FF80000
3FF80000FFF00000
FFE00003FFC00000
FFC00003FF000000
FF000003FE000000
FC000003F8000000
F8000003E0000000
E0000003C0000000
8000000300000000
ENDCHAR
STARTCHAR onequarter
ENCODING 188
SWIDTH 972 0
DWIDTH 114 0
BBX 104 98 5 -8
BITMAP
0000000000000000000FFE0000
0000000000000000000FFC0000
0000000000000000001FF80000
0000000000000000003FF00000
003FC00000000000007FE00000
003FF8000000000000FFC00000
003FFC000000000000FFC00000
003FFF000000000001FF800000
003FFF000000000003FF000000
003FFF800000000007FE000000
003FFFC00000000007FE000000
0000FFC0000000000FFC000000
00003FC0000000001FF8000000
00001FE0000000003FF0000000
00001FE0000000007FE0000000
00001FE0000000007FE0000000
00000FE000000000FFC0000000
00000FE000000001FF80000000
00000FE000000003FF00000000
00000FE000000007FE00000000
00000FE000000007FE00000000
00000FE00000000FFC00000000
00000FE00000001FF800000000
00000FE00000003FF000000000
00000FE00000003FF000000000
00000FE00000007FE000000000
00000FE0000000FFC000000000
00000FE0000001FF8000000000
00000FE0000003FF0000000000
00000FE0000003FF0000000000
00000FE0000007FE0000000000
00000FE000000FFC0000000000
00000FE000001FF80000000000
00000FE000003FF80000000000
00000FE000003FF00000000000
00000FE000007FE00000000000
00000FE00000FFC00000000000
00000FE00001FF800000000000
00000FE00001FF800000000000
00000FE00003FF000000000000
00000FE00007FE000000000000
00000FE0000FFC000000000000
00000FE0001FFC000000000000
00000FE0001FF8000000000000
00000FE0003FF0000000000000
00000FE0007FE0000000000000
0000000000FFC0000000000000
0000000000FFC0000000000000
0000000001FF80000000000000
0000000003FF001FC000003FC0
0000000007FE001FC000003FC0
000000000FFC001FC000003FC0
000000000FFC001FC000003FC0
000000001FF8001FC000003FC0
000000003FF0001FC000003FC0
000000007FE0001FC000003FC0
00000000FFE0001FC000003FC0
00000000FFC0001FC000003FC0
00000001FF80001FC000003FC0
00000003FF00001FC000003FC0
00000007FE00001FC000003FC0
00000007FE00001FC000003FC0
0000000FFC00001FC000003FC0
0000001FF800001FC000003FC0
0000003FF000001FC000003FC0
0000007FF000001FC000003FC0
0000007FE000001FC000003FC0
000000FFC000001FC000003FC0
000001FF8000001FC000003FC0
000003FF0000001FC000003FC0
000007FF0000001FE000003FC0
000007FE0000001FF000003FC0
00000FFC0000000FF800003FC0
00001FF80000000FFFFFFFFFFF
00003FF00000000FFFFFFFFFFF
00003FF000000007FFFFFFFFFF
00007FE000000003FFFFFFFFFF
0000FFC000000001FFFFFFFFFF
0001FF80000000007FFFFFFFFF
0003FF80000000000FFFFFFFFF
0003FF00000000000000003FC0
0007FE00000000000000003FC0
000FFC00000000000000003FC0
001FF800000000000000003FC0
003FF800000000000000003FC0
003FF000000000000000003FC0
007FE000000000000000003FC0
00FFC000000000000000003FC0
01FFC000000000000000003FC0
01FF8000000000000000003FC0
03FF0000000000000000003FC0
07FE0000000000000000000000
0FFC0000000000000000000000
1FFC0000000000000000000000
1FF80000000000000000000000
3FF00000000000000000000000
7FE00000000000000000000000
FFE00000000000000000000000
ENDCHAR
STARTCHAR onehalf
ENCODING 189
SWIDTH 948 0
DWIDTH 111 0
BBX 101 98 5 -8
BITMAP
0000000000000000000FFE0000
0000000000000000000FFC0000
0000000000000000001FF80000
0000000000000000003FF00000
003FC00000000000007FE00000
003FF8000000000000FFC00000
003FFC000000000000FFC00000
003FFF000000000001FF800000
003FFF000000000003FF000000
003FFF800000000007FE000000
003FFFC00000000007FE000000
0000FFC0000000000FFC000000
00003FC0000000001FF8000000
00001FE0000000003FF0000000
00001FE0000000007FE0000000
00001FE0000000007FE0000000
00000FE000000000FFC0000000
00000FE000000001FF80000000
00000FE000000003FF00000000
00000FE000000007FE00000000
00000FE000000007FE00000000
00000FE00000000FFC00000000
00000FE00000001FF800000000
00000FE00000003FF000000000
00000FE00000003FF000000000
00000FE00000007FE000000000
00000FE0000000FFC000000000
00000FE0000001FF8000000000
00000FE0000003FF0000000000
00000FE0000003FF0000000000
00000FE0000007FE0000000000
00000FE000000FFC0000000000
00000FE000001FF80000000000
00000FE000003FF80000000000
00000FE000003FF00000000000
00000FE000007FE00000000000
00000FE00000FFC00000000000
00000FE00001FF800000000000
00000FE00001FF800000000000
00000FE00003FF000000000000
00000FE00007FE000000000000
00000FE0000FFC000000000000
00000FE0001FFC000000000000
00000FE0001FF8000000000000
00000FE0003FF0000000000000
00000FE0007FE0000000000000
0000000000FFC0000000000000
0000000000FFC0000000000000
0000000001FF80000000000000
0000000003FF000FFFFFFFF800
0000000007FE000FFFFFFFFE00
000000000FFC000FFFFFFFFF80
000000000FFC000FFFFFFFFFC0
000000001FF8000FFFFFFFFFE0
000000003FF0000FFFFFFFFFE0
000000007FE0000FFFFFFFFFF0
00000000FFE000000000001FF0
00000000FFC000000000000FF8
00000001FF80000000000007F8
00000003FF00000000000007F8
00000007FE00000000000007F8
00000007FE00000000000007F8
0000000FFC00000000000007F8
0000001FF800000000000007F8
0000003FF00000000000000FF0
0000007FF00000000000003FF0
0000007FE00000000FFFFFFFE0
000000FFC00000007FFFFFFFE0
000001FF80000001FFFFFFFFC0
000003FF00000003FFFFFFFF80
000007FF00000003FFFFFFFE00
000007FE00000007FFFFFFF000
00000FFC0000000FFC00000000
00001FF80000000FF000000000
00003FF00000000FE000000000
00003FF00000000FE000000000
00007FE00000000FE000000000
0000FFC00000001FE000000000
0001FF800000001FC000000000
0003FF800000001FC000000000
0003FF000000001FC000000000
0007FE000000001FC000000000
000FFC000000001FC000000000
001FF8000000001FC000000000
003FF8000000001FFFFFFFFFF0
003FF0000000001FFFFFFFFFF0
007FE0000000001FFFFFFFFFF0
00FFC0000000001FFFFFFFFFF0
01FFC0000000001FFFFFFFFFF0
01FF80000000001FFFFFFFFFF0
03FF00000000001FFFFFFFFFF0
07FE0000000000000000000000
0FFC0000000000000000000000
1FFC0000000000000000000000
1FF80000000000000000000000
3FF00000000000000000000000
7FE00000000000000000000000
FFE00000000000000000000000
ENDCHAR
STARTCHAR threequarters
ENCODING 190
SWIDTH 1029 0
DWIDTH 120 0
BBX 110 98 5 -8
BITMAP
000000000000000000001FF80000
000000000000000000003FF00000
000000000000000000007FE00000
000000000000000000007FE00000
FFFFFFFF800000000000FFC00000
FFFFFFFFF00000000001FF800000
FFFFFFFFFC0000000003FF000000
FFFFFFFFFE0000000003FF000000
FFFFFFFFFF0000000007FE000000
FFFFFFFFFF800000000FFC000000
FFFFFFFFFF800000001FF8000000
00000001FFC00000003FF0000000
000000007FC00000003FF0000000
000000003FC00000007FE0000000
000000003FC0000000FFC0000000
000000003FC0000001FF80000000
000000003FC0000003FF80000000
000000003FC0000003FF00000000
000000003F80000007FE00000000
000000007F8000000FFC00000000
00000001FF0000001FF800000000
003FFFFFFE0000001FF800000000
003FFFFFFC0000003FF000000000
003FFFFFF80000007FE000000000
003FFFFFFE000000FFC000000000
003FFFFFFF000001FF8000000000
003FFFFFFF800001FF8000000000
00000000FF800003FF0000000000
000000003FC00007FE0000000000
000000003FC0000FFC0000000000
000000001FE0000FFC0000000000
000000001FE0001FF80000000000
000000001FE0003FF00000000000
000000001FE0007FE00000000000
000000001FE000FFC00000000000
000000001FE000FFC00000000000
000000003FC001FF800000000000
000000007FC003FF000000000000
00000001FFC007FE000000000000
FFFFFFFFFF800FFE000000000000
FFFFFFFFFF800FFC000000000000
FFFFFFFFFF001FF8000000000000
FFFFFFFFFE003FF0000000000000
FFFFFFFFFC007FE0000000000000
FFFFFFFFF0007FE0000000000000
FFFFFFFF8000FFC0000000000000
000000000001FF80000000000000
000000000003FF00000000000000
000000000007FE00000000000000
000000000007FE007F8000007F00
00000000000FFC007F8000007F00
00000000001FF8007F8000007F00
00000000003FF0007F8000007F00
00000000007FF0007F8000007F00
00000000007FE0007F8000007F00
0000000000FFC0007F8000007F00
0000000001FF80007F8000007F00
0000000003FF00007F8000007F00
0000000003FF00007F8000007F00
0000000007FE00007F8000007F00
000000000FFC00007F8000007F00
000000001FF800007F8000007F00
000000003FF800007F8000007F00
000000003FF000007F8000007F00
000000007FE000007F8000007F00
00000000FFC000007F8000007F00
00000001FF8000007F8000007F00
00000003FF8000007F8000007F00
00000003FF0000007F8000007F00
00000007FE0000007F8000007F00
0000000FFC0000003F8000007F00
0000001FFC0000003FC000007F00
0000001FF80000003FF000007F00
0000003FF00000001FFFFFFFFFFC
0000007FE00000001FFFFFFFFFFC
000000FFC00000000FFFFFFFFFFC
000001FFC000000007FFFFFFFFFC
000001FF8000000003FFFFFFFFFC
000003FF0000000000FFFFFFFFFC
000007FE00000000003FFFFFFFFC
00000FFC00000000000000007F00
00000FFC00000000000000007F00
00001FF800000000000000007F00
00003FF000000000000000007F00
00007FE000000000000000007F00
0000FFE000000000000000007F00
0000FFC000000000000000007F00
0001FF8000000000000000007F00
0003FF0000000000000000007F00
0007FE0000000000000000007F00
000FFE0000000000000000007F00
000FFC0000000000000000000000
001FF80000000000000000000000
003FF00000000000000000000000
007FF00000000000000000000000
007FE00000000000000000000000
00FFC00000000000000000000000
01FF800000000000000000000000
ENDCHAR
STARTCHAR questiondown
ENCODING 191
SWIDTH 776 0
DWIDTH 91 0
BBX 82 85 3 0
BITMAP
0000000000000000FC0000
0000000000000003FF0000
0000000000000007FF8000
000000000000000FFFC000
000000000000000FFFC000
000000000000000FFFE000
000000000000001FFFE000
000000000000001FFFE000
000000000000001FFFE000
000000000000001FFFE000
000000000000000FFFE000
000000000000000FFFC000
000000000000000FFFC000
0000000000000007FF8000
0000000000000003FF0000
0000000000000000FC0000
0000000000000000000000
0000000000000000000000
0000000000000000000000
0000000000000000000000
0000000000000000000000
0000000000000000000000
0000000000000000000000
0000000000000000000000
0000000000000000000000
0000000000000000000000
0000000000000000000000
0000000000000000000000
000000000000000FFFC000
000000000000000FFFC000
000000000000000FFFC000
000000000000000FFFC000
000000000000000FFFC000
000000000000000FFFC000
000000000000000FFFC000
000000000000000FFFC000
000000000000001FFFC000
000000000000003FFFC000
00000FFFFFFFFFFFFFC000
0000FFFFFFFFFFFFFFC000
0003FFFFFFFFFFFFFF8000
001FFFFFFFFFFFFFFF8000
003FFFFFFFFFFFFFFF0000
00FFFFFFFFFFFFFFFF0000
01FFFFFFFFFFFFFFFE0000
03FFFFFFFFFFFFFFFC0000
07FFFFFFFFFFFFFFF80000
07FFFFFFFFFFFFFFF00000
0FFFFFFFFFFFFFFFE00000
1FFFFFFFFFFFFFFF800000
1FFFFFFFFFFFFFF8000000
3FFFFC0000000000000000
3FFFF00000000000000000
3FFFC00000000000000000
7FFF800000000000000000
7FFF800000000000000000
7FFF000000000000000000
7FFF000000000000000000
FFFF000000000000000000
FFFF000000000000000000
FFFE000000000000000000
FFFF000000000000000000
FFFF000000000000000000
FFFF000000000000000000
FFFF000000000000000000
7FFF800000000000000000
7FFF800000000000000000
7FFFC00000000000000000
7FFFF00000000000000000
7FFFFC0000000000000000
3FFFFFFFFFFFFFFFFFFFC0
3FFFFFFFFFFFFFFFFFFFC0
1FFFFFFFFFFFFFFFFFFFC0
1FFFFFFFFFFFFFFFFFFFC0
0FFFFFFFFFFFFFFFFFFFC0
0FFFFFFFFFFFFFFFFFFFC0
07FFFFFFFFFFFFFFFFFFC0
03FFFFFFFFFFFFFFFFFFC0
01FFFFFFFFFFFFFFFFFFC0
00FFFFFFFFFFFFFFFFFFC0
003FFFFFFFFFFFFFFFFFC0
001FFFFFFFFFFFFFFFFFC0
0007FFFFFFFFFFFFFFFFC0
0000FFFFFFFFFFFFFFFFC0
00000FFFFFFFFFFFFFFFC0
ENDCHAR
ENDFONT
